<?xml version="1.0" standalone="no"?>
<!DOCTYPE svg PUBLIC "-//W3C//DTD SVG 1.1//EN" "http://www.w3.org/Graphics/SVG/1.1/DTD/svg11.dtd" >
<svg xmlns="http://www.w3.org/2000/svg" xmlns:xlink="http://www.w3.org/1999/xlink" version="1.1">
<metadata></metadata>
<defs>
<font id="futura_stdbook" horiz-adv-x="615" >
<font-face units-per-em="1000" ascent="825" descent="-175" />
<missing-glyph horiz-adv-x="307" />
<glyph horiz-adv-x="0" />
<glyph horiz-adv-x="333" />
<glyph unicode=" "  horiz-adv-x="307" />
<glyph unicode="&#x09;" horiz-adv-x="307" />
<glyph unicode="&#xa0;" horiz-adv-x="307" />
<glyph unicode="!" horiz-adv-x="337" d="M113 44q0 22 16.5 38.5t39.5 16.5t39.5 -16.5t16.5 -38.5q0 -23 -16.5 -40t-39.5 -17t-39.5 17t-16.5 40zM128 153v601h82v-601h-82z" />
<glyph unicode="&#x22;" horiz-adv-x="456" d="M102 754h94l-18 -328h-58zM261 754h94l-18 -328h-58z" />
<glyph unicode="#" d="M44 223v78h115l29 171h-107v78h119l36 204h77l-36 -204h124l35 204h79l-35 -204h92v-78h-105l-29 -171h101v-78h-115l-40 -223h-76l39 223h-123l-42 -223h-75l39 223h-102zM237 301h123l29 171h-123z" />
<glyph unicode="$" d="M74 183l81 23q7 -53 45 -93.5t90 -43.5v305q-31 13 -54 24.5t-47.5 29.5t-40 37.5t-25.5 47t-10 59.5q0 76 50 127t127 62v103h66v-103q50 -6 93 -37.5t65 -76.5l-66 -43q-38 67 -92 77v-247q28 -12 48.5 -22.5t43.5 -24.5t38.5 -30t29 -36t20 -45.5t6.5 -54.5 q0 -83 -52.5 -146t-133.5 -80v-110h-66v104q-80 3 -140.5 58.5t-75.5 135.5zM197 569q0 -37 26 -62.5t67 -43.5v219q-40 -7 -66.5 -39t-26.5 -74zM356 76q47 16 74.5 54.5t27.5 88.5q0 30 -15.5 55.5t-36.5 40.5t-50 29v-268z" />
<glyph unicode="%" horiz-adv-x="796" d="M32 602q0 69 49.5 117t119 48t118.5 -48t49 -117q0 -68 -49.5 -116t-118.5 -48t-118.5 47.5t-49.5 116.5zM96 602q0 -41 31 -70.5t73.5 -29.5t73 29.5t30.5 70.5q0 42 -30.5 71.5t-73 29.5t-73.5 -29.5t-31 -71.5zM158 13l439 754l40 -24l-436 -756zM430 151 q0 69 49.5 117t118.5 48t118.5 -48t49.5 -117q0 -68 -49.5 -116t-118.5 -48t-118.5 47.5t-49.5 116.5zM494 151q0 -41 31 -70.5t73.5 -29.5t73 29.5t30.5 70.5q0 42 -30.5 71.5t-73 29.5t-73.5 -29.5t-31 -71.5z" />
<glyph unicode="&#x26;" horiz-adv-x="694" d="M39 193q0 26 6 50.5t14 43t24 38t28.5 32.5t35.5 30t36.5 26.5t40.5 27.5l9 6q-40 55 -53 79q-22 42 -22 81q0 71 47 115.5t118 44.5q65 0 112.5 -41.5t47.5 -106.5q0 -15 -2.5 -29t-6 -25t-11.5 -24t-13.5 -21t-17.5 -20l-18 -18t-21 -18t-21 -16.5l-22 -16.5l159 -203 l85 99l61 -50l-96 -112l128 -165h-106l-81 106q-61 -55 -119 -87t-122 -32q-58 0 -108 26t-81 74t-31 106zM121 199q0 -53 40 -94.5t93 -41.5q22 0 45.5 7.5t40 15.5t41 26t35 26.5t34.5 30.5l-168 216l-36 -24q-20 -14 -29.5 -21t-27.5 -21t-27.5 -25t-20.5 -26.5 t-15.5 -32.5t-4.5 -36zM238 613q0 -11 2 -21t8.5 -21.5t10 -17t13.5 -19.5t12 -17l18 -25l7 5q4 3 21 16t23 18t18.5 17t17.5 21t9.5 22t4.5 28q0 34 -24.5 55.5t-57.5 21.5q-35 0 -59 -24t-24 -59z" />
<glyph unicode="'" horiz-adv-x="288" d="M98 754h94l-18 -328h-58z" />
<glyph unicode="(" horiz-adv-x="286" d="M93 274q0 138 21.5 274.5t69.5 239.5l71 -34q-80 -211 -80 -480t80 -480l-71 -34q-48 104 -69.5 240t-21.5 274z" />
<glyph unicode=")" horiz-adv-x="286" d="M32 -206q80 210 80 480t-80 480l71 34q48 -103 69.5 -239t21.5 -275t-21.5 -275t-69.5 -239z" />
<glyph unicode="*" horiz-adv-x="591" d="M109 591l24 72l132 -49l-6 140h75l-6 -140l132 49l24 -72l-136 -38l87 -110l-61 -45l-78 118l-78 -118l-61 45l88 110z" />
<glyph unicode="+" d="M66 217v78h203v203h78v-203h203v-78h-203v-203h-78v203h-203z" />
<glyph unicode="," horiz-adv-x="307" d="M58 -150l93 260l74 -26l-113 -256z" />
<glyph unicode="-" horiz-adv-x="207" d="M2 204v74h205v-74h-205z" />
<glyph unicode="." horiz-adv-x="307" d="M98 44q0 22 16.5 38.5t39.5 16.5t39.5 -16.5t16.5 -38.5q0 -23 -16.5 -40t-39.5 -17t-39.5 17t-16.5 40z" />
<glyph unicode="/" horiz-adv-x="569" d="M18 -127l468 952l66 -30l-469 -952z" />
<glyph unicode="0" d="M38 376q0 40 7 83t20.5 87t36 83.5t51.5 70.5t69 49t86 18t86 -18t69 -49t51.5 -70.5t36 -83.5t20.5 -87t7 -83q0 -56 -11.5 -112t-34.5 -106t-54.5 -88t-75.5 -60.5t-94 -22.5t-94 22.5t-75.5 60.5t-54.5 88t-34.5 106t-11.5 112zM122 372q0 -35 6 -73t20.5 -80.5 t34.5 -76t53 -55.5t72.5 -22t72 22t53 55.5t34.5 76t20 80.5t6 73q0 34 -5 74t-18.5 83.5t-34.5 79t-54 58t-73.5 22.5t-74 -22.5t-54 -58t-34.5 -79t-19 -83.5t-5 -74z" />
<glyph unicode="1" d="M158 676l44 78h165v-754h-84v676h-125z" />
<glyph unicode="2" d="M41 0l353 417q51 62 51 126q0 62 -44 104t-106 42q-67 0 -108.5 -43.5t-43.5 -111.5h-84q2 100 68 166.5t165 66.5q63 0 117 -28t87 -80t33 -115q0 -94 -57 -159l-261 -307h318v-78h-488z" />
<glyph unicode="3" d="M57 196h82q3 -57 45 -94t100 -37q62 0 104.5 44t42.5 107q0 70 -44.5 106.5t-115.5 34.5v78q26 1 46.5 4.5t40 12t33 22t21.5 34.5t8 49q0 60 -36 96t-96 36q-55 0 -87 -33t-37 -88h-83q9 92 63.5 145.5t145.5 53.5q92 0 153 -57t61 -149q0 -51 -26 -97t-71 -68 q53 -24 80.5 -74.5t27.5 -110.5q0 -97 -68 -160.5t-166 -63.5q-93 0 -158 58t-66 151z" />
<glyph unicode="4" d="M6 122l468 674h2v-596h93v-78h-93v-122h-84v122h-386zM153 200h239v341h-2z" />
<glyph unicode="5" d="M21 122l67 48q26 -47 70.5 -76t96.5 -29q83 0 136.5 55t53.5 138q0 80 -54.5 131.5t-133.5 51.5q-69 0 -143 -48l109 361h300v-78h-241l-49 -161l45 4q73 0 130.5 -35.5t89 -95t31.5 -132.5q0 -76 -37 -138t-100.5 -96.5t-139.5 -34.5q-74 0 -133.5 35.5t-97.5 99.5z" />
<glyph unicode="6" d="M44 245q0 84 69 181l250 341l63 -47l-174 -234l2 -2q28 11 66 11q67 0 123.5 -33.5t88.5 -91t32 -124.5q0 -71 -35 -130.5t-95 -94t-130 -34.5t-130 34.5t-95 94t-35 129.5zM128 243q0 -74 51.5 -126t124.5 -52t124.5 52t51.5 126q0 73 -51.5 123.5t-124.5 50.5 q-74 0 -125 -50.5t-51 -123.5z" />
<glyph unicode="7" d="M35 26l428 650h-412v78h556l-506 -767z" />
<glyph unicode="8" d="M78 211q0 59 29.5 108t81.5 73q-43 24 -67.5 69.5t-24.5 95.5q0 90 61 150t150 60t150 -60t61 -150q0 -50 -24.5 -95t-67.5 -70q52 -24 81.5 -73t29.5 -108q0 -97 -66 -160.5t-164 -63.5t-164 63.5t-66 160.5zM162 210q0 -61 42.5 -103t103.5 -42t103.5 42t42.5 103 t-42.5 103t-103.5 42t-103.5 -42t-42.5 -103zM177 559q0 -55 38.5 -93.5t92.5 -38.5t92.5 38.5t38.5 93.5q0 54 -38.5 92t-92.5 38t-92.5 -38t-38.5 -92z" />
<glyph unicode="9" d="M45 510q0 70 35 129.5t95 93.5t130 34t130 -34t95 -93.5t35 -129.5q0 -84 -70 -181l-250 -342l-63 43l174 239l-2 2q-33 -10 -65 -10q-68 0 -124 33.5t-88 90.5t-32 125zM129 513q0 -73 51 -123.5t125 -50.5q73 0 124.5 50.5t51.5 123.5t-51.5 124.5t-124.5 51.5 q-74 0 -125 -51.5t-51 -124.5z" />
<glyph unicode=":" horiz-adv-x="307" d="M98 44q0 22 16.5 38.5t39.5 16.5t39.5 -16.5t16.5 -38.5q0 -23 -16.5 -40t-39.5 -17t-39.5 17t-16.5 40zM98 428q0 22 16.5 38.5t39.5 16.5t39.5 -16t16.5 -39t-16.5 -40t-39.5 -17t-39.5 17t-16.5 40z" />
<glyph unicode=";" horiz-adv-x="307" d="M60 -150l93 260l74 -26l-113 -256zM123 428q0 22 16.5 38.5t39.5 16.5t39.5 -16t16.5 -39t-16.5 -40t-39.5 -17t-39.5 17t-16.5 40z" />
<glyph unicode="&#x3c;" d="M66 221v70l484 207v-85l-368 -157l368 -157v-85z" />
<glyph unicode="=" d="M66 139v78h484v-78h-484zM66 295v78h484v-78h-484z" />
<glyph unicode="&#x3e;" d="M66 14v85l368 157l-368 157v85l484 -207v-70z" />
<glyph unicode="?" horiz-adv-x="487" d="M62 596q0 76 53.5 123.5t130.5 47.5t128.5 -51.5t51.5 -128.5q0 -38 -14 -74t-40 -60q-6 -5 -14 -10.5t-14.5 -9.5t-18 -8.5t-16.5 -6.5t-19 -7t-16.5 -5.5t-18.5 -5.5l-16 -5q-36 -10 -56.5 -29t-20.5 -54q0 -34 24 -57t58 -23q40 0 60.5 28t20.5 68h81 q2 -73 -44.5 -123t-118.5 -50q-69 0 -116 47t-47 116q0 33 10.5 58t30 43t42.5 30t54 22q5 1 14 5l25.5 7.5t22.5 8.5t21.5 11t17.5 13t14.5 17.5t8 23t3.5 29.5q0 46 -29 75t-74 29q-42 0 -70 -28.5t-28 -70.5q0 -23 6 -48h-83zM186 44q0 22 16.5 38.5t39.5 16.5 t39.5 -16.5t16.5 -38.5q0 -23 -16.5 -40t-39.5 -17t-39.5 17t-16.5 40z" />
<glyph unicode="@" horiz-adv-x="799" d="M36 377q0 82 30 154.5t81 124t121.5 81.5t149.5 30q139 0 235 -86q112 -98 112 -229q0 -62 -16 -116.5t-46 -93.5q-34 -45 -75 -66.5t-79 -19.5q-21 1 -35 16.5t-19 44.5q-61 -61 -136 -61q-67 0 -117.5 53.5t-50.5 129.5q0 61 24.5 114.5t72 87.5t107.5 34 q40 0 72 -16.5t61 -53.5l14 61h71l-50 -255q-10 -48 -8 -63q4 -21 22 -22q23 0 49 27.5t45 72.5t22 91q5 85 -31.5 149t-100 96.5t-146.5 32.5q-88 0 -158 -41.5t-109.5 -114t-39.5 -162.5q0 -94 43 -167t117 -112t164 -39q126 0 191 46l70 -51q-62 -32 -124 -49.5 t-145 -17.5q-80 0 -151.5 29.5t-123.5 80.5t-82.5 124t-30.5 156zM261 346q0 -53 28.5 -86.5t79.5 -33.5q26 0 47.5 8.5t36 22.5t25 33.5t16.5 39.5t9 42q7 60 -21.5 97.5t-80.5 37.5q-39 0 -72 -24.5t-50.5 -61t-17.5 -75.5z" />
<glyph unicode="A" horiz-adv-x="698" d="M6 0l348 790l339 -790h-93l-89 214h-322l-91 -214h-92zM223 292h255l-126 302z" />
<glyph unicode="B" horiz-adv-x="567" d="M76 0v754h124q54 0 98 -10.5t79.5 -33.5t55 -64t19.5 -96q0 -97 -74 -147q66 -16 104.5 -70t38.5 -123q0 -44 -14 -79.5t-38.5 -59.5t-58.5 -40t-73.5 -23.5t-85.5 -7.5h-175zM160 78h84q31 0 56.5 3t51.5 12.5t44.5 24t29.5 40t11 58.5q0 28 -8.5 50.5t-24 36.5 t-34.5 23.5t-43.5 14.5t-46.5 7t-47 2h-73v-272zM160 422h32q33 0 55.5 2t47 9.5t39.5 20.5t24.5 37.5t9.5 58.5q0 33 -8.5 56.5t-22.5 37t-38.5 20.5t-47.5 9.5t-58 2.5h-33v-254z" />
<glyph unicode="C" horiz-adv-x="716" d="M33 374q0 106 53 196.5t143.5 143.5t196.5 53q125 0 225 -74v-104q-45 47 -105.5 73.5t-124.5 26.5q-82 0 -152.5 -43t-111 -115t-40.5 -154t41 -154t111.5 -115t153.5 -43q62 0 121.5 27t106.5 73v-104q-103 -74 -225 -74q-79 0 -151 30.5t-125 82.5t-85 123.5 t-32 150.5z" />
<glyph unicode="D" horiz-adv-x="677" d="M76 0v754h142q94 0 163 -19t131 -72q125 -108 125 -287q0 -171 -123 -281q-63 -56 -132 -75.5t-166 -19.5h-140zM160 78h61q77 0 133.5 16t104.5 62q46 43 70 100t24 121q0 65 -25 124.5t-73 101.5t-103.5 57.5t-130.5 15.5h-61v-598z" />
<glyph unicode="E" horiz-adv-x="533" d="M76 0v754h391v-78h-307v-224h298v-78h-298v-296h307v-78h-391z" />
<glyph unicode="F" horiz-adv-x="477" d="M76 0v754h343v-78h-259v-224h251v-78h-251v-374h-84z" />
<glyph unicode="G" horiz-adv-x="819" d="M32 375q0 80 31 152.5t84 125t125.5 83.5t152.5 31q194 0 319 -163l-61 -57q-101 142 -259 142q-63 0 -120.5 -25.5t-98 -68t-65 -100.5t-24.5 -121q0 -60 23 -115t65 -98q43 -43 100 -69.5t114 -26.5q49 0 97 17.5t86.5 47.5t62 75t23.5 96h-224v78h314v-15 q0 -77 -14 -134q-16 -62 -64 -117q-51 -60 -125 -93t-154 -33q-62 0 -121.5 19.5t-107 56t-83.5 84t-56 107t-20 121.5z" />
<glyph unicode="H" horiz-adv-x="713" d="M80 0v754h84v-306h386v306h84v-754h-84v370h-386v-370h-84z" />
<glyph unicode="I" horiz-adv-x="238" d="M78 0v754h84v-754h-84z" />
<glyph unicode="J" horiz-adv-x="313" d="M-66 -22l47 65q24 -22 43 -32.5t46 -10.5q17 0 30 6t21.5 14.5t15 23.5t9 26.5t4 30.5t2 29t0.5 27v597h84v-597q0 -31 -1 -47t-3.5 -42t-11 -46.5t-22.5 -37.5q-22 -30 -56.5 -46t-73.5 -16q-68 0 -134 56z" />
<glyph unicode="K" horiz-adv-x="610" d="M76 0v754h84v-323l321 323h113l-354 -351l366 -403h-116l-309 346l-21 -21v-325h-84z" />
<glyph unicode="L" horiz-adv-x="375" d="M76 0v754h84v-676h208v-78h-292z" />
<glyph unicode="M" horiz-adv-x="895" d="M21 0l153 797l274 -633l275 633l153 -797h-86l-97 510h-2l-243 -541l-242 541h-2l-97 -510h-86z" />
<glyph unicode="N" horiz-adv-x="833" d="M81 0v786l588 -616v584h84v-788l-588 615v-581h-84z" />
<glyph unicode="O" horiz-adv-x="861" d="M38 376q0 80 31.5 152.5t84.5 124.5t125.5 83t151.5 31t152 -31t125.5 -83t84 -124.5t31.5 -152.5t-31.5 -152t-84 -124t-125.5 -82.5t-152 -30.5t-151.5 30.5t-125.5 82.5t-84.5 124t-31.5 152zM122 377q0 -62 24.5 -120t65.5 -100t98.5 -67t120.5 -25t120.5 25t98.5 67 t65.5 99.5t24.5 120.5t-24 120.5t-65.5 99.5t-98.5 67t-120.5 25t-121 -25t-99 -67t-65.5 -99.5t-24 -120.5z" />
<glyph unicode="P" horiz-adv-x="502" d="M76 0v754h124q41 0 67 -2t60 -11t60 -27q41 -29 63 -74.5t22 -97.5q0 -47 -18.5 -90t-53.5 -72q-60 -50 -179 -50h-61v-330h-84zM160 408h56q172 0 172 136q0 26 -6 46t-15.5 34t-25 23.5t-31.5 15t-37.5 8.5t-39.5 4t-42 1h-31v-268z" />
<glyph unicode="Q" horiz-adv-x="861" d="M38 376q0 80 31.5 152.5t84.5 124.5t125.5 83t151.5 31q107 0 197.5 -53t143 -143.5t52.5 -196.5q0 -148 -109 -266l113 -115h-107l-63 68q-46 -35 -107.5 -54.5t-119.5 -19.5q-79 0 -151.5 30.5t-125.5 82.5t-84.5 124t-31.5 152zM122 377q0 -62 24.5 -120t65.5 -100 t98.5 -67t120.5 -25q42 0 88 15t80 41l-182 183h110l130 -136q83 87 83 209q0 85 -40.5 156.5t-112 113.5t-156.5 42q-63 0 -120.5 -25t-99 -67t-65.5 -99.5t-24 -120.5z" />
<glyph unicode="R" horiz-adv-x="541" d="M76 0v754h109q46 0 84 -5t74.5 -19.5t61.5 -37t40.5 -60t15.5 -86.5q0 -87 -51 -144t-138 -64l240 -338h-103l-228 331h-21v-331h-84zM160 405h26q32 0 57 2.5t51 11t43.5 23t28.5 39.5t11 59q0 30 -7 53t-21 37.5t-30 24t-40 14t-44.5 6t-49.5 1.5h-25v-271z" />
<glyph unicode="S" horiz-adv-x="558" d="M40 182l82 23q9 -60 50.5 -100t100.5 -40q62 0 108.5 42t46.5 105q0 21 -4 38t-16.5 32t-20 23.5t-30 21.5t-29 16.5t-34.5 15.5q-3 1 -5 3l-46 20q-30 14 -51 25t-44 29t-37 36.5t-23 45t-9 57.5q0 57 29.5 101.5t77.5 67.5t104 23q63 0 114 -30.5t81 -86.5l-67 -43 q-24 41 -54 61.5t-76 20.5q-51 0 -88 -33t-37 -84q0 -19 8 -35.5t18 -27t29 -22.5t30 -17.5t33 -15.5l50 -22q34 -15 57.5 -27t48.5 -31t40 -40t25 -50t10 -64q0 -98 -69 -165.5t-168 -67.5q-90 0 -153.5 53t-81.5 142z" />
<glyph unicode="T" horiz-adv-x="469" d="M10 676v78h450v-78h-184v-676h-84v676h-182z" />
<glyph unicode="U" horiz-adv-x="684" d="M74 282v472h84v-449v-10q0 -27 0.5 -42t3.5 -38.5t10 -42.5t19 -35q24 -33 66.5 -52.5t85.5 -19.5q42 0 82 18t66 49q6 7 11 15t8.5 15t6.5 17.5t4.5 16.5t3 18.5t2 17.5t1 19t0.5 17.5v19v17.5v449h84v-472q0 -72 -12.5 -119t-53.5 -90q-39 -42 -92 -64t-111 -22 q-54 0 -105.5 20t-89.5 57q-45 43 -59.5 93t-14.5 125z" />
<glyph unicode="V" horiz-adv-x="623" d="M6 754h91l215 -575l215 575h91l-306 -799z" />
<glyph unicode="W" horiz-adv-x="1090" d="M13 754h91l198 -565l244 604l244 -604l198 565h91l-289 -793l-244 607l-244 -607z" />
<glyph unicode="X" horiz-adv-x="563" d="M13 0l223 390l-204 364h96l154 -284l154 284h96l-204 -364l223 -390h-96l-173 310l-173 -310h-96z" />
<glyph unicode="Y" horiz-adv-x="592" d="M8 754h97l192 -336l192 336h97l-247 -430v-324h-84v324z" />
<glyph unicode="Z" horiz-adv-x="585" d="M14 0l411 676h-359v78h499l-412 -676h401v-78h-540z" />
<glyph unicode="[" horiz-adv-x="314" d="M104 -240v1028h190v-74h-108v-880h108v-74h-190z" />
<glyph unicode="\" horiz-adv-x="569" d="M18 795l66 30l468 -825l-65 -30z" />
<glyph unicode="]" horiz-adv-x="314" d="M21 -166h108v880h-108v74h190v-1028h-190v74z" />
<glyph unicode="^" d="M66 322l206 432h72l206 -432h-89l-153 328l-155 -328h-87z" />
<glyph unicode="_" horiz-adv-x="500" d="M0 -75h500v-50h-500v50z" />
<glyph unicode="`" horiz-adv-x="357" d="M78 706l84 38l119 -164l-50 -28z" />
<glyph unicode="a" horiz-adv-x="576" d="M36 234q0 67 26.5 123.5t79 91t120.5 34.5q47 0 89 -21.5t72 -58.5h2v67h80v-470h-80v65h-2q-62 -78 -162 -78q-67 0 -119 35t-79 91t-27 121zM118 240q0 -73 41.5 -126t112.5 -53q74 0 115.5 51.5t41.5 126.5q0 73 -43 121.5t-115 48.5q-67 0 -110 -50.5t-43 -118.5z " />
<glyph unicode="b" horiz-adv-x="576" d="M72 0v825h80v-422h2q29 38 71 59t90 21q68 0 120 -34.5t79 -90.5t27 -123q0 -66 -27 -122t-79 -91t-119 -35q-49 0 -91.5 20t-70.5 58h-2v-65h-80zM148 240q0 -73 41 -126t113 -53q74 0 115.5 51.5t41.5 126.5q0 73 -43 121.5t-115 48.5q-67 0 -110 -50.5t-43 -118.5z " />
<glyph unicode="c" horiz-adv-x="475" d="M29 235q0 69 33.5 126t91 89.5t126.5 32.5q79 0 145 -47v-106h-2q-62 79 -146 79q-72 0 -119 -51t-47 -123t45 -123t117 -51q90 0 153 81h2v-107q-72 -48 -149 -48q-107 0 -178.5 71t-71.5 177z" />
<glyph unicode="d" horiz-adv-x="576" d="M36 234q0 67 26.5 123.5t79 91t120.5 34.5q47 0 89.5 -21.5t71.5 -58.5h2v422h80v-825h-80v65h-2q-29 -38 -71 -58t-91 -20q-67 0 -119 35t-79 91t-27 121zM118 240q0 -73 41.5 -126t112.5 -53q74 0 115.5 51.5t41.5 126.5q0 73 -43 121.5t-115 48.5q-67 0 -110 -50.5 t-43 -118.5z" />
<glyph unicode="e" horiz-adv-x="518" d="M34 229q0 71 26 128t78.5 91.5t123.5 34.5q55 0 99.5 -22t72 -58.5t41.5 -84.5q10 -36 10 -75v-7v-18h-369q1 -66 44 -111.5t110 -45.5q90 0 143 97l68 -39q-34 -63 -90 -97.5t-127 -34.5q-68 0 -121 32.5t-81 87.5t-28 122zM120 286h281q-9 52 -48 87.5t-90 35.5 q-52 0 -94 -36t-49 -87z" />
<glyph unicode="f" horiz-adv-x="273" d="M39 396v74h44v187q0 27 0.5 43t5.5 39.5t15 39.5q19 30 51 44.5t70 14.5q25 0 57 -10v-81q-33 11 -54 11q-10 0 -17.5 -1.5t-14 -4.5t-11 -6t-8 -10t-6 -11.5t-4 -14.5t-2.5 -16t-1.5 -19.5t-0.5 -21.5v-24v-159h119v-74h-119v-396h-80v396h-44z" />
<glyph unicode="g" horiz-adv-x="579" d="M31 233q0 49 16 94.5t45 80t72 55t94 20.5q48 0 89.5 -21t70.5 -59h2v67h80v-447q0 -37 -1 -56.5t-5 -48t-14.5 -52t-27.5 -45.5q-32 -41 -80 -62t-102 -21q-100 0 -164.5 59t-66.5 157h80q0 -64 42.5 -103t107.5 -39q36 0 63 10.5t43.5 28t27 43.5t14 53.5t3.5 61.5v56 h-2q-28 -37 -72 -57.5t-91 -20.5q-66 0 -118.5 34.5t-79 90t-26.5 121.5zM113 240q0 -47 17 -87t53 -66t84 -26q74 0 115.5 51.5t41.5 126.5q0 73 -43 121.5t-115 48.5q-67 0 -110 -50.5t-43 -118.5z" />
<glyph unicode="h" horiz-adv-x="527" d="M76 0v825h80v-410l2 -2q52 70 134 70q38 0 66.5 -11t46 -29t28.5 -45t15 -55.5t4 -63.5v-279h-80v265q0 22 -1 37.5t-4 33.5t-9.5 30t-17 22.5t-28 15.5t-39.5 5q-26 0 -46.5 -7.5t-33 -22.5t-20.5 -31t-11.5 -39.5t-4.5 -42t-1 -43.5v-223h-80z" />
<glyph unicode="i" horiz-adv-x="261" d="M74 647q0 23 17 40t40 17t40 -17t17 -40q0 -24 -17 -40.5t-40.5 -16.5t-40 16.5t-16.5 40.5zM91 0v470h80v-470h-80z" />
<glyph unicode="j" horiz-adv-x="261" d="M74 647q0 23 17 40t40 17t40 -17t17 -40q0 -24 -17 -40.5t-40.5 -16.5t-40 16.5t-16.5 40.5zM91 -264v734h80v-734h-80z" />
<glyph unicode="k" horiz-adv-x="469" d="M72 0v825h80v-529l171 174h107l-201 -200l239 -270h-106l-189 214l-21 -21v-193h-80z" />
<glyph unicode="l" horiz-adv-x="226" d="M74 0v825h80v-825h-80z" />
<glyph unicode="m" horiz-adv-x="767" d="M76 0v470h80v-51h2q19 30 48.5 47t64.5 17q42 0 76.5 -21t53.5 -57q20 38 58.5 58t82.5 20q35 0 61.5 -11.5t43 -29.5t27 -44t14.5 -53t4 -59v-286h-80v273q0 23 -1 38t-6 35.5t-13.5 33t-25.5 21t-40 8.5q-26 0 -45.5 -10t-30.5 -25.5t-17 -38t-7.5 -42t-1.5 -44.5v-249 h-80v267q0 21 -1 37.5t-6 37t-14 34.5t-25 23.5t-38 9.5q-27 0 -47 -11t-31 -27t-17 -39.5t-7.5 -43.5t-1.5 -45v-243h-80z" />
<glyph unicode="n" horiz-adv-x="527" d="M76 0v470h80v-57h2q52 70 134 70q38 0 66.5 -11t46 -29t28.5 -45t15 -55.5t4 -63.5v-279h-80v265q0 22 -1 37.5t-4 33.5t-9.5 30t-17 22.5t-28 15.5t-39.5 5q-26 0 -46.5 -7.5t-33 -22.5t-20.5 -31t-11.5 -39.5t-4.5 -42t-1 -43.5v-223h-80z" />
<glyph unicode="o" horiz-adv-x="561" d="M34 234q0 68 32.5 125.5t89.5 90.5t125 33t124.5 -33t89.5 -90.5t33 -125.5t-33 -125t-90 -89.5t-124.5 -32.5t-124 32.5t-89.5 89.5t-33 125zM114 235q0 -73 47 -123.5t120 -50.5t120 50.5t47 123.5t-47 123.5t-120 50.5t-120 -50.5t-47 -123.5z" />
<glyph unicode="p" horiz-adv-x="576" d="M72 -264v734h80v-67h2q29 39 71 59.5t91 20.5q67 0 119 -35.5t79 -92t27 -121.5q0 -67 -26.5 -123t-79 -90t-120.5 -34q-48 0 -90.5 20.5t-70.5 58.5h-2v-330h-80zM148 240q0 -73 41 -126t113 -53q74 0 115.5 51.5t41.5 126.5q0 73 -43 121.5t-115 48.5q-67 0 -110 -50.5 t-43 -118.5z" />
<glyph unicode="q" horiz-adv-x="576" d="M36 233q0 49 16 94t44.5 79.5t71 55.5t93.5 21q48 0 90.5 -21t71.5 -59h2v67h80v-734h-80v330h-2q-28 -38 -70.5 -58.5t-90.5 -20.5q-68 0 -120.5 34t-79 89.5t-26.5 122.5zM118 240q0 -73 41.5 -126t112.5 -53q74 0 115.5 51.5t41.5 126.5q0 73 -43 121.5t-115 48.5 q-67 0 -110 -50.5t-43 -118.5z" />
<glyph unicode="r" horiz-adv-x="334" d="M72 0v470h80v-51h2q17 22 28.5 34t31 21t44.5 9q34 0 72 -22l-38 -73q-1 1 -7.5 5.5t-8 5.5t-6.5 4t-8 3.5t-8 1.5t-10 1q-21 0 -37 -8t-26 -23.5t-16 -32t-9 -38.5t-3.5 -37.5t-0.5 -34.5v-235h-80z" />
<glyph unicode="s" horiz-adv-x="398" d="M37 106l71 30q17 -38 38 -56.5t58 -18.5q33 0 54.5 20t21.5 52q0 21 -12 37t-30.5 26.5t-41 19.5t-45.5 20t-41.5 24.5t-30 36.5t-11.5 53q0 58 40.5 95.5t99.5 37.5q40 0 74.5 -24.5t50.5 -62.5l-67 -35q-9 20 -26 34t-38 14q-22 0 -40 -15.5t-18 -36.5q0 -8 2.5 -15 t6.5 -12.5t11.5 -11.5t13 -9.5t17 -9t18 -8t20.5 -8.5t20 -8q24 -10 41 -20t33.5 -26t25.5 -38.5t9 -50.5q0 -66 -46.5 -109.5t-112.5 -43.5q-59 0 -103 31.5t-63 87.5z" />
<glyph unicode="t" horiz-adv-x="239" d="M31 396v74h49v169h80v-169h84v-74h-84v-396h-80v396h-49z" />
<glyph unicode="u" horiz-adv-x="511" d="M70 199v271h80v-262q0 -27 1.5 -46t8 -39.5t17.5 -33t31 -20.5t48 -8t48 8t31 20.5t17 33t8 39.5t2 46v262h80v-271q0 -212 -186 -212t-186 212z" />
<glyph unicode="v" horiz-adv-x="462" d="M1 470h91l140 -316l140 316h90l-230 -501z" />
<glyph unicode="w" horiz-adv-x="759" d="M3 470h91l139 -318l146 354l147 -354l140 318h91l-233 -503l-145 350l-145 -350z" />
<glyph unicode="x" horiz-adv-x="497" d="M1 0l200 250l-171 220h98l123 -160l123 160h100l-172 -220l195 -250h-97l-149 191l-150 -191h-100z" />
<glyph unicode="y" horiz-adv-x="497" d="M-2 470h93l166 -337l152 337h91l-347 -734h-91l152 308z" />
<glyph unicode="z" horiz-adv-x="518" d="M10 0l339 396h-276v74h437l-338 -396h324v-74h-486z" />
<glyph unicode="{" horiz-adv-x="333" d="M51 242v64q25 8 40 21t23 35t10 44.5t2 59.5v187q0 56 29.5 95.5t55.5 39.5h73v-74h-40q-11 0 -17.5 -4t-10.5 -9t-6 -17t-2 -20v-26v-189q0 -33 -7 -62.5t-16 -48t-21 -33t-19.5 -21.5t-12.5 -10q6 -3 13 -9.5t19 -21.5t21 -34t16 -48.5t7 -62.5v-188v-22t1 -18 t3.5 -15.5t6.5 -10.5t10 -8t15 -2h40v-74h-73q-26 0 -55.5 39.5t-29.5 95.5v186q0 37 -2 60t-10 45t-23 35t-40 21z" />
<glyph unicode="|" horiz-adv-x="569" d="M246 -214v1000h78v-1000h-78z" />
<glyph unicode="}" horiz-adv-x="333" d="M50 -166h40q9 0 15 2t10 8t6.5 10.5t3 15.5t1 18.5t0.5 21.5v188q0 33 7 62.5t16 48.5t21 34t19 21.5t13 9.5q-5 3 -12.5 10t-19.5 21.5t-21 33t-16 48t-7 62.5v189q0 18 -0.5 26t-2 20t-5.5 17t-10.5 9t-17.5 4h-40v74h73q26 0 55.5 -40t29.5 -95v-187q0 -37 2 -59.5 t10 -44.5t23 -35t40 -21v-64q-25 -8 -40 -21t-23 -35t-10 -45t-2 -60v-186q0 -56 -29.5 -95.5t-55.5 -39.5h-73v74z" />
<glyph unicode="~" d="M66 200q24 66 59 106.5t80 40.5q40 0 109 -45q8 -5 25 -17t27 -18.5t23 -12.5t22 -6q20 0 39 27.5t32 69.5l68 -28q-22 -65 -57 -106t-82 -41q-23 0 -53.5 15.5t-55.5 33.5t-52.5 33.5t-44.5 15.5q-20 0 -38.5 -26.5t-31.5 -69.5z" />
<glyph unicode="&#xa2;" d="M95 380q0 61 26.5 115t75 90.5t108.5 43.5v106h66v-104q65 -6 120 -44v-106h-2q-52 67 -118 76v-344q36 5 67 27t53 53h2v-107q-65 -43 -122 -47v-112h-66v113q-58 6 -106.5 41t-76 88t-27.5 111zM177 386q0 -62 35 -111t93 -61v341q-57 -11 -92.5 -60.5t-35.5 -108.5z " />
<glyph unicode="&#xa3;" d="M37 29q26 42 63.5 69t82.5 28q32 45 32 93q0 26 -7 49h-127v64h100l-19 37q-4 8 -15 29.5t-15.5 30.5t-12.5 28t-11.5 31.5t-6.5 30t-3 34.5q0 60 30.5 109.5t81.5 77t111 27.5q97 0 157.5 -64.5t61.5 -161.5l-82 -22q0 34 -7.5 63t-22.5 53t-42 38t-63 14 q-58 0 -98.5 -39t-40.5 -97q0 -35 14.5 -72t40 -81t34.5 -66h142v-64h-120q7 -26 7 -45q0 -52 -33 -108l5 -2q7 -2 32.5 -11.5t42.5 -15t37.5 -11t32.5 -5.5q16 0 30 6.5t25 18.5t18.5 23t17.5 27l68 -41q-22 -50 -62.5 -83t-91.5 -33q-41 0 -122 29q-4 1 -17 6t-17.5 6.5 l-15 5t-16.5 5t-14.5 3t-15.5 2.5t-14 1q-54 0 -90 -61z" />
<glyph unicode="&#xa5;" d="M19 754h97l192 -334l192 334h97l-155 -270h145v-64h-182l-55 -100h237v-64h-237v-256h-84v256h-237v64h237l-55 100h-182v64h145z" />
<glyph unicode="&#xa8;" horiz-adv-x="466" d="M81 650.5q0 22.5 15.5 38.5t38 16t38.5 -16t16 -38.5t-16 -38t-38.5 -15.5t-38 15.5t-15.5 38zM278 650.5q0 22.5 16 38.5t38 16t38 -16t16 -38.5t-16 -38t-38 -15.5t-38 15.5t-16 38z" />
<glyph unicode="&#xa9;" horiz-adv-x="799" d="M8 377q0 107 52 196.5t142 141.5t198 52t198 -52t142 -141.5t52 -196.5t-52 -196.5t-142 -141.5t-198 -52t-198 52t-142 141.5t-52 196.5zM68 377q0 -90 45.5 -166.5t122 -120t164.5 -43.5t164.5 43.5t122 120t45.5 166.5t-45.5 166.5t-122 120t-164.5 43.5t-164.5 -43.5 t-122 -120t-45.5 -166.5zM198 380q0 99 59 162t158 63q70 0 120.5 -39.5t63.5 -108.5h-61q-9 42 -42 65t-82 23q-39 0 -70 -14.5t-49 -38t-27.5 -52t-9.5 -58.5q0 -71 42.5 -118.5t115.5 -47.5q49 0 80 24t42 67h61q-9 -69 -61.5 -110t-121.5 -41q-97 0 -157.5 64.5 t-60.5 159.5z" />
<glyph unicode="&#xab;" horiz-adv-x="500" d="M41 240l168 213l53 -42l-135 -171l135 -166l-53 -41zM211 240l168 213l53 -42l-135 -171l135 -166l-53 -41z" />
<glyph unicode="&#xae;" horiz-adv-x="799" d="M8 377q0 107 52 196.5t142 141.5t198 52t198 -52t142 -141.5t52 -196.5t-52 -196.5t-142 -141.5t-198 -52t-198 52t-142 141.5t-52 196.5zM68 377q0 -90 45.5 -166.5t122 -120t164.5 -43.5t164.5 43.5t122 120t45.5 166.5t-45.5 166.5t-122 120t-164.5 43.5t-164.5 -43.5 t-122 -120t-45.5 -166.5zM254 166v427h186q152 0 152 -113q0 -60 -36.5 -88t-98.5 -29l129 -197h-72l-128 197h-72v-197h-60zM314 423h72q5 0 21 -0.5t24.5 -0.5t24 1t24 3.5t20 6.5t17.5 10t10.5 16t4.5 22q0 52 -104 52h-114v-110z" />
<glyph unicode="&#xb4;" horiz-adv-x="357" d="M78 580l119 164l84 -38l-153 -154z" />
<glyph unicode="&#xb8;" horiz-adv-x="324" d="M78 -171l96 148l74 -30l-114 -146z" />
<glyph unicode="&#xbb;" horiz-adv-x="500" d="M68 74l135 166l-135 171l53 42l168 -213l-168 -207zM238 74l135 166l-135 171l53 42l168 -213l-168 -207z" />
<glyph unicode="&#xc0;" horiz-adv-x="698" d="M6 0l348 790l339 -790h-93l-89 214h-322l-91 -214h-92zM209 965l84 38l119 -164l-50 -28zM223 292h255l-126 302z" />
<glyph unicode="&#xc1;" horiz-adv-x="698" d="M6 0l348 790l339 -790h-93l-89 214h-322l-91 -214h-92zM223 292h255l-126 302zM289 839l119 164l84 -38l-153 -154z" />
<glyph unicode="&#xc2;" horiz-adv-x="698" d="M6 0l348 790l339 -790h-93l-89 214h-322l-91 -214h-92zM193 863l156 133l158 -133l-58 -45l-100 85l-99 -85zM223 292h255l-126 302z" />
<glyph unicode="&#xc3;" horiz-adv-x="698" d="M6 0l348 790l339 -790h-93l-89 214h-322l-91 -214h-92zM175 886q21 37 44.5 58t57.5 21q36 0 81 -23q4 -2 14 -6.5t14.5 -6.5t11.5 -5t13 -4t11 -1q13 0 24.5 8t17.5 17t14 23l47 -38q-14 -35 -42.5 -58t-63.5 -23q-23 0 -73 22.5t-72 22.5q-19 0 -29.5 -12t-20.5 -34z M223 292h255l-126 302z" />
<glyph unicode="&#xc7;" horiz-adv-x="716" d="M33 374q0 106 53 196.5t143.5 143.5t196.5 53q125 0 225 -74v-104q-45 47 -105.5 73.5t-124.5 26.5q-82 0 -152.5 -43t-111 -115t-40.5 -154t41 -154t111.5 -115t153.5 -43q62 0 121.5 27t106.5 73v-104q-103 -74 -225 -74q-79 0 -151 30.5t-125 82.5t-85 123.5 t-32 150.5zM274 -171l96 148l74 -30l-114 -146z" />
<glyph unicode="&#xc9;" horiz-adv-x="533" d="M76 0v754h391v-78h-307v-224h298v-78h-298v-296h307v-78h-391zM206 839l119 164l84 -38l-153 -154z" />
<glyph unicode="&#xca;" horiz-adv-x="533" d="M76 0v754h391v-78h-307v-224h298v-78h-298v-296h307v-78h-391zM110 863l156 133l158 -133l-58 -45l-100 85l-99 -85z" />
<glyph unicode="&#xcd;" horiz-adv-x="238" d="M43 839l119 164l84 -38l-153 -154zM78 0v754h84v-754h-84z" />
<glyph unicode="&#xd3;" horiz-adv-x="861" d="M38 376q0 80 31.5 152.5t84.5 124.5t125.5 83t151.5 31t152 -31t125.5 -83t84 -124.5t31.5 -152.5t-31.5 -152t-84 -124t-125.5 -82.5t-152 -30.5t-151.5 30.5t-125.5 82.5t-84.5 124t-31.5 152zM122 377q0 -62 24.5 -120t65.5 -100t98.5 -67t120.5 -25t120.5 25t98.5 67 t65.5 99.5t24.5 120.5t-24 120.5t-65.5 99.5t-98.5 67t-120.5 25t-121 -25t-99 -67t-65.5 -99.5t-24 -120.5zM370 839l119 164l84 -38l-153 -154z" />
<glyph unicode="&#xd4;" horiz-adv-x="861" d="M38 376q0 80 31.5 152.5t84.5 124.5t125.5 83t151.5 31t152 -31t125.5 -83t84 -124.5t31.5 -152.5t-31.5 -152t-84 -124t-125.5 -82.5t-152 -30.5t-151.5 30.5t-125.5 82.5t-84.5 124t-31.5 152zM122 377q0 -62 24.5 -120t65.5 -100t98.5 -67t120.5 -25t120.5 25t98.5 67 t65.5 99.5t24.5 120.5t-24 120.5t-65.5 99.5t-98.5 67t-120.5 25t-121 -25t-99 -67t-65.5 -99.5t-24 -120.5zM274 863l156 133l158 -133l-58 -45l-100 85l-99 -85z" />
<glyph unicode="&#xd5;" horiz-adv-x="861" d="M38 376q0 80 31.5 152.5t84.5 124.5t125.5 83t151.5 31t152 -31t125.5 -83t84 -124.5t31.5 -152.5t-31.5 -152t-84 -124t-125.5 -82.5t-152 -30.5t-151.5 30.5t-125.5 82.5t-84.5 124t-31.5 152zM122 377q0 -62 24.5 -120t65.5 -100t98.5 -67t120.5 -25t120.5 25t98.5 67 t65.5 99.5t24.5 120.5t-24 120.5t-65.5 99.5t-98.5 67t-120.5 25t-121 -25t-99 -67t-65.5 -99.5t-24 -120.5zM256 886q21 37 44.5 58t57.5 21q36 0 81 -23q4 -2 14 -6.5t14.5 -6.5t11.5 -5t13 -4t11 -1q13 0 24.5 8t17.5 17t14 23l47 -38q-14 -35 -42.5 -58t-63.5 -23 q-23 0 -73 22.5t-72 22.5q-19 0 -29.5 -12t-20.5 -34z" />
<glyph unicode="&#xda;" horiz-adv-x="684" d="M74 282v472h84v-449v-10q0 -27 0.5 -42t3.5 -38.5t10 -42.5t19 -35q24 -33 66.5 -52.5t85.5 -19.5q42 0 82 18t66 49q6 7 11 15t8.5 15t6.5 17.5t4.5 16.5t3 18.5t2 17.5t1 19t0.5 17.5v19v17.5v449h84v-472q0 -72 -12.5 -119t-53.5 -90q-39 -42 -92 -64t-111 -22 q-54 0 -105.5 20t-89.5 57q-45 43 -59.5 93t-14.5 125zM282 839l119 164l84 -38l-153 -154z" />
<glyph unicode="&#xdc;" horiz-adv-x="684" d="M74 282v472h84v-449v-10q0 -27 0.5 -42t3.5 -38.5t10 -42.5t19 -35q24 -33 66.5 -52.5t85.5 -19.5q42 0 82 18t66 49q6 7 11 15t8.5 15t6.5 17.5t4.5 16.5t3 18.5t2 17.5t1 19t0.5 17.5v19v17.5v449h84v-472q0 -72 -12.5 -119t-53.5 -90q-39 -42 -92 -64t-111 -22 q-54 0 -105.5 20t-89.5 57q-45 43 -59.5 93t-14.5 125zM190 910.5q0 22.5 16 38t38.5 15.5t38 -15.5t15.5 -38t-15.5 -38.5t-38 -16t-38.5 16t-16 38.5zM387 910.5q0 22.5 15.5 38t38 15.5t38.5 -15.5t16 -38t-16 -38.5t-38.5 -16t-38 16t-15.5 38.5z" />
<glyph unicode="&#xe0;" horiz-adv-x="576" d="M36 234q0 67 26.5 123.5t79 91t120.5 34.5q47 0 89 -21.5t72 -58.5h2v67h80v-470h-80v65h-2q-62 -78 -162 -78q-67 0 -119 35t-79 91t-27 121zM118 240q0 -73 41.5 -126t112.5 -53q74 0 115.5 51.5t41.5 126.5q0 73 -43 121.5t-115 48.5q-67 0 -110 -50.5t-43 -118.5z M148 706l84 38l119 -164l-50 -28z" />
<glyph unicode="&#xe1;" horiz-adv-x="576" d="M36 234q0 67 26.5 123.5t79 91t120.5 34.5q47 0 89 -21.5t72 -58.5h2v67h80v-470h-80v65h-2q-62 -78 -162 -78q-67 0 -119 35t-79 91t-27 121zM118 240q0 -73 41.5 -126t112.5 -53q74 0 115.5 51.5t41.5 126.5q0 73 -43 121.5t-115 48.5q-67 0 -110 -50.5t-43 -118.5z M228 580l119 164l84 -38l-153 -154z" />
<glyph unicode="&#xe2;" horiz-adv-x="576" d="M36 234q0 67 26.5 123.5t79 91t120.5 34.5q47 0 89 -21.5t72 -58.5h2v67h80v-470h-80v65h-2q-62 -78 -162 -78q-67 0 -119 35t-79 91t-27 121zM118 240q0 -73 41.5 -126t112.5 -53q74 0 115.5 51.5t41.5 126.5q0 73 -43 121.5t-115 48.5q-67 0 -110 -50.5t-43 -118.5z M132 604l156 133l158 -133l-58 -45l-100 85l-99 -85z" />
<glyph unicode="&#xe3;" horiz-adv-x="576" d="M36 234q0 67 26.5 123.5t79 91t120.5 34.5q47 0 89 -21.5t72 -58.5h2v67h80v-470h-80v65h-2q-62 -78 -162 -78q-67 0 -119 35t-79 91t-27 121zM114 627q21 37 44.5 58t57.5 21q36 0 81 -23q4 -2 14 -6.5t14.5 -6.5t11.5 -4.5t12.5 -4t11.5 -1.5q13 0 24.5 8t17.5 17 t14 23l47 -38q-14 -35 -42.5 -58t-63.5 -23q-23 0 -73 22.5t-72 22.5q-19 0 -29.5 -12.5t-20.5 -33.5zM118 240q0 -73 41.5 -126t112.5 -53q74 0 115.5 51.5t41.5 126.5q0 73 -43 121.5t-115 48.5q-67 0 -110 -50.5t-43 -118.5z" />
<glyph unicode="&#xe7;" horiz-adv-x="475" d="M29 235q0 69 33.5 126t91 89.5t126.5 32.5q79 0 145 -47v-106h-2q-62 79 -146 79q-72 0 -119 -51t-47 -123t45 -123t117 -51q90 0 153 81h2v-107q-72 -48 -149 -48q-107 0 -178.5 71t-71.5 177zM154 -171l96 148l74 -30l-114 -146z" />
<glyph unicode="&#xe9;" horiz-adv-x="518" d="M34 229q0 71 26 128t78.5 91.5t123.5 34.5q55 0 99.5 -22t72 -58.5t41 -84t10.5 -100.5h-369q1 -66 44 -111.5t110 -45.5q90 0 143 97l68 -39q-34 -63 -90 -97.5t-127 -34.5q-68 0 -121 32.5t-81 87.5t-28 122zM120 286h281q-9 52 -48 87.5t-90 35.5q-52 0 -94 -36 t-49 -87zM199 580l119 164l84 -38l-153 -154z" />
<glyph unicode="&#xea;" horiz-adv-x="518" d="M34 229q0 71 26 128t78.5 91.5t123.5 34.5q55 0 99.5 -22t72 -58.5t41 -84t10.5 -100.5h-369q1 -66 44 -111.5t110 -45.5q90 0 143 97l68 -39q-34 -63 -90 -97.5t-127 -34.5q-68 0 -121 32.5t-81 87.5t-28 122zM103 604l156 133l158 -133l-58 -45l-100 85l-99 -85z M120 286h281q-9 52 -48 87.5t-90 35.5q-52 0 -94 -36t-49 -87z" />
<glyph unicode="&#xed;" horiz-adv-x="261" d="M55 580l119 164l84 -38l-153 -154zM91 0v470h80v-470h-80z" />
<glyph unicode="&#xf3;" horiz-adv-x="561" d="M34 234q0 68 32.5 125.5t89.5 90.5t125 33t124.5 -33t89.5 -90.5t33 -125.5t-33 -125t-90 -89.5t-124.5 -32.5t-124 32.5t-89.5 89.5t-33 125zM114 235q0 -73 47 -123.5t120 -50.5t120 50.5t47 123.5t-47 123.5t-120 50.5t-120 -50.5t-47 -123.5zM220 580l119 164l84 -38 l-153 -154z" />
<glyph unicode="&#xf4;" horiz-adv-x="561" d="M34 234q0 68 32.5 125.5t89.5 90.5t125 33t124.5 -33t89.5 -90.5t33 -125.5t-33 -125t-90 -89.5t-124.5 -32.5t-124 32.5t-89.5 89.5t-33 125zM114 235q0 -73 47 -123.5t120 -50.5t120 50.5t47 123.5t-47 123.5t-120 50.5t-120 -50.5t-47 -123.5zM124 604l156 133 l158 -133l-58 -45l-100 85l-99 -85z" />
<glyph unicode="&#xf5;" horiz-adv-x="561" d="M34 234q0 68 32.5 125.5t89.5 90.5t125 33t124.5 -33t89.5 -90.5t33 -125.5t-33 -125t-90 -89.5t-124.5 -32.5t-124 32.5t-89.5 89.5t-33 125zM106 627q21 37 44.5 58t57.5 21q36 0 81 -23q4 -2 14 -6.5t14.5 -6.5t11.5 -4.5t13 -4t11 -1.5q13 0 24.5 8t17.5 17t14 23 l47 -38q-14 -35 -42.5 -58t-63.5 -23q-23 0 -73 22.5t-72 22.5q-19 0 -30 -12.5t-20 -33.5zM114 235q0 -73 47 -123.5t120 -50.5t120 50.5t47 123.5t-47 123.5t-120 50.5t-120 -50.5t-47 -123.5z" />
<glyph unicode="&#xfa;" horiz-adv-x="511" d="M70 199v271h80v-262q0 -27 1.5 -46t8 -39.5t17.5 -33t31 -20.5t48 -8t48 8t31 20.5t17 33t8 39.5t2 46v262h80v-271q0 -212 -186 -212t-186 212zM195 580l119 164l84 -38l-153 -154z" />
<glyph unicode="&#xfc;" horiz-adv-x="511" d="M70 199v271h80v-262q0 -27 1.5 -46t8 -39.5t17.5 -33t31 -20.5t48 -8t48 8t31 20.5t17 33t8 39.5t2 46v262h80v-271q0 -212 -186 -212t-186 212zM104 650.5q0 22.5 16 38.5t38.5 16t38 -16t15.5 -38.5t-15.5 -38t-38 -15.5t-38.5 15.5t-16 38zM301 650.5q0 22.5 16 38.5 t38 16t38 -16t16 -38.5t-16 -38t-38 -15.5t-38 15.5t-16 38z" />
<glyph unicode="&#x2c6;" horiz-adv-x="469" d="M78 604l156 133l158 -133l-58 -45l-100 85l-99 -85z" />
<glyph unicode="&#x2dc;" horiz-adv-x="505" d="M78 627q21 37 44.5 58t57.5 21q36 0 81 -23q4 -2 14 -6.5t14.5 -6.5t12 -4.5t13 -4t10.5 -1.5q10 0 18.5 4t15.5 12t11.5 15t10.5 17l47 -38q-14 -35 -42.5 -58t-63.5 -23q-23 0 -73 22.5t-72 22.5q-19 0 -29.5 -12.5t-20.5 -33.5z" />
<glyph unicode="&#x2013;" horiz-adv-x="500" d="M0 204v74h500v-74h-500z" />
<glyph unicode="&#x2014;" horiz-adv-x="1000" d="M130 204v74h740v-74h-740z" />
<glyph unicode="&#x2018;" horiz-adv-x="288" d="M61 512l114 255l54 -21l-94 -261z" />
<glyph unicode="&#x2019;" horiz-adv-x="288" d="M60 506l94 261l74 -27l-114 -255z" />
<glyph unicode="&#x201a;" horiz-adv-x="288" d="M61 -150l94 260l74 -26l-114 -256z" />
<glyph unicode="&#x201c;" horiz-adv-x="456" d="M61 512l114 255l54 -21l-94 -261zM229 512l114 255l54 -21l-94 -261z" />
<glyph unicode="&#x201d;" horiz-adv-x="456" d="M61 506l94 261l74 -27l-114 -255zM229 506l94 261l74 -27l-114 -255z" />
<glyph unicode="&#x201e;" horiz-adv-x="463" d="M61 -150l94 260l74 -26l-114 -256zM236 -150l94 260l74 -26l-114 -256z" />
<glyph unicode="&#x2026;" horiz-adv-x="1000" d="M112 44q0 22 16.5 38.5t39.5 16.5t39.5 -16.5t16.5 -38.5q0 -23 -16.5 -40t-39.5 -17t-39.5 17t-16.5 40zM444 44q0 22 16.5 38.5t39.5 16.5t39.5 -16.5t16.5 -38.5q0 -23 -16.5 -40t-39.5 -17t-39.5 17t-16.5 40zM776 44q0 22 16.5 38.5t39.5 16.5t39.5 -16.5 t16.5 -38.5q0 -23 -16.5 -40t-39.5 -17t-39.5 17t-16.5 40z" />
<glyph unicode="&#x2039;" horiz-adv-x="329" d="M41 240l168 213l53 -42l-135 -171l135 -166l-53 -41z" />
<glyph unicode="&#x203a;" horiz-adv-x="329" d="M68 74l135 166l-135 171l53 42l168 -213l-168 -207z" />
<glyph unicode="&#x20ac;" d="M29 273l23 64h51q-2 20 -2 42q0 7 0.5 21t0.5 19h-73l23 64h56q9 63 29.5 113t53.5 89t83.5 60t114.5 21q58 0 105 -15.5t73 -35.5v-83q-61 59 -169 59q-91 0 -143 -57t-63 -151h327l-23 -64h-313q0 -5 -0.5 -19t-0.5 -21q0 -9 0.5 -23t0.5 -19h283l-23 -64h-251 q14 -102 66.5 -157t140.5 -55q101 0 168 60v-84q-22 -20 -69.5 -34.5t-109.5 -14.5q-117 0 -188.5 70.5t-90.5 214.5h-80z" />
<glyph unicode="&#x2122;" horiz-adv-x="939" d="M36 694v60h341v-60h-140v-361h-60v361h-141zM458 333v421h101l121 -303l125 303h100v-421h-60v361h-2l-144 -361h-39l-140 361h-2v-361h-60z" />
<glyph unicode="&#x25fc;" horiz-adv-x="471" d="M0 0v471h471v-471h-471z" />
</font>
</defs>
</svg>
