<?xml version="1.0" standalone="no"?>
<!DOCTYPE svg PUBLIC "-//W3C//DTD SVG 1.1//EN" "http://www.w3.org/Graphics/SVG/1.1/DTD/svg11.dtd" >
<svg xmlns="http://www.w3.org/2000/svg" xmlns:xlink="http://www.w3.org/1999/xlink" version="1.1">
<metadata></metadata>
<defs>
<font id="futura_stdmedium_condensed" horiz-adv-x="410" >
<font-face units-per-em="1000" ascent="825" descent="-175" />
<missing-glyph horiz-adv-x="204" />
<glyph horiz-adv-x="0" />
<glyph horiz-adv-x="333" />
<glyph unicode=" "  horiz-adv-x="204" />
<glyph unicode="&#x09;" horiz-adv-x="204" />
<glyph unicode="&#xa0;" horiz-adv-x="204" />
<glyph unicode="!" horiz-adv-x="251" d="M66 52q0 25 17.5 42.5t42.5 17.5t42.5 -17.5t17.5 -42.5t-17.5 -42.5t-42.5 -17.5t-42.5 17.5t-17.5 42.5zM77 181v573h100v-573h-100z" />
<glyph unicode="&#x22;" horiz-adv-x="250" d="M17 754h86l-12 -226h-62zM148 754h86l-12 -226h-62z" />
<glyph unicode="#" d="M-39 258l17 59h108l38 124h-109l17 59h109l79 254h55l-78 -254h88l77 254h56l-78 -254h111l-17 -59h-112l-38 -124h112l-15 -59h-115l-79 -258h-55l79 258h-87l-81 -258h-55l80 258h-107zM142 317h87l38 124h-88z" />
<glyph unicode="$" d="M30 567q0 77 38.5 128.5t113.5 58.5v65h45v-65q56 -4 94 -32t52 -79l-77 -46q-6 32 -30 52.5t-58 20.5q-43 0 -62.5 -27t-19.5 -71q0 -14 1.5 -25.5t6.5 -22.5t8.5 -18.5t12.5 -17t13.5 -14.5t17.5 -14t17.5 -12.5t21 -13.5t21.5 -13q33 -21 51 -33.5t37 -31.5t28 -38 t14.5 -45.5t5.5 -61.5q0 -194 -155 -211v-67h-45v67q-59 5 -93.5 32t-53.5 82l83 40q20 -70 85 -70q83 0 83 113q0 16 -2 29t-5 22.5t-9.5 19.5t-11 15.5t-16 14t-17 12.5t-20.5 13.5t-22 14.5q-34 21 -55 36t-42 35.5t-32 41.5t-17.5 50t-6.5 66z" />
<glyph unicode="%" horiz-adv-x="552" d="M42 584q0 22 1 39t4.5 39.5t11 39t18.5 31.5t29.5 22.5t42.5 7.5t42 -7.5t29.5 -22.5t19 -31.5t10.5 -39t4.5 -39.5t1.5 -39q0 -18 -1 -32.5t-3 -34t-6.5 -34.5t-12.5 -30t-19 -25.5t-28 -16.5t-37.5 -6t-37 6t-27.5 16.5t-19 25.5t-12.5 30t-7 34.5t-3 34t-0.5 32.5z M58 0l374 754h62l-374 -754h-62zM109 558q0 -5 0.5 -16t1.5 -18.5t3 -17.5t5 -16.5t7 -12.5t10 -9t13 -3t13 3t10 9t7 12.5t5 16.5t3 17.5t1.5 18.5t0.5 16v15v11v10.5v14.5t-0.5 16.5t-1.5 18.5t-3 17t-5 17t-7 13t-10 9t-13 3t-13 -3t-10 -9t-7 -13t-5 -17t-3 -17 t-1.5 -18.5t-0.5 -16.5v-14.5v-10.5v-11v-15zM296 170q0 22 1 39t4.5 39.5t11 39t18.5 31t29.5 22.5t42.5 8t42 -8t29.5 -22.5t19 -31t10.5 -39t4.5 -39.5t1.5 -39q0 -26 -1.5 -46.5t-8 -47t-17 -43.5t-31.5 -29.5t-49 -12.5t-49 12.5t-31.5 29.5t-17 43.5t-8 47t-1.5 46.5z M363 145q0 -5 0.5 -16.5t1.5 -18.5t3 -17t4.5 -17t7 -13t10.5 -9t13 -3t13 3t10 9t7 13t5 17t3 17t1.5 18.5t0.5 16.5v15v11v10.5v14.5t-0.5 16.5t-1.5 18.5t-3 17t-5 16.5t-7 12.5t-10 9t-13 3t-13 -3t-10.5 -9t-7 -12.5t-4.5 -16.5t-3 -17t-1.5 -18.5t-0.5 -16.5v-14.5 v-10.5v-11v-15z" />
<glyph unicode="&#x26;" horiz-adv-x="493" d="M25 178q0 56 28.5 105t76.5 97q-26 40 -43 87t-17 90q0 62 40 103t104 41t104 -36t40 -100q0 -30 -9 -58t-27 -53.5t-34.5 -44t-41.5 -43.5l99 -164l62 88l64 -52l-80 -112l80 -126h-111l-36 59q-23 -33 -57.5 -51t-72.5 -18q-71 0 -120 56.5t-49 131.5zM121 182 q0 -42 24 -74t61 -32q45 0 76 52l-104 174q-29 -31 -43 -58t-14 -62zM162 559q0 -12 2.5 -24.5t7.5 -26t9 -21.5l12 -24l11 -22q38 39 50 57q22 33 22 67q0 27 -14 43.5t-41 16.5q-25 0 -42 -20.5t-17 -45.5z" />
<glyph unicode="'" horiz-adv-x="250" d="M82 754h86l-12 -226h-62z" />
<glyph unicode="(" horiz-adv-x="275" d="M41 332q0 227 89 432l93 -23q-87 -229 -87 -403q0 -202 87 -427l-93 -24q-89 218 -89 445z" />
<glyph unicode=")" horiz-adv-x="275" d="M53 -89q87 225 87 427q0 174 -87 403l93 23q89 -205 89 -432t-89 -445z" />
<glyph unicode="*" horiz-adv-x="356" d="M29 527l113 64l-113 60l19 36l113 -66l-4 133h39v-133l111 70l21 -34l-116 -66l116 -64l-21 -34l-111 67l4 -129h-43l4 132l-109 -70z" />
<glyph unicode="+" horiz-adv-x="500" d="M44 221v70h171v216h70v-216h172v-70h-172v-219h-70v219h-171z" />
<glyph unicode="," horiz-adv-x="204" d="M9 -170l67 276l81 -25l-97 -265z" />
<glyph unicode="-" horiz-adv-x="241" d="M32 221v76h178v-76h-178z" />
<glyph unicode="." horiz-adv-x="204" d="M43 53q0 24 17.5 41.5t42.5 17.5t42.5 -17t17.5 -42t-17.5 -43t-42.5 -18t-42.5 18t-17.5 43z" />
<glyph unicode="/" horiz-adv-x="406" d="M-29 -103l387 933h79l-385 -933h-81z" />
<glyph unicode="0" d="M35 360v16.5v17.5q0 39 0.5 61t3.5 66t9 72t18.5 63.5t30 56t45.5 35.5t64 15t64 -15t45.5 -35.5t30 -56.5t18.5 -63t9 -72t3.5 -66t0.5 -61v-16.5v-17.5q0 -39 -0.5 -61t-3.5 -66t-9 -72t-18.5 -63.5t-30 -56t-45.5 -35.5t-64 -15t-64 15t-45.5 35.5t-30 56.5t-18.5 63 t-9 72t-3.5 66t-0.5 61zM133 377q0 -45 0.5 -77t2.5 -69t7 -61.5t13 -46t20.5 -32t29.5 -10.5t29.5 10.5t20.5 32t12.5 46t7 61.5t3 69t0.5 77t-0.5 77t-3 69t-7 61.5t-12.5 46t-20.5 32t-29.5 10.5t-29.5 -10.5t-20.5 -32t-13 -46t-7 -61.5t-2.5 -69t-0.5 -77z" />
<glyph unicode="1" d="M83 667v87h172v-754h-98v667h-74z" />
<glyph unicode="2" d="M37 0l183 387q25 58 39.5 104t14.5 92q0 37 -16 63.5t-51 26.5q-12 0 -22 -5t-16 -13t-10.5 -20t-6.5 -22t-3 -25t-1 -23.5t0.5 -21t0.5 -14.5v-20h-102v27q0 29 1 51t5 46.5t11 42.5t19 35.5t29 28t41 17t55 6.5q90 0 129 -47t39 -139q0 -126 -130 -368l-64 -122h187 v-87h-332z" />
<glyph unicode="3" d="M41 166v23h96v-24q0 -36 15 -60t48 -24q15 0 26.5 5.5t18.5 13.5t12.5 21.5t8 24t4 27t1.5 25.5v24q0 21 -1.5 38t-7.5 34.5t-15.5 28.5t-25.5 18t-39 6h-29v90h12q62 0 82.5 24.5t20.5 90.5v23.5t-1.5 25t-5.5 27.5t-10 22t-16.5 17t-24.5 6q-59 0 -59 -98v-23h-96v7 q0 38 3 65.5t12 55.5t25 45t44.5 27.5t67.5 10.5q37 0 64.5 -10t45 -27t28 -42.5t15 -53t4.5 -62.5q0 -25 -1 -43.5t-6 -42.5t-13.5 -40t-24.5 -30.5t-39 -21.5v-2q24 -6 41.5 -19.5t27 -29.5t15.5 -38.5t7.5 -42t1.5 -44.5q0 -48 -8 -86t-26.5 -70t-53.5 -49.5t-85 -17.5 q-83 0 -121 44.5t-38 130.5z" />
<glyph unicode="4" d="M29 207v86l203 461h98v-473h48v-74h-48v-207h-98v207h-203zM108 281h124v320h-2z" />
<glyph unicode="5" d="M42 22l26 89q21 -12 29 -16t25 -9t34 -5q31 0 54 16.5t35.5 43t18 53.5t5.5 55q0 69 -31.5 108.5t-99.5 39.5q-25 0 -61 -9l44 366h240v-87h-163l-24 -190q98 3 147.5 -54.5t49.5 -157.5q0 -43 -6.5 -81.5t-22 -74.5t-39.5 -61.5t-60.5 -41t-83.5 -15.5q-51 0 -117 31z " />
<glyph unicode="6" d="M43 246q0 69 9.5 129.5t30.5 121t40.5 104.5t54.5 117l18 36h108l-147 -322l2 -2q37 34 77 34q26 0 46.5 -8.5t34.5 -22t23.5 -34.5t15 -40t8.5 -45t3.5 -44.5t0.5 -42.5q0 -28 -1 -50t-5.5 -47.5t-11 -44.5t-19 -37.5t-29 -30t-41 -19t-55.5 -7.5t-55.5 8.5t-41.5 22 t-29.5 34t-19 41.5t-11 48t-5.5 50t-1 51zM145 227q0 -146 62 -146q59 0 59 145v4v23.5t-1 25.5t-3.5 28t-6.5 25t-10 22t-16 14t-22 6h-8.5t-10.5 -2.5t-12 -7.5t-11 -15.5t-10.5 -25.5t-6.5 -40t-3 -56z" />
<glyph unicode="7" d="M38 0l210 667h-210v87h337l-229 -754h-108z" />
<glyph unicode="8" d="M43 212q0 24 0.5 39.5t3 39t8.5 39.5t15.5 33t25 28.5t36.5 16.5v2q-83 26 -83 168q0 33 4 59.5t15 50.5t27.5 40t43 25.5t60.5 9.5q90 0 126.5 -45t36.5 -140q0 -141 -82 -169v-1q28 -7 47 -26t27.5 -47t11.5 -53t3 -56q0 -32 -2 -57.5t-8 -54t-18 -49.5t-29.5 -38.5 t-44 -26.5t-61.5 -9q-39 0 -68.5 12.5t-47 33t-28.5 50t-15 59.5t-4 66zM145 207q0 -126 60 -126q62 0 62 126q0 75 -12 107q-16 41 -50 41q-15 0 -25.5 -7t-17 -20.5t-10.5 -25.5t-5 -32l-1.5 -30t-0.5 -27v-6zM150 568q0 -17 2 -33.5t7.5 -36.5t17 -32.5t29.5 -12.5 q17 0 29 12.5t17 32.5t7 36.5t2 33.5q0 105 -55 105q-56 0 -56 -105z" />
<glyph unicode="9" d="M44 506q0 30 1 51.5t4.5 50t10 49t18.5 42t29 34.5t41.5 21.5t56.5 8.5t57 -8t42 -21.5t29 -34.5t18.5 -41.5t10.5 -48.5t5 -50.5t1 -51.5q0 -60 -7 -112.5t-24 -105t-34.5 -95t-47.5 -104.5l-44 -90h-109l150 315l-2 2q-17 -16 -34.5 -23t-41.5 -7q-34 0 -58.5 14.5 t-38 36t-21.5 53t-10 57.5t-2 58zM146 498.5q0 -7.5 1 -25t3 -28t6.5 -25t10.5 -23t16 -14.5t22 -6q13 0 23 6t16 14t10.5 22t7 24.5t3.5 28t1 25.5v23v7q0 146 -61 146q-11 0 -20 -4.5t-14.5 -13.5t-10 -18.5t-7.5 -24t-4.5 -24t-2 -26t-0.5 -22.5v-19v-22.5z" />
<glyph unicode=":" horiz-adv-x="204" d="M43 53q0 24 17.5 41.5t42.5 17.5t42.5 -17t17.5 -42t-17.5 -43t-42.5 -18t-42.5 18t-17.5 43zM43 453q0 24 17.5 41.5t42.5 17.5t42.5 -17t17.5 -42t-17.5 -43t-42.5 -18t-42.5 18t-17.5 43z" />
<glyph unicode=";" horiz-adv-x="204" d="M10 -170l67 276l81 -25l-96 -265zM43 453q0 24 17.5 41.5t42.5 17.5t42.5 -17t17.5 -42t-17.5 -43t-42.5 -18t-42.5 18t-17.5 43z" />
<glyph unicode="&#x3c;" horiz-adv-x="500" d="M44 222v64l413 232v-73l-335 -191l335 -191v-73z" />
<glyph unicode="=" horiz-adv-x="500" d="M44 124v70h413v-70h-413zM44 314v70h413v-70h-413z" />
<glyph unicode="&#x3e;" horiz-adv-x="500" d="M44 -10v73l335 191l-335 191v73l413 -232v-64z" />
<glyph unicode="?" horiz-adv-x="340" d="M34 568v12q0 24 1.5 41.5t4.5 38t8.5 34.5t15.5 28.5t23.5 23t34 13.5t45.5 5q29 0 52 -6.5t38.5 -17.5t26.5 -28.5t17.5 -35t9.5 -43t4 -46t1 -49.5q0 -22 -0.5 -35.5t-2.5 -37t-5.5 -39t-11.5 -34t-18.5 -29.5t-28 -18.5t-38.5 -6.5v-160h-88v227l23 -1q15 0 27 4 t20 9.5t13 16t8 19t4.5 23.5t1.5 24.5v26.5q0 2 0.5 14t0 19.5t-0.5 21.5t-1.5 23t-4 21.5t-6 20.5t-8.5 16t-12.5 11.5t-16.5 3.5t-16.5 -3t-11.5 -8t-7.5 -12t-5 -14.5t-2 -15.5t-0.5 -16v-16v-7v-18h-94zM106 52q0 25 17.5 42.5t42.5 17.5t42.5 -17.5t17.5 -42.5 t-17.5 -42.5t-42.5 -17.5t-42.5 17.5t-17.5 42.5z" />
<glyph unicode="@" horiz-adv-x="799" d="M28 381q0 78 31 149t83.5 122.5t125 81.5t151.5 30q69 0 133 -24t112.5 -66t77.5 -103t29 -130q0 -37 -11 -78t-33 -79.5t-51.5 -70t-68 -50.5t-79.5 -19q-29 0 -54 13.5t-34 39.5q-22 -24 -55 -37.5t-66 -13.5q-63 0 -102.5 44.5t-39.5 108.5q0 51 18.5 105.5t51 100 t81 74.5t102.5 29q37 0 68.5 -17.5t46.5 -50.5l15 48h69l-104 -309q-13 -37 -13 -52q0 -13 8.5 -21.5t21.5 -8.5q19 0 40.5 10.5t43.5 32t40 50t29.5 69.5t11.5 86q0 60 -23.5 109t-64 81t-93 49.5t-110.5 17.5q-92 0 -166.5 -44t-116 -119.5t-41.5 -165.5q0 -89 43 -163 t118 -116t165 -42q81 0 153 33.5t115 95.5h63q-48 -88 -138.5 -139.5t-192.5 -51.5q-82 0 -155 31t-125 83.5t-81.5 124.5t-28.5 152zM259 304q0 -40 19 -66.5t56 -26.5q29 0 56 19.5t46 50.5t33.5 67t22 69t7.5 57q0 30 -18.5 49.5t-49.5 19.5q-38 0 -71.5 -24t-55 -60.5 t-33.5 -77.5t-12 -77z" />
<glyph unicode="A" horiz-adv-x="413" d="M4 0l164 754h79l162 -754h-101l-28 147h-150l-28 -147h-98zM145 225h120l-20 109l-38 274h-2z" />
<glyph unicode="B" horiz-adv-x="417" d="M61 0v754h125q50 0 84.5 -13.5t54 -40.5t27.5 -62.5t8 -85.5q0 -31 -3.5 -55t-13.5 -48t-29.5 -40.5t-48.5 -23.5v-2q60 -19 83 -63t23 -114q0 -107 -43.5 -156.5t-146.5 -49.5h-120zM156 85q5 0 11 -1q53 0 74 28q23 30 24 97q0 34 -4.5 56.5t-16 41t-33.5 27.5 q-21 8 -52 8h-3v-257zM156 422h9q27 0 46 8q22 9 33 28.5t14.5 41.5t3.5 56q0 50 -20.5 81.5t-67.5 31.5h-1h-17v-247z" />
<glyph unicode="C" horiz-adv-x="368" d="M42 365.5q0 37.5 1.5 70t7 74.5t15 76t26.5 68t40 57.5t57.5 38t76.5 14.5q50 0 87 -22v-91q-39 19 -64 19q-22 0 -41 -7.5t-33 -19t-25 -30.5t-17.5 -36t-11.5 -42t-7.5 -43.5t-4 -44.5t-1.5 -39.5v-35.5q0 -26 0.5 -47.5t4 -53t9 -55.5t16.5 -50t26 -43t38 -28t51 -11 q31 0 60 15v-88q-32 -21 -80 -21q-42 0 -76.5 13t-58.5 34t-41.5 51.5t-27.5 62.5t-16.5 71t-8.5 72.5t-2 71z" />
<glyph unicode="D" horiz-adv-x="465" d="M61 0v754h112q32 0 51.5 -1.5t49.5 -9.5t48.5 -22.5t40 -43t33.5 -69.5t20.5 -103t8.5 -141q0 -64 -5 -115.5t-16.5 -88.5t-24.5 -64t-35 -44.5t-41.5 -28t-51 -15.5t-57 -6.5t-64.5 -1.5h-69zM161 85h8q21 0 39 4q21 5 36.5 12t28 22.5t20 27.5t13 35t8 37t4 41.5 t1.5 41v42.5v16v20v18v19q0 20 -0.5 39t-3.5 39t-6 39t-9.5 36.5t-14 32.5t-20 27t-26.5 20q-15 8 -35 13q-14 3 -30 2h-13v-584z" />
<glyph unicode="E" horiz-adv-x="346" d="M61 0v754h269v-87h-169v-237h151v-87h-151v-256h169v-87h-269z" />
<glyph unicode="F" horiz-adv-x="341" d="M61 0v754h271v-87h-171v-237h154v-87h-154v-343h-100z" />
<glyph unicode="G" horiz-adv-x="459" d="M42 375q0 39 0.5 69.5t3 64.5t7 60.5t12 54t17.5 47.5t24.5 38.5t32.5 30t42 18t52 6.5q78 0 121 -38t63 -116l-95 -39q-3 18 -6.5 30t-10.5 26t-15 22.5t-22 14.5t-32 6q-15 0 -27.5 -5t-21 -16t-15 -24t-11 -34t-7.5 -41.5t-4 -51t-1.5 -57t-0.5 -65.5q0 -76 5 -131 t13 -85.5t20 -48t23.5 -22.5t26.5 -5q11 0 18 0.5t17 4.5t16 11t13.5 21t11.5 33.5t7 48.5t3 67v41h-84v87h184v-12v-38v-30q0 -102 -8 -155q-25 -149 -135 -169q-18 -3 -37 -4q-38 0 -67.5 10.5t-50 28t-36 46.5t-24 59t-14 72t-7 80.5t-1.5 88.5z" />
<glyph unicode="H" horiz-adv-x="472" d="M61 0v754h100v-294h151v294h100v-754h-100v373h-151v-373h-100z" />
<glyph unicode="I" horiz-adv-x="221" d="M61 0v754h100v-754h-100z" />
<glyph unicode="J" horiz-adv-x="302" d="M8 10v102q42 -26 66 -26q19 0 32.5 6.5t20.5 15.5t10.5 25t4 27.5t0.5 31.5v562h100v-567q0 -25 -1 -44.5t-5 -41t-10.5 -37t-18 -30t-26.5 -24t-37 -15t-50 -5.5q-52 0 -86 20z" />
<glyph unicode="K" horiz-adv-x="423" d="M61 0v754h102v-362l141 362h103l-148 -365l160 -389h-115l-141 382v-382h-102z" />
<glyph unicode="L" horiz-adv-x="330" d="M61 0v754h100v-667h168v-87h-268z" />
<glyph unicode="M" horiz-adv-x="560" d="M24 0l62 754h86l107 -544h2l3 31l30 181l65 332h88l70 -754h-98l-18 281l-6 140l-2 99h-2q-12 -79 -28 -166t-36 -190.5t-31 -163.5h-69l-97 520h-2l-29 -520h-95z" />
<glyph unicode="N" horiz-adv-x="471" d="M61 0v754h96l176 -573l2 2l-24 302v269h100v-754h-93l-176 581l-2 -2l6 -49l15 -253v-277h-100z" />
<glyph unicode="O" horiz-adv-x="475" d="M42 377q0 40 0.5 65t4.5 70.5t11 75t21.5 66t34.5 58.5t52 37t72 15t71.5 -15t52 -37t35 -58t21.5 -66.5t11 -75t4.5 -70t0.5 -65.5t-0.5 -65.5t-4.5 -70t-11 -74.5t-21.5 -66.5t-35 -58t-52 -37t-71.5 -15.5t-72 15.5t-52 37t-34.5 58t-21.5 66.5t-11 75t-4.5 70 t-0.5 65zM148 377q0 -44 1 -77.5t4.5 -69t9.5 -60.5t16 -45.5t24.5 -30.5t34 -10t34.5 10t24.5 30.5t16 45.5t10 60.5t4.5 69t1 77.5t-1 77.5t-4.5 69t-10 60.5t-16 45t-24.5 30.5t-34.5 10.5t-34 -10.5t-24.5 -30.5t-16 -45t-9.5 -60.5t-4.5 -69t-1 -77.5z" />
<glyph unicode="P" horiz-adv-x="387" d="M61 0v754h120q22 0 38 -1t38 -5.5t37.5 -12t32 -22.5t27 -36t17 -53t6.5 -72q0 -117 -51 -170q-47 -49 -148 -49q-8 0 -17 1v-334h-100zM161 419q8 0 15 -1q50 0 71 28q24 31 24 98q0 125 -96 125h-14v-250z" />
<glyph unicode="Q" horiz-adv-x="478" d="M42 377q0 40 0.5 65t4.5 70.5t11 75t21.5 66t34.5 58.5t52 37t72 15t71.5 -15t52 -37t35 -58t21.5 -66.5t11 -75t4.5 -70t0.5 -65.5q0 -202 -45 -295l68 -94l-65 -46l-53 79q-37 -31 -101 -31q-40 0 -72 15.5t-52 37t-34.5 58t-21.5 66.5t-11 75t-4.5 70t-0.5 65z M148 377q0 -44 1 -77.5t4.5 -69t9.5 -60.5t16 -45.5t24.5 -30.5t34.5 -10q27 0 41 16l-63 91l61 48l38 -54h2q11 117 11 192q0 44 -1 77.5t-4.5 69t-10 60.5t-16 45t-24.5 30.5t-34.5 10.5t-34 -10.5t-24.5 -30.5t-16 -45t-9.5 -60.5t-4.5 -69t-1 -77.5z" />
<glyph unicode="R" horiz-adv-x="415" d="M61 0v754h120q21 0 34.5 -1t34.5 -4.5t35.5 -11t31.5 -21.5t27 -34t17 -51t7 -70q0 -23 -2.5 -46t-10 -48.5t-18.5 -45.5t-30 -34.5t-43 -19.5l139 -367h-104l-136 369h-2v-369h-100zM161 420q5 0 10 -1q45 0 67 28q23 31 24 92q0 20 -1 35t-4 31t-9 27t-15 20t-24 13 q-13 4 -28 4h-4h-16v-249z" />
<glyph unicode="S" horiz-adv-x="353" d="M19 571q0 84 44 138.5t125 54.5q63 0 106 -25l-1 -101q-43 32 -85 32q-40 0 -64.5 -28t-24.5 -69q0 -46 28 -82l76 -83q39 -39 59.5 -66t34 -66.5t13.5 -88.5q0 -83 -48.5 -140t-128.5 -57q-66 0 -110 36v101q53 -39 99 -39q44 0 66 29.5t22 75.5q0 30 -11.5 57 t-30.5 48.5t-41 43t-44.5 45t-41.5 48.5t-30.5 60.5t-11.5 75.5z" />
<glyph unicode="T" horiz-adv-x="322" d="M-4 667v87h331v-87h-113v-667h-100v667h-118z" />
<glyph unicode="U" horiz-adv-x="466" d="M61 234v520h100v-553q0 -35 5 -59t15 -36t21.5 -17t28.5 -5q20 0 34 5.5t22 13.5t12.5 23t6 28.5t1.5 35.5v564h100v-535q0 -82 -10 -119q-23 -88 -113 -105q-23 -4 -50 -5q-33 0 -59.5 6.5t-44.5 17.5t-31 29.5t-20 37t-11.5 45.5t-5.5 51t-1 57z" />
<glyph unicode="V" horiz-adv-x="386" d="M7 754h100l86 -567h2q3 29 7.5 60.5t9.5 61.5t9.5 58.5t9.5 61t9 59.5l46 266h95l-148 -754h-80z" />
<glyph unicode="W" horiz-adv-x="591" d="M2 754h98l71 -511l4 -56h2l30 253l52 314h78l82 -562h2l27 242l46 320h97l-132 -754h-80l-57 351l-23 190l-1 19h-2l-22 -203l-60 -357h-82z" />
<glyph unicode="X" horiz-adv-x="426" d="M24 0l143 383l-134 371h99l48 -134q32 -88 40 -138h2l27 104l53 168h102l-139 -371l139 -383h-102l-46 132q-36 101 -41 150h-2q-1 -30 -19 -87l-62 -195h-108z" />
<glyph unicode="Y" horiz-adv-x="391" d="M2 754h108l92 -349h2l16 97l64 252h107l-140 -429v-325h-100v325z" />
<glyph unicode="Z" horiz-adv-x="392" d="M15 0l229 667h-202v87h333l-227 -667h215v-87h-348z" />
<glyph unicode="[" horiz-adv-x="299" d="M38 -103v857h219v-68h-133v-721h133v-68h-219z" />
<glyph unicode="\" horiz-adv-x="250" d="M-108 830h79l387 -933h-81z" />
<glyph unicode="]" horiz-adv-x="299" d="M43 -35h133v721h-133v68h219v-857h-219v68z" />
<glyph unicode="^" horiz-adv-x="500" d="M44 337l181 417h49l183 -417h-67l-141 324l-139 -324h-66z" />
<glyph unicode="_" horiz-adv-x="500" d="M0 -75h500v-50h-500v50z" />
<glyph unicode="`" horiz-adv-x="279" d="M66 703l67 43l82 -149l-50 -29z" />
<glyph unicode="a" horiz-adv-x="379" d="M29 259q0 24 0.5 41t3 45.5t7 49t13.5 44.5t21.5 39t32 25t44.5 10q61 0 90 -64h2v56h94v-505h-94v65h-2q-16 -38 -35.5 -55.5t-57.5 -17.5q-24 0 -43.5 11t-31.5 27t-21 41.5t-13.5 47.5t-6.5 52t-2.5 47t-0.5 41zM125 213q0 -8 0.5 -24.5t2.5 -27t4.5 -25t7.5 -24 t11 -18.5t15.5 -13.5t20.5 -4.5q59 0 59 165v5v7q0 82 -9 119q-14 57 -50 57q-11 0 -20.5 -4.5t-15.5 -13.5t-11 -18t-7.5 -24t-4.5 -25.5t-2 -27t-1 -24.5v-10v-12v-17v-17v-13v-10z" />
<glyph unicode="b" horiz-adv-x="379" d="M43 0v830h94v-381h2q16 32 35 48t55 16q24 0 44 -10t32.5 -25t21.5 -39t13.5 -44.5t7 -49t3.5 -45.5t0.5 -41t-1 -41t-2.5 -47t-6.5 -52t-13.5 -47.5t-21.5 -41.5t-31.5 -27t-43 -11q-38 0 -57.5 17.5t-35.5 55.5h-2v-65h-94zM134 253q0 -82 9 -119q14 -58 50 -58 q11 0 20.5 4.5t15.5 14t11 19t7.5 24t4.5 25t2.5 27t0.5 24.5v10v12v17v17v12v10q0 8 -0.5 24.5t-2.5 27t-4.5 25.5t-7.5 24t-11 18t-15.5 13.5t-20.5 4.5q-59 0 -59 -164v-5v-7z" />
<glyph unicode="c" horiz-adv-x="277" d="M29 248q0 26 1 47.5t4.5 50t10 50.5t17.5 45t26.5 38t38.5 24.5t52 9.5q40 0 75 -17v-95h-2q-15 22 -44 24q-17 0 -30 -7t-22 -17t-15 -26t-9 -29.5t-5 -32.5t-2 -30v-26q0 -177 81 -177q14 0 24 4.5t24 14.5v-87q-34 -20 -76 -20q-149 0 -149 256z" />
<glyph unicode="d" horiz-adv-x="379" d="M29 259q0 24 0.5 41t3 45.5t7 49t13.5 44.5t21.5 39t32 25t44.5 10q34 0 54.5 -16t35.5 -48h2v381h94v-830h-94v65h-2q-16 -37 -36 -55t-57 -18q-24 0 -43.5 11t-31.5 27t-21 41.5t-13.5 47.5t-6.5 52t-2.5 47t-0.5 41zM125 213q0 -8 0.5 -24.5t2.5 -27t4.5 -25t7.5 -24 t11 -18.5t15.5 -13.5t20.5 -4.5q59 0 59 165v5v7q0 82 -9 119q-14 57 -50 57q-11 0 -20.5 -4.5t-15.5 -13.5t-11 -18t-7.5 -24t-4.5 -25.5t-2 -27t-1 -24.5v-10v-12v-17v-17v-13v-10z" />
<glyph unicode="e" horiz-adv-x="360" d="M29 249q0 26 1 47.5t4.5 50t10 50.5t18 44.5t27 37.5t38.5 24.5t52 9.5q153 0 153 -264v-15h-208q0 -85 15 -121q15 -37 44 -37q18 0 30.5 9t18 24t8 29.5t2.5 31.5h87q0 -29 -5 -54.5t-16.5 -48.5t-28 -39.5t-41.5 -26t-56 -9.5q-26 0 -47 6.5t-36.5 19t-27 27.5 t-19.5 35.5t-12.5 40t-7 43.5t-3.5 43t-1 42zM125 301h112q0 15 -0.5 23.5t-2 26.5t-5 29.5t-9.5 24t-16 18.5t-24 6q-16 0 -27 -9t-16.5 -20.5t-8.5 -31.5t-3 -30.5v-29.5v-7z" />
<glyph unicode="f" horiz-adv-x="248" d="M21 431v74h47v163q0 19 0.5 32.5t2 30.5t5.5 29t9 25t14 22t20 16.5t27.5 11t35.5 3.5q30 0 63 -14v-98q-22 12 -39 12q-13 0 -21.5 -5t-13 -11t-6.5 -18t-2.5 -18.5t-0.5 -20.5v-2v-2v-2v-2v-152h78v-74h-78v-431h-94v431h-47z" />
<glyph unicode="g" horiz-adv-x="381" d="M29 217v32q0 104 13 157q26 107 108 107q35 0 55 -17t37 -51l2 2v58h95v-509q0 -53 -6.5 -91t-18.5 -61t-32 -36.5t-42.5 -18t-54.5 -4.5q-69 0 -109 38t-40 108v14h91v-6q0 -27 13 -47q15 -22 47 -23q9 0 16.5 2t13.5 4.5t10 8.5t7 9.5t5 12t3 13t1.5 14.5t0.5 14v15v14 v84h-2q-10 -32 -34 -51q-21 -17 -51 -17h-5q-20 0 -36 6t-28 16t-21.5 26t-15.5 31t-10.5 35.5t-6.5 37t-3.5 38.5t-1.5 35zM125 255q0 -71 5 -102q13 -77 57 -77q11 0 20 4.5t15 13t10.5 18.5t7 23.5t4 25t2 26.5t0.5 24.5t-0.5 22t-0.5 16.5q0 179 -61 179q-15 0 -26 -9 t-16.5 -23.5t-10 -33t-5 -37t-1.5 -34.5v-15.5v-13.5v-8z" />
<glyph unicode="h" horiz-adv-x="387" d="M44 0v830h94v-383h2q17 32 41 49t61 17q21 0 37.5 -5.5t27 -13.5t18.5 -22t11.5 -26.5t6 -32t2.5 -32.5v-34v-347h-94v349q0 80 -56 80q-12 0 -21.5 -3.5t-15.5 -9.5t-10 -14t-6 -17.5t-3 -20t-1 -20.5v-19v-10v-315h-94z" />
<glyph unicode="i" horiz-adv-x="179" d="M28 658q0 26 18 44t45 18q25 0 43.5 -18t18.5 -44t-18.5 -44.5t-43.5 -18.5q-26 0 -44.5 18.5t-18.5 44.5zM43 0v505h94v-505h-94z" />
<glyph unicode="j" horiz-adv-x="179" d="M28 658q0 26 18 44t45 18q25 -1 43.5 -19t18.5 -44t-19 -45q-18 -17 -41 -17h-2q-26 0 -44.5 18.5t-18.5 44.5zM43 -207v712h94v-712h-94z" />
<glyph unicode="k" horiz-adv-x="394" d="M44 0v830h94v-549h2l117 224h105l-129 -224l146 -281h-109l-130 268h-2v-268h-94z" />
<glyph unicode="l" horiz-adv-x="179" d="M43 0v830h94v-830h-94z" />
<glyph unicode="m" horiz-adv-x="589" d="M43 0v505h95v-62h2q32 70 99 70q34 0 59 -18.5t32 -51.5h2q32 70 104 70q32 0 54.5 -9t34.5 -27t17 -38.5t5 -47.5v-391h-94v354q0 16 -1.5 28t-6.5 23.5t-16 17.5t-27 6q-10 0 -18 -2t-14 -5t-10.5 -8t-7.5 -9.5t-5 -13t-3 -13t-1.5 -14.5t-0.5 -14.5v-15v-13.5v-321 h-94v343q-1 44 -8 59q-11 27 -46 27q-11 0 -19.5 -3t-14 -7t-10 -13t-6.5 -14.5t-3.5 -18t-2 -17.5t-1 -18.5t-0.5 -16.5v-321h-94z" />
<glyph unicode="n" horiz-adv-x="387" d="M44 0v505h94v-58h2q17 32 41 49t61 17q18 0 33 -3.5t25.5 -11.5t18.5 -16.5t12.5 -22.5t7.5 -25.5t4.5 -28.5t1.5 -28.5v-29.5v-347h-94v349q0 80 -56 80q-12 0 -21.5 -3.5t-15.5 -9.5t-10 -14t-6 -17.5t-3 -20t-1 -20.5v-19v-10v-315h-94z" />
<glyph unicode="o" horiz-adv-x="375" d="M29 251q0 27 1 49.5t5 50t11 49.5t19 44t28.5 36.5t40.5 23.5t54 9t54 -9t40.5 -23.5t28.5 -36.5t19 -44t11 -49.5t5 -50t1 -49.5q0 -26 -1 -48t-5 -49.5t-11 -49t-19 -43.5t-28.5 -36.5t-40.5 -23.5t-54 -9t-54 9t-40.5 23.5t-28.5 36.5t-19 43.5t-11 49t-5 49.5t-1 48z M125 214q0 -8 0.5 -23.5t2 -26.5t4.5 -25t8 -24t11.5 -19t15.5 -13.5t21 -4.5t21 4.5t15.5 13.5t11.5 19t8 24t4.5 25t2 26.5t0.5 23.5v10v12v15v16v12v11q0 9 -0.5 24.5t-2 26.5t-4.5 25.5t-8 24t-11.5 18.5t-15.5 13.5t-21 4.5t-21 -4.5t-15.5 -13.5t-11.5 -18.5t-8 -24 t-4.5 -25.5t-2 -27t-0.5 -24v-10v-13v-16v-15v-12.5v-9.5z" />
<glyph unicode="p" horiz-adv-x="379" d="M43 -207v712h94v-65h2q15 36 36 54.5t57 18.5q24 0 43 -11t31.5 -27t21.5 -41.5t13.5 -47t6.5 -51.5t2.5 -47t0.5 -41t-0.5 -41.5t-3 -46t-7 -49t-13.5 -44.5t-21.5 -39t-32.5 -25t-44 -10q-35 0 -54.5 16t-35.5 49h-2v-264h-94zM134 252q0 -82 9 -119q14 -57 50 -57 q14 0 25 7t17.5 20.5t10.5 28.5t6 37.5t2.5 40t0.5 42.5v17v12.5v9.5q0 8 -0.5 25t-2.5 27.5t-4.5 25t-7.5 24t-11 18.5t-15.5 13.5t-20.5 4.5t-19.5 -5t-15 -15.5t-10.5 -20.5t-7 -26.5t-4.5 -27.5t-2 -29t-0.5 -25v-21v-7z" />
<glyph unicode="q" horiz-adv-x="379" d="M29 247q0 24 0.5 41t2.5 47t6.5 51.5t13.5 47t21 41.5t31.5 27t43.5 11q36 0 57 -18.5t36 -54.5h2v65h94v-712h-94v264h-2q-14 -32 -34 -48.5t-56 -16.5q-24 0 -44 10t-32.5 25t-21.5 39t-13.5 44.5t-7 49t-3 46t-0.5 41.5zM125 213q0 -8 0.5 -24.5t2.5 -27t4.5 -25 t7.5 -24t11 -18.5t15.5 -13.5t20.5 -4.5q59 0 59 164v5v7v7v21t-0.5 25t-2 29t-4.5 27.5t-7 26.5t-10.5 21t-15 15t-19.5 5t-20.5 -4.5t-15.5 -13.5t-11 -18t-7.5 -24t-4.5 -25.5t-2.5 -27t-0.5 -24.5v-10v-13v-17v-17v-12.5v-9.5z" />
<glyph unicode="r" horiz-adv-x="268" d="M44 0v505h94v-62h2q35 70 107 70v-93l-16 1q-50 0 -71 -26t-21 -77v-318h-95z" />
<glyph unicode="s" horiz-adv-x="275" d="M14 375q0 61 37.5 99.5t97.5 38.5q48 0 85 -22v-89q-14 12 -33.5 19.5t-36.5 7.5q-27 0 -45.5 -14.5t-18.5 -39.5q0 -17 9 -32t23 -26.5t31 -23.5t33.5 -26t30.5 -30.5t22.5 -41t8.5 -53.5q0 -67 -39 -108.5t-106 -41.5q-24 0 -42.5 5.5t-39.5 18.5v92q20 -16 37.5 -24 t40.5 -8q30 0 46.5 17t16.5 47q0 18 -9 33.5t-23 27.5t-30.5 24.5t-33 26.5t-30.5 30.5t-23 40.5t-9 52z" />
<glyph unicode="t" horiz-adv-x="220" d="M12 431v74h51v143h94v-143h50v-74h-50v-431h-94v431h-51z" />
<glyph unicode="u" horiz-adv-x="388" d="M44 184v321h94v-316v-13.5v-15t0.5 -15t1.5 -15.5t3 -13.5t5 -12.5l7.5 -10t10 -8.5t13.5 -5t17 -2.5t16.5 2t13 4.5t10 8t7.5 9.5t5 12t2.5 13t1 14.5t0.5 14.5v14.5v13.5v321h94v-341q0 -41 -6.5 -71t-23 -53.5t-45.5 -35.5t-71 -12q-40 0 -68.5 9.5t-45.5 25t-26.5 41 t-12.5 52t-3 64.5z" />
<glyph unicode="v" horiz-adv-x="357" d="M13 505h100l68 -382h2l3 30l37 204l31 148h91l-133 -505h-62z" />
<glyph unicode="w" horiz-adv-x="486" d="M-3 505h99l54 -352v-10h2l22 157l39 205h67l57 -352v-10h2l26 188l33 174h92l-119 -505h-64l-51 259l-10 112h-2l-22 -181l-37 -190h-65z" />
<glyph unicode="x" horiz-adv-x="394" d="M14 0l126 267l-126 238h110l71 -173l24 75l41 98h98l-114 -238l138 -267h-111l-50 109q-1 2 -5.5 12.5t-6 14.5t-5 13t-5.5 14t-4.5 13.5t-4 15t-2.5 13.5h-2q0 -6 -1 -12t-3 -13.5t-3 -12t-4 -13t-3.5 -11.5t-4.5 -13t-4.5 -11.5t-5.5 -13.5l-5 -11l-40 -94h-98z" />
<glyph unicode="y" horiz-adv-x="372" d="M4 505h105l74 -352h2l85 352h95l-206 -712h-99l78 248z" />
<glyph unicode="z" horiz-adv-x="334" d="M14 0l175 421h-162v84h294l-169 -421h160v-84h-298z" />
<glyph unicode="{" horiz-adv-x="257" d="M2 301v52q18 2 32 6t27.5 12.5t21.5 24.5t9 38v188q0 73 34 102.5t98 29.5h31v-57q-44 -4 -62.5 -23t-16.5 -64v-159q0 -53 -19.5 -82.5t-74.5 -40.5v-2q55 -11 74.5 -40.5t19.5 -82.5v-159q-1 -45 17 -64t62 -23v-57h-31q-64 0 -98 29.5t-34 102.5v188q0 22 -8.5 38 t-22.5 24.5t-27.5 12.5t-31.5 6z" />
<glyph unicode="|" horiz-adv-x="250" d="M90 -214v1000h70v-1000h-70z" />
<glyph unicode="}" horiz-adv-x="257" d="M3 -43q44 4 62 23t17 64v159q0 53 19.5 82.5t74.5 40.5v2q-55 11 -74.5 40.5t-19.5 82.5v159q1 45 -17 64t-62 23v57h31q64 0 98 -29.5t34 -102.5v-188q0 -22 8.5 -38t22 -24.5t27.5 -12.5t32 -6v-52q-18 -2 -32 -6t-27.5 -12.5t-21.5 -24.5t-9 -38v-188 q0 -73 -34 -102.5t-98 -29.5h-31v57z" />
<glyph unicode="~" horiz-adv-x="500" d="M44 213q11 25 21 43t24.5 36.5t33 28.5t38.5 10q33 0 96 -35l14 -7t14 -7.5t12.5 -6.5t13 -5.5t11 -4t11 -3.5t9.5 -1q44 0 81 83l34 -47q-49 -111 -116 -111q-7 0 -17 2.5t-18.5 5.5t-21.5 9t-19 9t-19.5 10t-15.5 8q-46 25 -69 25q-12 0 -23.5 -6t-19 -13.5t-16 -22 t-12.5 -23l-12 -25.5z" />
<glyph unicode="&#xa2;" d="M98 372q0 28 1.5 50.5t5 53t12 54.5t21.5 46.5t34 37.5t48 21v70h47v-72q27 -3 46 -11v-89q-16 13 -39 13q-15 0 -27.5 -7t-20 -17t-13 -27t-8 -30t-3.5 -33t-1.5 -29.5t-0.5 -26.5q0 -175 75 -175q11 0 38 11v-83q-19 -11 -48 -13v-65h-45v63q-32 9 -54 26.5t-35.5 39.5 t-20.5 54t-9.5 63t-2.5 75z" />
<glyph unicode="&#xa3;" d="M21 36q4 35 31.5 62t61.5 27l15 -1q20 35 20 74t-20 89h-88v39h74q-41 89 -53 125q-20 61 -20 114q0 91 49 144.5t139 53.5q69 0 110.5 -39.5t44.5 -108.5l-78 -38q1 46 -16.5 75t-61.5 29q-42 0 -66.5 -27t-24.5 -70q0 -31 9 -70t15.5 -58t27 -71.5t23.5 -58.5h97v-39 h-91q11 -33 11 -67q0 -67 -25 -115q5 -2 15.5 -8t18 -10t17.5 -7t18 -3q24 0 36 34l82 -27q-33 -93 -107 -93q-27 0 -56.5 12t-55 24t-41.5 12q-13 0 -21.5 -9.5t-12.5 -24.5z" />
<glyph unicode="&#xa5;" d="M11 754h108l98 -348h2l14 96l60 252h107l-95 -308h81v-50h-96l-22 -71v-11h118v-50h-118v-264h-100v264h-118v50h118v11l-26 71h-92v50h74z" />
<glyph unicode="&#xa8;" horiz-adv-x="279" d="M3 659q0 24 16.5 41t41.5 17q22 0 38.5 -16.5t16.5 -38.5q0 -23 -16.5 -40.5t-38.5 -17.5q-23 0 -40.5 16t-17.5 39zM164 659q0 24 16.5 41t41.5 17q22 0 38.5 -16.5t16.5 -38.5q0 -23 -15.5 -40.5t-39 -17.5t-41 16t-17.5 39z" />
<glyph unicode="&#xa9;" horiz-adv-x="799" d="M13 378q0 79 30.5 150.5t82.5 123t124 82t151 30.5t150.5 -30.5t123.5 -82t82.5 -123t30.5 -150.5q0 -80 -30.5 -151.5t-82.5 -123.5t-123.5 -82.5t-150.5 -30.5t-151 30.5t-124 82.5t-82.5 123.5t-30.5 151.5zM76 377q0 -68 25 -128.5t68.5 -103t103.5 -67.5t128 -25 t128 25t103 68t68 103.5t25 127.5t-25 127t-68 103t-103 68.5t-128 25.5q-90 0 -164.5 -43t-117.5 -117.5t-43 -163.5zM202 381q0 97 58 160t155 63q71 0 121 -39.5t62 -107.5h-65q-6 44 -39 69t-78 25q-73 0 -111 -46.5t-38 -122.5q0 -74 39.5 -123.5t111.5 -49.5 q45 0 78 26t37 72h65q-7 -67 -59 -109t-121 -42q-97 0 -156.5 64t-59.5 161z" />
<glyph unicode="&#xab;" horiz-adv-x="356" d="M26 260l129 222l45 -27l-115 -195l104 -199l-44 -25zM145 260l129 222l45 -27l-115 -195l104 -199l-44 -25z" />
<glyph unicode="&#xae;" horiz-adv-x="799" d="M13 378q0 79 30.5 150.5t82.5 123t124 82t151 30.5t150.5 -30.5t123.5 -82t82.5 -123t30.5 -150.5q0 -80 -30.5 -151.5t-82.5 -123.5t-123.5 -82.5t-150.5 -30.5t-151 30.5t-124 82.5t-82.5 123.5t-30.5 151.5zM76 377q0 -68 25 -128.5t68.5 -103t103.5 -67.5t128 -25 t128 25t103 68t68 103.5t25 127.5t-25 127t-68 103t-103 68.5t-128 25.5q-90 0 -164.5 -43t-117.5 -117.5t-43 -163.5zM246 161v435h190q23 0 37 -1t33.5 -6.5t34.5 -16.5q23 -13 37 -39t13 -54q0 -62 -37.5 -91.5t-99.5 -30.5l130 -196h-70l-123 196h-84v-196h-61zM307 404 h74q4 0 18.5 -0.5t20.5 0t19 1t20 2t18 4t17 6t14 9.5t11.5 13.5t6.5 18t3 23.5q0 18 -6 30.5t-15.5 20t-24 11t-28 5t-31.5 1.5h-117v-145z" />
<glyph unicode="&#xb4;" horiz-adv-x="279" d="M66 597l82 149l67 -43l-99 -135z" />
<glyph unicode="&#xb8;" horiz-adv-x="279" d="M76 -193l62 142l66 -32l-85 -133z" />
<glyph unicode="&#xbb;" horiz-adv-x="356" d="M38 455l45 27l129 -222l-119 -224l-44 25l104 199zM157 455l45 27l129 -222l-119 -224l-44 25l104 199z" />
<glyph unicode="&#xc0;" horiz-adv-x="413" d="M4 0l164 754h79l162 -754h-101l-28 147h-150l-28 -147h-98zM118 922l67 43l82 -149l-50 -29zM145 225h120l-20 109l-38 274h-2z" />
<glyph unicode="&#xc1;" horiz-adv-x="413" d="M4 0l164 754h79l162 -754h-101l-28 147h-150l-28 -147h-98zM145 225h120l-20 109l-38 274h-2zM148 816l82 149l67 -43l-99 -135z" />
<glyph unicode="&#xc2;" horiz-adv-x="413" d="M4 0l164 754h79l162 -754h-101l-28 147h-150l-28 -147h-98zM83 829l126 140l123 -140l-47 -38l-78 83l-72 -83zM145 225h120l-20 109l-38 274h-2z" />
<glyph unicode="&#xc3;" horiz-adv-x="413" d="M4 0l164 754h79l162 -754h-101l-28 147h-150l-28 -147h-98zM82 841q1 42 19 70.5t56 28.5q25 0 56 -16.5t45 -16.5q17 0 19 29h56q1 -42 -17 -70.5t-57 -28.5q-20 0 -51 16t-43 16q-24 0 -22 -28h-61zM145 225h120l-20 109l-38 274h-2z" />
<glyph unicode="&#xc7;" horiz-adv-x="368" d="M42 365.5q0 37.5 1.5 70t7 74.5t15 76t26.5 68t40 57.5t57.5 38t76.5 14.5q50 0 87 -22v-91q-39 19 -64 19q-22 0 -41 -7.5t-33 -19t-25 -30.5t-17.5 -36t-11.5 -42t-7.5 -43.5t-4 -44.5t-1.5 -39.5v-35.5q0 -26 0.5 -47.5t4 -53t9 -55.5t16.5 -50t26 -43t38 -28t51 -11 q31 0 60 15v-88q-32 -21 -80 -21q-42 0 -76.5 13t-58.5 34t-41.5 51.5t-27.5 62.5t-16.5 71t-8.5 72.5t-2 71zM151 -193l62 142l66 -32l-85 -133z" />
<glyph unicode="&#xc9;" horiz-adv-x="346" d="M61 0v754h269v-87h-169v-237h151v-87h-151v-256h169v-87h-269zM145 816l82 149l67 -43l-99 -135z" />
<glyph unicode="&#xca;" horiz-adv-x="346" d="M61 0v754h269v-87h-169v-237h151v-87h-151v-256h169v-87h-269zM62 829l126 140l123 -140l-47 -38l-78 83l-72 -83z" />
<glyph unicode="&#xcd;" horiz-adv-x="221" d="M52 816l82 149l67 -43l-99 -135zM61 0v754h100v-754h-100z" />
<glyph unicode="&#xd3;" horiz-adv-x="475" d="M42 377q0 40 0.5 65t4.5 70.5t11 75t21.5 66t34.5 58.5t52 37t72 15t71.5 -15t52 -37t35 -58t21.5 -66.5t11 -75t4.5 -70t0.5 -65.5t-0.5 -65.5t-4.5 -70t-11 -74.5t-21.5 -66.5t-35 -58t-52 -37t-71.5 -15.5t-72 15.5t-52 37t-34.5 58t-21.5 66.5t-11 75t-4.5 70 t-0.5 65zM148 377q0 -44 1 -77.5t4.5 -69t9.5 -60.5t16 -45.5t24.5 -30.5t34 -10t34.5 10t24.5 30.5t16 45.5t10 60.5t4.5 69t1 77.5t-1 77.5t-4.5 69t-10 60.5t-16 45t-24.5 30.5t-34.5 10.5t-34 -10.5t-24.5 -30.5t-16 -45t-9.5 -60.5t-4.5 -69t-1 -77.5zM189 816l82 149 l67 -43l-99 -135z" />
<glyph unicode="&#xd4;" horiz-adv-x="475" d="M42 377q0 40 0.5 65t4.5 70.5t11 75t21.5 66t34.5 58.5t52 37t72 15t71.5 -15t52 -37t35 -58t21.5 -66.5t11 -75t4.5 -70t0.5 -65.5t-0.5 -65.5t-4.5 -70t-11 -74.5t-21.5 -66.5t-35 -58t-52 -37t-71.5 -15.5t-72 15.5t-52 37t-34.5 58t-21.5 66.5t-11 75t-4.5 70 t-0.5 65zM114 829l126 140l123 -140l-47 -38l-78 83l-72 -83zM148 377q0 -44 1 -77.5t4.5 -69t9.5 -60.5t16 -45.5t24.5 -30.5t34 -10t34.5 10t24.5 30.5t16 45.5t10 60.5t4.5 69t1 77.5t-1 77.5t-4.5 69t-10 60.5t-16 45t-24.5 30.5t-34.5 10.5t-34 -10.5t-24.5 -30.5 t-16 -45t-9.5 -60.5t-4.5 -69t-1 -77.5z" />
<glyph unicode="&#xd5;" horiz-adv-x="475" d="M42 377q0 40 0.5 65t4.5 70.5t11 75t21.5 66t34.5 58.5t52 37t72 15t71.5 -15t52 -37t35 -58t21.5 -66.5t11 -75t4.5 -70t0.5 -65.5t-0.5 -65.5t-4.5 -70t-11 -74.5t-21.5 -66.5t-35 -58t-52 -37t-71.5 -15.5t-72 15.5t-52 37t-34.5 58t-21.5 66.5t-11 75t-4.5 70 t-0.5 65zM113 841q1 42 19 70.5t56 28.5q25 0 56 -16.5t45 -16.5q17 0 19 29h56q0 -26 -6 -47.5t-23.5 -36.5t-44.5 -15q-20 0 -51 16t-43 16q-24 0 -22 -28h-61zM148 377q0 -44 1 -77.5t4.5 -69t9.5 -60.5t16 -45.5t24.5 -30.5t34 -10t34.5 10t24.5 30.5t16 45.5t10 60.5 t4.5 69t1 77.5t-1 77.5t-4.5 69t-10 60.5t-16 45t-24.5 30.5t-34.5 10.5t-34 -10.5t-24.5 -30.5t-16 -45t-9.5 -60.5t-4.5 -69t-1 -77.5z" />
<glyph unicode="&#xda;" horiz-adv-x="466" d="M61 234v520h100v-553q0 -35 5 -59t15 -36t21.5 -17t28.5 -5q20 0 34 5.5t22 13.5t12.5 23t6 28.5t1.5 35.5v564h100v-535q0 -82 -10 -119q-23 -88 -113 -105q-23 -4 -50 -5q-33 0 -59.5 6.5t-44.5 17.5t-31 29.5t-20 37t-11.5 45.5t-5.5 51t-1 57zM190 816l82 149l67 -43 l-99 -135z" />
<glyph unicode="&#xdc;" horiz-adv-x="466" d="M61 234v520h100v-553q0 -35 5 -59t15 -36t21.5 -17t28.5 -5q20 0 34 5.5t22 13.5t12.5 23t6 28.5t1.5 35.5v564h100v-535q0 -82 -10 -119q-23 -88 -113 -105q-23 -4 -50 -5q-33 0 -59.5 6.5t-44.5 17.5t-31 29.5t-20 37t-11.5 45.5t-5.5 51t-1 57zM97 878q0 24 16 41 t42 17q22 0 38.5 -16.5t16.5 -38.5q0 -23 -16.5 -40.5t-38.5 -17.5q-23 0 -40.5 16t-17.5 39zM258 878q0 24 16.5 41t41.5 17q22 0 38.5 -16.5t16.5 -38.5q0 -23 -16 -40.5t-39 -17.5q-24 0 -41 16t-17 39z" />
<glyph unicode="&#xe0;" horiz-adv-x="379" d="M29 259q0 24 0.5 41t3 45.5t7 49t13.5 44.5t21.5 39t32 25t44.5 10q61 0 90 -64h2v56h94v-505h-94v65h-2q-16 -38 -35.5 -55.5t-57.5 -17.5q-24 0 -43.5 11t-31.5 27t-21 41.5t-13.5 47.5t-6.5 52t-2.5 47t-0.5 41zM96 703l67 43l82 -149l-50 -29zM125 213.5 q0 -7.5 0.5 -24.5t2.5 -27.5t4.5 -25t7.5 -24t11 -18.5t15.5 -13.5t20.5 -4.5q60 0 59 170v7q0 82 -9 119q-14 57 -50 57q-11 0 -20.5 -4.5t-15.5 -13.5t-11 -18t-7.5 -24t-4.5 -25.5t-2.5 -27t-0.5 -24.5v-22.5v-16.5v-17v-22.5z" />
<glyph unicode="&#xe1;" horiz-adv-x="379" d="M29 259q0 24 0.5 41t3 45.5t7 49t13.5 44.5t21.5 39t32 25t44.5 10q61 0 90 -64h2v56h94v-505h-94v65h-2q-16 -38 -35.5 -55.5t-57.5 -17.5q-24 0 -43.5 11t-31.5 27t-21 41.5t-13.5 47.5t-6.5 52t-2.5 47t-0.5 41zM125 213.5q0 -7.5 0.5 -24.5t2.5 -27.5t4.5 -25 t7.5 -24t11 -18.5t15.5 -13.5t20.5 -4.5q60 0 59 170v7q0 82 -9 119q-14 57 -50 57q-11 0 -20.5 -4.5t-15.5 -13.5t-11 -18t-7.5 -24t-4.5 -25.5t-2.5 -27t-0.5 -24.5v-22.5v-16.5v-17v-22.5zM146 597l82 149l67 -43l-99 -135z" />
<glyph unicode="&#xe2;" horiz-adv-x="379" d="M29 259q0 24 0.5 41t3 45.5t7 49t13.5 44.5t21.5 39t32 25t44.5 10q61 0 90 -64h2v56h94v-505h-94v65h-2q-16 -38 -35.5 -55.5t-57.5 -17.5q-24 0 -43.5 11t-31.5 27t-21 41.5t-13.5 47.5t-6.5 52t-2.5 47t-0.5 41zM66 610l126 140l123 -140l-47 -38l-78 83l-72 -83z M125 213.5q0 -7.5 0.5 -24.5t2.5 -27.5t4.5 -25t7.5 -24t11 -18.5t15.5 -13.5t20.5 -4.5q60 0 59 170v7q0 82 -9 119q-14 57 -50 57q-11 0 -20.5 -4.5t-15.5 -13.5t-11 -18t-7.5 -24t-4.5 -25.5t-2.5 -27t-0.5 -24.5v-22.5v-16.5v-17v-22.5z" />
<glyph unicode="&#xe3;" horiz-adv-x="379" d="M29 259q0 24 0.5 41t3 45.5t7 49t13.5 44.5t21.5 39t32 25t44.5 10q61 0 90 -64h2v56h94v-505h-94v65h-2q-16 -38 -35.5 -55.5t-57.5 -17.5q-24 0 -43.5 11t-31.5 27t-21 41.5t-13.5 47.5t-6.5 52t-2.5 47t-0.5 41zM65 622q1 42 19 70.5t56 28.5q25 0 56.5 -16.5 t44.5 -16.5q7 0 11.5 5.5t5.5 10t2 13.5h56q0 -26 -6 -47.5t-23.5 -36.5t-44.5 -15q-20 0 -51 16t-43 16q-23 0 -22 -28h-61zM125 213.5q0 -7.5 0.5 -24.5t2.5 -27.5t4.5 -25t7.5 -24t11 -18.5t15.5 -13.5t20.5 -4.5q60 0 59 170v7q0 82 -9 119q-14 57 -50 57 q-11 0 -20.5 -4.5t-15.5 -13.5t-11 -18t-7.5 -24t-4.5 -25.5t-2.5 -27t-0.5 -24.5v-22.5v-16.5v-17v-22.5z" />
<glyph unicode="&#xe7;" horiz-adv-x="277" d="M29 248q0 26 1 47.5t4.5 50t10 50.5t17.5 45t26.5 38t38.5 24.5t52 9.5q40 0 75 -17v-95h-2q-15 22 -44 24q-17 0 -30 -7t-22 -17t-15 -26t-9 -29.5t-5 -32.5t-2 -30v-26q0 -177 81 -177q14 0 24 4.5t24 14.5v-87q-34 -20 -76 -20q-149 0 -149 256zM90 -193l62 142 l66 -32l-85 -133z" />
<glyph unicode="&#xe9;" horiz-adv-x="360" d="M29 249q0 26 1 47.5t4.5 50t10 50.5t18 44.5t27 37.5t38.5 24.5t52 9.5q153 0 153 -264v-15h-208q0 -85 15 -121q15 -37 44 -37q18 0 30.5 9t18 24t8 29.5t2.5 31.5h87q0 -29 -5 -54.5t-16.5 -48.5t-28 -39.5t-41.5 -26t-56 -9.5q-26 0 -47 6.5t-36.5 19t-27 27.5 t-19.5 35.5t-12.5 40t-7 43.5t-3.5 43t-1 42zM125 301h112q0 15 -0.5 23.5t-2 26.5t-5 29.5t-9.5 24t-16 18.5t-24 6q-16 0 -27 -9t-16.5 -20.5t-8.5 -31.5t-3 -30.5v-29.5v-7zM137 597l82 149l67 -43l-99 -135z" />
<glyph unicode="&#xea;" horiz-adv-x="360" d="M29 249q0 26 1 47.5t4.5 50t10 50.5t18 44.5t27 37.5t38.5 24.5t52 9.5q153 0 153 -264v-15h-208q0 -85 15 -121q15 -37 44 -37q18 0 30.5 9t18 24t8 29.5t2.5 31.5h87q0 -29 -5 -54.5t-16.5 -48.5t-28 -39.5t-41.5 -26t-56 -9.5q-26 0 -47 6.5t-36.5 19t-27 27.5 t-19.5 35.5t-12.5 40t-7 43.5t-3.5 43t-1 42zM57 610l126 140l123 -140l-47 -38l-78 83l-72 -83zM125 301h112q0 15 -0.5 23.5t-2 26.5t-5 29.5t-9.5 24t-16 18.5t-24 6q-16 0 -27 -9t-16.5 -20.5t-8.5 -31.5t-3 -30.5v-29.5v-7z" />
<glyph unicode="&#xed;" horiz-adv-x="179" d="M31 597l82 149l67 -43l-99 -135zM43 0v505h94v-505h-94z" />
<glyph unicode="&#xf3;" horiz-adv-x="375" d="M29 251q0 27 1 49.5t5 50t11 49.5t19 44t28.5 36.5t40.5 23.5t54 9t54 -9t40.5 -23.5t28.5 -36.5t19 -44t11 -49.5t5 -50t1 -49.5q0 -26 -1 -48t-5 -49.5t-11 -49t-19 -43.5t-28.5 -36.5t-40.5 -23.5t-54 -9t-54 9t-40.5 23.5t-28.5 36.5t-19 43.5t-11 49t-5 49.5t-1 48z M125 214.5q0 -8.5 0.5 -24t2 -26.5t4.5 -25t8 -24t11.5 -19t15.5 -13.5t21 -4.5t21 4.5t15.5 13.5t11.5 19t8 24t4.5 25t2 26.5t0.5 24v21.5v15v16v22.5t-0.5 24.5t-2 27t-4.5 25.5t-8 24t-11.5 18.5t-15.5 13.5t-21 4.5t-21 -4.5t-15.5 -13.5t-11.5 -18.5t-8 -24 t-4.5 -25.5t-2 -27t-0.5 -24.5v-22.5v-16v-15v-21.5zM129 597l82 149l67 -43l-99 -135z" />
<glyph unicode="&#xf4;" horiz-adv-x="375" d="M29 251q0 27 1 49.5t5 50t11 49.5t19 44t28.5 36.5t40.5 23.5t54 9t54 -9t40.5 -23.5t28.5 -36.5t19 -44t11 -49.5t5 -50t1 -49.5q0 -26 -1 -48t-5 -49.5t-11 -49t-19 -43.5t-28.5 -36.5t-40.5 -23.5t-54 -9t-54 9t-40.5 23.5t-28.5 36.5t-19 43.5t-11 49t-5 49.5t-1 48z M64 610l126 140l123 -140l-47 -38l-78 83l-72 -83zM125 214.5q0 -8.5 0.5 -24t2 -26.5t4.5 -25t8 -24t11.5 -19t15.5 -13.5t21 -4.5t21 4.5t15.5 13.5t11.5 19t8 24t4.5 25t2 26.5t0.5 24v21.5v15v16v22.5t-0.5 24.5t-2 27t-4.5 25.5t-8 24t-11.5 18.5t-15.5 13.5t-21 4.5 t-21 -4.5t-15.5 -13.5t-11.5 -18.5t-8 -24t-4.5 -25.5t-2 -27t-0.5 -24.5v-22.5v-16v-15v-21.5z" />
<glyph unicode="&#xf5;" horiz-adv-x="375" d="M29 251q0 27 1 49.5t5 50t11 49.5t19 44t28.5 36.5t40.5 23.5t54 9t54 -9t40.5 -23.5t28.5 -36.5t19 -44t11 -49.5t5 -50t1 -49.5q0 -26 -1 -48t-5 -49.5t-11 -49t-19 -43.5t-28.5 -36.5t-40.5 -23.5t-54 -9t-54 9t-40.5 23.5t-28.5 36.5t-19 43.5t-11 49t-5 49.5t-1 48z M63 622q1 42 19 70.5t56 28.5q25 0 56 -16.5t45 -16.5q17 0 19 29h56q0 -26 -6 -47.5t-23.5 -36.5t-44.5 -15q-20 0 -51 16t-43 16q-23 0 -22 -28h-61zM125 214.5q0 -8.5 0.5 -24t2 -26.5t4.5 -25t8 -24t11.5 -19t15.5 -13.5t21 -4.5t21 4.5t15.5 13.5t11.5 19t8 24t4.5 25 t2 26.5t0.5 24v21.5v15v16v22.5t-0.5 24.5t-2 27t-4.5 25.5t-8 24t-11.5 18.5t-15.5 13.5t-21 4.5t-21 -4.5t-15.5 -13.5t-11.5 -18.5t-8 -24t-4.5 -25.5t-2 -27t-0.5 -24.5v-22.5v-16v-15v-21.5z" />
<glyph unicode="&#xfa;" horiz-adv-x="388" d="M44 184v321h94v-316v-13.5v-15t0.5 -15t1.5 -15.5t3 -13.5t5 -12.5l7.5 -10t10 -8.5t13.5 -5t17 -2.5t16.5 2t13 4.5t10 8t7.5 9.5t5 12t2.5 13t1 14.5t0.5 14.5v14.5v13.5v321h94v-341q0 -41 -6.5 -71t-23 -53.5t-45.5 -35.5t-71 -12q-40 0 -68.5 9.5t-45.5 25t-26.5 41 t-12.5 52t-3 64.5zM151 597l82 149l67 -43l-99 -135z" />
<glyph unicode="&#xfc;" horiz-adv-x="388" d="M44 184v321h94v-316v-13.5v-15t0.5 -15t1.5 -15.5t3 -13.5t5 -12.5l7.5 -10t10 -8.5t13.5 -5t17 -2.5t16.5 2t13 4.5t10 8t7.5 9.5t5 12t2.5 13t1 14.5t0.5 14.5v14.5v13.5v321h94v-341q0 -41 -6.5 -71t-23 -53.5t-45.5 -35.5t-71 -12q-40 0 -68.5 9.5t-45.5 25t-26.5 41 t-12.5 52t-3 64.5zM58 659q0 24 16.5 41t41.5 17q22 0 38.5 -16.5t16.5 -38.5q0 -23 -16 -40.5t-39 -17.5t-40.5 16t-17.5 39zM219 659q0 24 16 41t42 17q22 0 38.5 -16.5t16.5 -38.5q0 -23 -16 -40.5t-39.5 -17.5t-40.5 15.5t-17 39.5z" />
<glyph unicode="&#x2c6;" horiz-adv-x="279" d="M16 610l126 140l123 -140l-47 -38l-78 83l-72 -83z" />
<glyph unicode="&#x2dc;" horiz-adv-x="279" d="M15 622q1 42 19 70.5t56 28.5q25 0 56 -16.5t45 -16.5q17 0 19 29h56q1 -42 -17 -70.5t-57 -28.5q-20 0 -51 16t-43 16q-23 0 -22 -28h-61z" />
<glyph unicode="&#x2013;" horiz-adv-x="500" d="M0 222v74h500v-74h-500z" />
<glyph unicode="&#x2014;" horiz-adv-x="1000" d="M130 222v74h740v-74h-740z" />
<glyph unicode="&#x2018;" horiz-adv-x="212" d="M27 498l96 266l52 -15l-67 -275z" />
<glyph unicode="&#x2019;" horiz-adv-x="212" d="M38 489l67 275l81 -24l-97 -265z" />
<glyph unicode="&#x201a;" horiz-adv-x="212" d="M38 -170l67 276l81 -25l-97 -265z" />
<glyph unicode="&#x201c;" horiz-adv-x="343" d="M21 498l96 266l52 -15l-67 -275zM158 498l96 266l52 -15l-67 -275z" />
<glyph unicode="&#x201d;" horiz-adv-x="343" d="M38 489l67 275l81 -24l-97 -265zM175 489l67 275l81 -24l-97 -265z" />
<glyph unicode="&#x201e;" horiz-adv-x="343" d="M38 -170l67 276l81 -25l-97 -265zM175 -170l67 276l81 -25l-97 -265z" />
<glyph unicode="&#x2026;" horiz-adv-x="1000" d="M107 51q0 24 17.5 41.5t42.5 17.5t42.5 -17.5t17.5 -41.5q0 -25 -17.5 -43t-42.5 -18t-42.5 18t-17.5 43zM440 51q0 24 17.5 41.5t42.5 17.5t42.5 -17.5t17.5 -41.5q0 -25 -17.5 -43t-42.5 -18t-42.5 18t-17.5 43zM773 51q0 24 17.5 41.5t42.5 17.5t42.5 -17.5 t17.5 -41.5q0 -25 -17.5 -43t-42.5 -18t-42.5 18t-17.5 43z" />
<glyph unicode="&#x2039;" horiz-adv-x="237" d="M26 260l129 222l45 -27l-115 -195l104 -199l-44 -25z" />
<glyph unicode="&#x203a;" horiz-adv-x="237" d="M38 455l45 27l129 -222l-119 -224l-44 25l104 199z" />
<glyph unicode="&#x20ac;" d="M19 266l19 74h37q-1 10 -1 38q0 26 1 38h-56l19 74h42q21 272 189 272q38 0 66 -8t42 -20v-89q-30 30 -91 30q-104 0 -112 -185h173l-19 -74h-159q-1 -12 -1 -38q0 -27 1 -38h139l-19 -74h-115q8 -189 111 -189q61 0 92 30v-91q-27 -24 -108.5 -24t-128.5 65.5t-58 208.5 h-63z" />
<glyph unicode="&#x2122;" horiz-adv-x="750" d="M0 694v60h280v-60h-109v-361h-61v361h-110zM340 333v421h89l98 -297h2l102 297h88v-421h-55v361h-2l-118 -361h-32l-115 361h-2v-361h-55z" />
<glyph unicode="&#x25fc;" horiz-adv-x="505" d="M0 0v505h505v-505h-505z" />
</font>
</defs>
</svg>
