<?xml version="1.0" standalone="no"?>
<!DOCTYPE svg PUBLIC "-//W3C//DTD SVG 1.1//EN" "http://www.w3.org/Graphics/SVG/1.1/DTD/svg11.dtd" >
<svg xmlns="http://www.w3.org/2000/svg" xmlns:xlink="http://www.w3.org/1999/xlink" version="1.1">
<metadata></metadata>
<defs>
<font id="futura_stdbold_condensed" horiz-adv-x="489" >
<font-face units-per-em="1000" ascent="825" descent="-175" />
<missing-glyph horiz-adv-x="244" />
<glyph horiz-adv-x="0" />
<glyph horiz-adv-x="333" />
<glyph unicode=" "  horiz-adv-x="244" />
<glyph unicode="&#x09;" horiz-adv-x="244" />
<glyph unicode="&#xa0;" horiz-adv-x="244" />
<glyph unicode="!" horiz-adv-x="245" d="M28 83q0 39 28 67t67 28t67 -28t28 -67t-28 -67t-67 -28t-67 28t-28 67zM50 226v528h147v-528h-147z" />
<glyph unicode="&#x22;" horiz-adv-x="359" d="M19 754h139l-15 -291h-109zM202 754h139l-15 -291h-109z" />
<glyph unicode="#" d="M26 238v100h98l11 94h-84v100h95l27 222h83l-26 -222h75l26 222h84l-27 -222h76v-100h-88l-11 -94h75v-100h-86l-29 -238h-83l28 238h-74l-29 -238h-84l28 238h-85zM208 338h73l12 94h-74z" />
<glyph unicode="$" d="M19 547q0 89 50.5 143.5t139.5 69.5v71h73v-71q105 -16 161 -88l-82 -90q-51 58 -115 58q-39 0 -62 -20t-23 -59q0 -18 6 -32t18.5 -24.5t24.5 -17.5t30 -14q24 -10 39 -16t37.5 -16.5t36.5 -19t32 -21.5t29.5 -25t23.5 -28.5t18.5 -34.5t11 -40t4.5 -46 q0 -89 -51.5 -155.5t-138.5 -82.5v-86h-73v86q-119 16 -188 88l70 111q20 -20 33 -30.5t32.5 -23.5t39.5 -19t43 -6q40 0 65.5 28t25.5 70q0 18 -5.5 32.5t-13 24t-22 19.5t-24 15t-27.5 14q-86 39 -120 62q-78 51 -94 126q-5 23 -5 48z" />
<glyph unicode="%" horiz-adv-x="857" d="M38 544q0 33 4 62.5t15 58.5t28.5 49.5t45.5 33.5t64 13q45 0 77 -18.5t48.5 -51.5t24 -69t7.5 -78.5t-7.5 -78t-24 -68t-48.5 -51.5t-77 -19t-77 19t-48.5 51.5t-24 68.5t-7.5 78zM158 544q0 -13 1 -26t4.5 -33t11.5 -32t20 -12t20.5 12t11.5 31.5t4 33t1 26.5t-1 26 t-4 33t-11.5 32t-20.5 12q-37 0 -37 -103zM197 0l357 754h107l-357 -754h-107zM505 209.5q0 42.5 7.5 78.5t24 68.5t48.5 51.5t77 19t77 -19t48.5 -51.5t24 -68.5t7.5 -78.5t-7.5 -78t-24 -68t-48.5 -51.5t-77 -19t-77 19t-48.5 51.5t-24 68t-7.5 78zM625 210q0 -13 1 -26 t4 -32.5t11.5 -32t20.5 -12.5t20.5 12t11.5 31.5t4 33t1 26.5t-1 26.5t-4 33t-11.5 31.5t-20.5 12q-37 0 -37 -103z" />
<glyph unicode="&#x26;" horiz-adv-x="589" d="M26 213q0 117 109 199q-53 92 -53 156q0 74 50.5 119.5t125.5 45.5q71 0 122 -40.5t51 -109.5q0 -59 -33 -108.5t-88 -95.5l100 -155q7 8 24 25t29 30.5t22 26.5l79 -107q-26 -32 -83 -79l79 -120h-158l-29 44q-28 -24 -65 -39t-73 -15q-60 0 -108.5 31t-74.5 82t-26 110 zM171 223q0 -41 23.5 -69.5t59.5 -28.5q28 0 52 21l-99 151q-16 -12 -26 -33t-10 -41zM211 573q0 -8 1.5 -16t6 -16.5t7 -14t9 -16t8.5 -13.5q23 13 37.5 34t14.5 46q0 17 -10.5 29t-27.5 12q-20 0 -33 -12.5t-13 -32.5z" />
<glyph unicode="'" horiz-adv-x="250" d="M56 754h139l-15 -291h-109z" />
<glyph unicode="(" horiz-adv-x="299" d="M42 311q0 117 28.5 236t82.5 219l129 -28q-100 -208 -100 -430q0 -206 100 -415l-129 -29q-111 213 -111 447z" />
<glyph unicode=")" horiz-adv-x="299" d="M18 -108q100 208 100 430q0 206 -100 415l129 29q111 -213 111 -447q0 -117 -28.5 -236t-82.5 -219z" />
<glyph unicode="*" horiz-adv-x="375" d="M23 525l104 59l-104 58l32 56l103 -63v119h64v-119l99 63l32 -56l-105 -58l105 -59l-32 -57l-99 65v-123h-64v123l-103 -65z" />
<glyph unicode="+" d="M21 201v110h169v188h110v-188h170v-110h-170v-194h-110v194h-169z" />
<glyph unicode="," horiz-adv-x="244" d="M-33 -144l100 306h151l-151 -306h-100z" />
<glyph unicode="-" horiz-adv-x="317" d="M34 264v133h250v-133h-250z" />
<glyph unicode="." horiz-adv-x="244" d="M27 83q0 39 28 67t67.5 28t67 -28t27.5 -67t-27.5 -67t-67 -28t-67.5 28t-28 67z" />
<glyph unicode="/" horiz-adv-x="546" d="M31 -166l393 973h114l-393 -973h-114z" />
<glyph unicode="0" d="M33 377q0 32 2.5 64t8.5 71t15.5 74t26.5 68.5t38 57.5t52.5 39t69 15t68.5 -15t52.5 -39t38 -57.5t26 -68.5t16 -74t8.5 -71t2 -64t-2 -64t-8.5 -71t-16 -74t-26 -69t-38 -57.5t-52.5 -38.5t-68.5 -15t-69 15t-52.5 38.5t-38 57.5t-26.5 69t-15.5 74t-8.5 71t-2.5 64z M178 324.5q1 -24.5 2 -51t5.5 -53.5t11.5 -48t19.5 -34.5t29 -13.5t29 13.5t19 34.5t11.5 48t5.5 53.5t1.5 51t0 40.5v4.5v3.5v4v12q1 16 0 40.5t-1.5 51t-5.5 53.5t-11.5 48t-19 34.5t-29 13.5t-29 -13.5t-19.5 -34.5t-11.5 -48t-5.5 -53.5t-2 -51t0 -40.5v-4.5v-4v-3.5 v-12q-1 -16 0 -40.5z" />
<glyph unicode="1" d="M110 624v130h217v-754h-145v624h-72z" />
<glyph unicode="2" d="M41 0l170 312q52 96 70 142q27 67 27 115q0 22 -4.5 41.5t-18.5 35.5t-37 16q-60 0 -60 -122l2 -48h-138l-2 41q0 56 9 96.5t30.5 72.5t60.5 48.5t97 16.5q96 0 149.5 -49t53.5 -144q0 -53 -15.5 -99.5t-46.5 -105.5l-126 -239h175v-130h-396z" />
<glyph unicode="3" d="M35 198h140l-1 -21q0 -22 14.5 -40.5t41.5 -18.5q21 0 35.5 10t20.5 27.5t7.5 33t1.5 36.5q0 62 -24.5 85t-88.5 20v130q64 0 89 19.5t25 79.5q0 77 -51 77q-50 0 -50 -78v-15h-129q-2 47 6 86t27.5 70.5t56 49t86.5 17.5q90 0 140.5 -53t50.5 -144q0 -141 -93 -178v-2 q30 -8 53 -25.5t36.5 -42t20 -52.5t6.5 -59q0 -104 -60 -163t-163 -59q-95 0 -148.5 57.5t-49.5 152.5z" />
<glyph unicode="4" d="M28 182v112l200 460h164v-458h61v-114h-61v-182h-145v182h-219zM133 296h114v286h-2z" />
<glyph unicode="5" d="M49 22l25 131q43 -35 92 -35q56 0 86.5 40t30.5 97q0 68 -41 101t-111 33q-18 0 -57 -6l59 371h288v-130h-184l-20 -122q112 -6 168.5 -71t56.5 -178q0 -124 -63 -194.5t-185 -70.5q-75 0 -145 34z" />
<glyph unicode="6" d="M37 253q0 93 27 177t80 196l62 128h144l-144 -294l2 -2q23 21 44.5 31t49.5 10q33 0 59.5 -15.5t43 -40.5t28.5 -56.5t16.5 -62t4.5 -59.5q0 -42 -6.5 -80.5t-22 -75t-39.5 -63t-60.5 -42.5t-82.5 -16q-43 0 -78.5 15t-58.5 40t-39 59.5t-23 72t-7 78.5zM182 237 q0 -16 3 -34.5t9.5 -39.5t20 -34.5t30.5 -13.5q20 0 34 15t20 38.5t8 42.5t2 38q0 17 -2.5 34.5t-8.5 38t-18.5 33t-30.5 12.5q-16 0 -28.5 -10t-19.5 -24.5t-11.5 -33.5t-6 -34t-1.5 -28z" />
<glyph unicode="7" d="M41 0l235 624h-203v130h407l-284 -754h-155z" />
<glyph unicode="8" d="M29 206q0 157 131 200v2q-49 17 -76 60.5t-27 98.5q0 85 52.5 142t136.5 57q83 0 135.5 -57t52.5 -142q0 -55 -26.5 -98.5t-76.5 -61.5v-1q131 -42 131 -200q0 -94 -61 -156t-155 -62t-155.5 62.5t-61.5 155.5zM182 225q0 -17 3 -33.5t9 -34t19.5 -28.5t31.5 -11 t31.5 11.5t20 29t9.5 34t3 32.5t-3.5 33t-10.5 35t-20.5 29.5t-30.5 11.5q-18 0 -31 -11t-19 -29t-9 -35t-3 -34zM202 570q0 -86 41 -86q13 0 22.5 6.5t14 15t7 22t2.5 21.5v20q0 13 -1.5 24.5t-6 25t-14 22t-24.5 8.5q-13 0 -21.5 -8.5t-12.5 -22t-5.5 -25t-1.5 -23.5z" />
<glyph unicode="9" d="M37 490q0 42 6.5 80.5t22.5 75t39.5 62.5t60 42t82.5 16q44 0 79.5 -15t58.5 -40t38.5 -59.5t22.5 -72t7 -78.5q0 -92 -27 -177t-80 -195l-62 -129h-144l144 295l-2 2q-23 -21 -44.5 -31.5t-49.5 -10.5q-33 0 -59.5 16t-43.5 40.5t-28.5 57t-16 62.5t-4.5 59zM182 505 q0 -17 2.5 -34.5t8.5 -37.5t18.5 -33t30.5 -13q16 0 29 10.5t19.5 25t11 33.5t6 33.5t1.5 28.5q0 16 -3 34.5t-9 38.5t-19.5 33.5t-31.5 12.5q-20 0 -34 -14.5t-19.5 -38t-8 -42t-2.5 -37.5z" />
<glyph unicode=":" horiz-adv-x="244" d="M27 83q0 39 28 67t67.5 28t67 -28t27.5 -67t-27.5 -67t-67 -28t-67.5 28t-28 67zM27 420q0 39 28 67t67.5 28t67 -28t27.5 -67t-27.5 -67t-67 -28t-67.5 28t-28 67z" />
<glyph unicode=";" horiz-adv-x="244" d="M-33 -144l100 306h150l-150 -306h-100zM28 420q0 39 27.5 67t67.5 28t67.5 -28t27.5 -67t-27.5 -67t-67.5 -28t-67.5 28t-27.5 67z" />
<glyph unicode="&#x3c;" d="M20 208v99l450 227v-111l-330 -167l330 -162v-111z" />
<glyph unicode="=" d="M21 103v110h449v-110h-449zM21 298v110h449v-110h-449z" />
<glyph unicode="&#x3e;" d="M21 -17v111l329 162l-329 167v111l449 -227v-99z" />
<glyph unicode="?" horiz-adv-x="453" d="M26 546q-4 99 45.5 159.5t146.5 60.5t153.5 -63t56.5 -162q0 -32 -6.5 -64t-21 -61.5t-38.5 -51.5t-56 -30v-98h-149v186q13 -3 25 -3q24 0 42 10.5t27.5 29t13.5 38t4 41.5q0 15 -2 29.5t-7 31.5t-16.5 27t-27.5 10q-25 0 -37 -22t-12 -50v-18h-141zM138 83q0 39 28 67 t66 28q40 0 68 -28t28 -67t-28.5 -67t-67.5 -28q-38 0 -66 28t-28 67z" />
<glyph unicode="@" horiz-adv-x="832" d="M38 381q0 33 6 67t20 72.5t35 73t53 66.5t71.5 55t94 37t117.5 14q102 0 184 -39t129 -111t47 -162q0 -49 -12 -91.5t-31 -72t-43.5 -53.5t-49.5 -38.5t-50 -24.5t-43.5 -14t-30.5 -4q-20 0 -33.5 17.5t-8.5 44.5l-2 2q-64 -60 -123 -60q-78 0 -123.5 52t-45.5 130 q0 61 25.5 114.5t75 87.5t111.5 34q85 0 127 -60l11 53h98l-53 -306q-5 -23 12 -22q21 1 50 33q47 50 58 120l3 30q3 122 -76.5 194.5t-208.5 72.5q-68 0 -127 -23.5t-100.5 -65t-65 -99t-23.5 -124.5q0 -99 42.5 -172t117.5 -110.5t173 -37.5q103 0 205 92h96 q-57 -78 -136 -121.5t-173 -43.5q-122 0 -213.5 49.5t-140.5 138.5t-49 205zM309 360q-3 -47 17.5 -75.5t53.5 -32.5q57 -8 94 41q31 42 30 98q0 56 -31 81q-21 16 -51 14q-46 -3 -78 -40t-35 -86z" />
<glyph unicode="A" horiz-adv-x="527" d="M8 0l175 754h157l181 -754h-159l-28 127h-151l-27 -127h-148zM207 245h105l-38 201l-17 114h-2q-10 -72 -48 -315z" />
<glyph unicode="B" horiz-adv-x="478" d="M53 0v754h146q54 0 89 -7.5t67 -33.5q37 -29 57 -75.5t20 -94.5q0 -101 -81 -156q44 -21 68.5 -71.5t24.5 -103.5q0 -54 -19 -95.5t-53 -66.5t-78 -37.5t-96 -12.5h-145zM202 125h6q40 0 63 27q25 29 26 77q0 45 -26 74q-23 26 -61 26h-3h-5v-204zM202 445q42 0 65.5 26 t23.5 69q0 42 -23 66q-21 22 -60 23h-6v-184z" />
<glyph unicode="C" horiz-adv-x="451" d="M26 384q0 56 14 111t42.5 103t67 85t91.5 58.5t112 21.5q36 0 76 -14v-137q-32 8 -56 8q-47 0 -84 -20t-59 -54t-33.5 -75t-11.5 -86q0 -35 7 -69.5t22 -67t36 -57.5t52.5 -40.5t69.5 -15.5q21 0 57 11v-141q-32 -13 -69 -13q-62 0 -117 22t-94 59t-67 87t-42 107 t-14 117z" />
<glyph unicode="D" horiz-adv-x="529" d="M53 0v754h113h6h23q145 0 225 -95q83 -98 84 -288q0 -66 -10.5 -121t-34 -102t-60 -79.5t-90.5 -50.5t-123 -18h-133zM202 134h6q30 0 56 13q27 16 44 41t28 58t15 64t4 62q0 32 -4 63t-14.5 65.5t-27 60t-44.5 42.5t-63 17v-486z" />
<glyph unicode="E" horiz-adv-x="391" d="M53 0v754h300v-140h-151v-164h133v-140h-133v-170h153v-140h-302z" />
<glyph unicode="F" horiz-adv-x="393" d="M53 0v754h301v-140h-152v-161h137v-140h-137v-313h-149z" />
<glyph unicode="G" horiz-adv-x="562" d="M26 373q0 39 3.5 76.5t12.5 77t22.5 74t35 65.5t49 53t64.5 34.5t82 12.5q84 0 140.5 -48t81.5 -131l-145 -56l-5 25t-8 25t-13.5 24t-20.5 16t-29 7h-5q-21 0 -38 -11q-19 -13 -31 -36t-19.5 -49t-11 -57.5t-5 -53.5t-1.5 -44q0 -251 115 -251q27 0 45.5 16t27 42t12 49 t3.5 47h-95v140h244v-59q0 -37 -2.5 -71.5t-10 -72.5t-18.5 -70.5t-30 -62.5t-44 -50.5t-60 -33t-77 -12.5q-49 0 -90 16.5t-70 46t-50.5 67t-34 81.5t-18.5 87.5t-6 86.5z" />
<glyph unicode="H" horiz-adv-x="554" d="M53 0v754h149v-295h151v295h149v-754h-149v319h-151v-319h-149z" />
<glyph unicode="I" horiz-adv-x="254" d="M53 0v754h149v-754h-149z" />
<glyph unicode="J" horiz-adv-x="351" d="M12 11v149q14 -19 34.5 -30.5t43.5 -11.5q14 0 24.5 4.5t17 10t11.5 16.5t7 18.5t3.5 23t1.5 22v22.5v3v3v3v510h149v-510v-6v-27t-1.5 -31.5t-4.5 -37t-9 -37t-15 -36.5t-23 -31.5t-31.5 -26.5t-42 -16.5t-53.5 -6.5q-68 0 -112 23z" />
<glyph unicode="K" horiz-adv-x="512" d="M53 0v754h149v-337h2l124 337h152l-139 -348l157 -406h-157l-137 384h-2v-384h-149z" />
<glyph unicode="L" horiz-adv-x="372" d="M53 0v754h149v-614h156v-140h-305z" />
<glyph unicode="M" horiz-adv-x="721" d="M23 0l66 754h196l73 -445h2l60 445h200l79 -754h-153l-36 543h-2l-24 -186l-64 -357h-115l-73 361l-25 168v14h-2l-22 -543h-160z" />
<glyph unicode="N" horiz-adv-x="572" d="M53 0v754h143l186 -455l2 2q-12 48 -12 114v339h149v-754h-141l-184 455l-2 -2l7 -76l1 -31v-346h-149z" />
<glyph unicode="O" horiz-adv-x="581" d="M26 376.5q0 82.5 15 149t40 111t59.5 74t72 42.5t78.5 13t78.5 -13t72 -42.5t59.5 -74t40 -111t15 -149t-15 -148.5t-40 -110.5t-59.5 -74t-72 -42.5t-78.5 -13t-78.5 13t-72 42.5t-59.5 74t-40 110.5t-15 148.5zM185 377q0 -20 1 -40t4 -51.5t10.5 -57t18.5 -50 t30 -38.5t42 -14t42 14t30 38.5t18.5 50t10.5 57t4 51.5t1 40q0 21 -1 42t-4 52t-10.5 57t-18.5 49.5t-30 37t-42 13.5t-42 -13.5t-30 -37t-18.5 -49.5t-10.5 -57t-4 -52t-1 -42z" />
<glyph unicode="P" horiz-adv-x="486" d="M53 0v754h155h7q5 1 11 1q4 0 8 -1q12 -1 26 -1t30.5 -3.5t33.5 -7.5t34 -13t32.5 -20t29 -28.5t23.5 -38t15.5 -49.5t5.5 -62q0 -104 -62 -163t-167 -59l-33 2v-311h-149zM202 432h10q48 0 75 21q28 23 28 80q0 98 -85 98h-28v-199z" />
<glyph unicode="Q" horiz-adv-x="581" d="M26 376.5q0 82.5 15 149t40 111t59.5 74t72 42.5t78.5 13t78.5 -13t72 -42.5t59.5 -74t40 -111t15 -148.5q0 -172 -56 -266l65 -66l-78 -74l-58 63q-61 -46 -138 -46q-41 0 -78.5 13t-72 42.5t-59.5 74t-40 110.5t-15 148.5zM185 377q0 -20 1 -40t4 -51.5t10.5 -57 t18.5 -50t30 -38.5t42 -14q18 0 36 13l-89 93l77 75l68 -75q14 50 14 145q0 21 -1 42t-4 52t-10.5 57t-18.5 49.5t-30 37t-42 13.5t-42 -13.5t-30 -37t-18.5 -49.5t-10.5 -57t-4 -52t-1 -42z" />
<glyph unicode="R" horiz-adv-x="529" d="M53 0v754h150q25 0 45 -1t49 -6t51 -13t45.5 -24.5t39 -38.5t25.5 -56t10 -77q0 -64 -26.5 -114.5t-80.5 -80.5l131 -343h-157l-131 348h-2v-348h-149zM202 430l26 -1q49 0 72 29.5t23 78.5q0 44 -24 70q-22 23 -67 24h-10h-20v-201z" />
<glyph unicode="S" horiz-adv-x="439" d="M34 544q0 61 22 110.5t67.5 80.5t107.5 31q68 0 132 -37v-145q-55 48 -108 48q-35 0 -55 -20t-20 -54q0 -25 12.5 -46.5t32.5 -38.5t44 -34.5t48.5 -37.5t44.5 -43.5t32.5 -58t12.5 -76.5q0 -104 -57.5 -169.5t-159.5 -65.5q-33 0 -68 10t-60 28v142q59 -40 113 -40 q37 0 61.5 22.5t24.5 59.5q0 14 -4 26.5t-8.5 21t-16 18.5t-17.5 14.5t-21.5 15t-20.5 14.5q-35 23 -58.5 44t-43 47.5t-28.5 59.5t-9 73z" />
<glyph unicode="T" horiz-adv-x="413" d="M15 614v140h384v-140h-118v-614h-149v614h-117z" />
<glyph unicode="U" horiz-adv-x="543" d="M49 194v560h149v-488v-13v-25t1.5 -25.5t4 -24t8 -22t13 -18t19.5 -11.5t28 -4q12 0 22 2t17 5t12.5 9.5t9 11t6 14t4 15.5t2.5 17.5t1 17.5v19v520h149v-550q0 -21 -1 -37.5t-6 -40t-13.5 -41.5t-25 -37t-40 -31.5t-59 -20.5t-79.5 -8q-107 0 -164.5 51t-57.5 155z" />
<glyph unicode="V" horiz-adv-x="564" d="M8 754h160l90 -362q6 -19 10.5 -40t9.5 -48.5t7 -40.5h2q2 15 6 41.5t8 48.5t9 41l91 360h156l-209 -754h-122z" />
<glyph unicode="W" horiz-adv-x="792" d="M8 754h152l64 -360q4 -24 6.5 -49.5t5.5 -61t4 -49.5h2q2 15 6 50t7.5 60.5t8.5 49.5l75 360h118l96 -520h2q1 18 3.5 50t5 58.5t6.5 49.5l59 362h156l-156 -754h-129l-77 398q-3 27 -11.5 79t-9.5 59h-2q-2 -15 -6.5 -43.5t-8.5 -51.5t-9 -43l-86 -398h-130z" />
<glyph unicode="X" horiz-adv-x="544" d="M22 0l160 389l-160 365h168l43 -105q30 -85 36 -115h2q10 49 34 115l45 105h161l-161 -365l173 -389h-173l-48 120q-12 33 -33 113h-2q-4 -13 -10 -36t-11.5 -41.5t-11.5 -35.5l-44 -120h-168z" />
<glyph unicode="Y" horiz-adv-x="513" d="M4 754h164l78 -205l11 -37h2q11 37 25 77.5t31.5 89t27.5 75.5h167l-176 -393v-361h-149v361z" />
<glyph unicode="Z" horiz-adv-x="507" d="M18 0l251 614h-219v140h443l-258 -614h237v-140h-454z" />
<glyph unicode="[" horiz-adv-x="319" d="M53 -124v878h251v-98h-121v-682h123v-98h-253z" />
<glyph unicode="\" horiz-adv-x="250" d="M-128 807h114l393 -973h-114z" />
<glyph unicode="]" horiz-adv-x="319" d="M14 -26h123v682h-121v98h251v-878h-253v98z" />
<glyph unicode="^" d="M21 377l164 377h120l165 -377l-100 -47l-125 291l-124 -291z" />
<glyph unicode="_" horiz-adv-x="500" d="M0 -75h500v-50h-500v50z" />
<glyph unicode="`" horiz-adv-x="299" d="M51 708l102 46l96 -144l-69 -40z" />
<glyph unicode="a" horiz-adv-x="432" d="M26 253q0 31 2.5 61t11 68t22.5 66.5t39.5 47.5t59.5 19t58 -19.5t37 -52.5h2v62h141v-505h-141v57h-2q-33 -67 -93 -67q-32 0 -57.5 20t-40 49t-24 66.5t-12.5 68.5t-3 59zM167 255q0 -14 0.5 -27t3.5 -34.5t8.5 -36.5t15.5 -26.5t24 -11.5q16 0 26.5 16.5t15 42.5t6 44 t1.5 33q0 16 -1.5 34t-6 43t-16 41.5t-27.5 16.5t-27.5 -16t-15.5 -41.5t-5.5 -43t-1.5 -34.5z" />
<glyph unicode="b" horiz-adv-x="432" d="M35 0v807h141v-364h2q13 33 37 52.5t57 19.5q24 0 44.5 -10t34.5 -26.5t24.5 -39.5t16 -46t9.5 -50t5 -48t1 -42q0 -28 -3 -58.5t-12 -68.5t-23.5 -67t-39.5 -49t-58 -20q-61 0 -93 67h-2v-57h-141zM166 255q0 -12 0.5 -25t3.5 -34t8 -37t14.5 -28t22.5 -12q17 0 28 15.5 t15.5 41t6 43.5t1.5 36q0 16 -1.5 34t-6 43t-15.5 41.5t-27 16.5q-14 0 -23.5 -12t-14.5 -27.5t-8 -37t-3.5 -33.5t-0.5 -25z" />
<glyph unicode="c" horiz-adv-x="314" d="M26 249q0 40 6.5 76.5t21 72t36.5 61t56 41t76 15.5q34 0 70 -15v-124q-18 16 -41 16q-24 0 -42 -13.5t-26.5 -35t-12 -43t-3.5 -43.5q0 -24 3 -45t11 -42.5t25.5 -34.5t42.5 -13q21 0 43 15v-129q-37 -18 -81 -18q-40 0 -72 16t-52.5 42t-34.5 60.5t-20 69.5t-6 71z" />
<glyph unicode="d" horiz-adv-x="432" d="M26 253q0 31 2.5 61t11 68t22.5 66.5t39.5 47.5t59.5 19t58 -19.5t37 -52.5h2v364h141v-807h-141v57h-2q-33 -67 -93 -67q-32 0 -57.5 20t-40 49t-24 66.5t-12.5 68.5t-3 59zM167 255q0 -14 0.5 -27t3.5 -34.5t8.5 -36.5t15.5 -26.5t24 -11.5q16 0 26.5 16.5t15 42.5 t6 44t1.5 33q0 16 -1.5 34t-6 43t-16 41.5t-27.5 16.5t-27.5 -16t-15.5 -41.5t-5.5 -43t-1.5 -34.5z" />
<glyph unicode="e" horiz-adv-x="413" d="M26 242q0 39 5.5 75.5t19.5 73t35 63.5t54.5 44t76.5 17q75 0 126 -64q46 -58 46 -157q0 -10 -1 -21l-3 -58h-223q1 -53 6 -73q12 -43 47 -44q45 0 45 58h120q-10 -75 -48.5 -120.5t-111.5 -45.5q-42 0 -75 14.5t-55 38.5t-36.5 56.5t-21 68t-6.5 74.5zM163 302h103v12 q0 15 -2 29t-7 29.5t-16 25t-26 9.5t-26 -9t-16.5 -24t-7.5 -29t-2 -28v-15z" />
<glyph unicode="f" horiz-adv-x="298" d="M19 389v116h52v142q0 31 3 54.5t12 46.5t24.5 37t42 23t63.5 9q27 0 61 -12v-136q-14 8 -25 8q-7 0 -13 -2t-10 -5.5t-7 -7t-5 -10t-3 -10.5t-1.5 -12t-0.5 -11.5v-12.5v-11v-90h65v-116h-65v-389h-141v389h-52z" />
<glyph unicode="g" horiz-adv-x="436" d="M26 245q0 21 1 42.5t5 49t9.5 52t16.5 48t24.5 40.5t34 27.5t45.5 10.5q34 0 59 -19.5t38 -51.5h2v61h141v-549q0 -108 -47 -157.5t-142 -49.5q-171 0 -182 184h125q4 -72 51 -72q11 0 20 4.5t15 10.5t10 17.5t6 20t3 23t1 22.5t-0.5 22t-0.5 18v64h-2q-16 -33 -36.5 -53 t-54.5 -20q-66 0 -109 84q-33 67 -33 171zM167 255q0 -14 0.5 -27t3.5 -34.5t8.5 -36.5t16 -26.5t24.5 -11.5q16 0 26.5 16.5t14.5 42.5t5.5 43.5t1.5 33.5q0 12 -0.5 25t-3.5 34t-8 37t-15 27.5t-23 11.5q-17 0 -28 -16t-15.5 -41.5t-6 -43t-1.5 -34.5z" />
<glyph unicode="h" horiz-adv-x="423" d="M35 0v807h141v-380h2q15 38 46 63t71 25q20 0 35.5 -6t25.5 -16t17 -23t10 -29t6 -33q2 -14 1 -27v-6v-16.5v-16.5v-16v-326h-141v277q0 3 0.5 16t0.5 21t-1.5 20.5t-5.5 20t-11 13t-18 5.5q-38 0 -38 -58v-315h-141z" />
<glyph unicode="i" horiz-adv-x="208" d="M15 656q0 38 27 63.5t65 25.5q36 0 61.5 -27.5t25.5 -63.5t-26.5 -62.5t-63.5 -26.5t-63 26.5t-26 64.5zM34 0v505h141v-505h-141z" />
<glyph unicode="j" horiz-adv-x="208" d="M15 656q0 38 27 63.5t65 25.5q36 0 61.5 -27.5t25.5 -63.5t-26.5 -62.5t-63.5 -26.5t-63 26.5t-26 64.5zM34 -249v754h141v-754h-141z" />
<glyph unicode="k" horiz-adv-x="439" d="M35 0v807h141v-479h2l77 177h153l-114 -206l139 -299h-155l-100 234h-2v-234h-141z" />
<glyph unicode="l" horiz-adv-x="209" d="M35 0v807h141v-807h-141z" />
<glyph unicode="m" horiz-adv-x="638" d="M35 0v505h141l1 -81h2q45 91 124 91q37 0 59.5 -24.5t27.5 -61.5h2q19 37 51 61.5t70 24.5q15 0 27 -4t21 -9.5t16 -15.5t11.5 -18.5t7.5 -22.5t4.5 -23.5t2.5 -25.5t1 -24v-23v-349h-141v274v13v18t-0.5 18.5t-3 19.5t-6 15.5t-10 11.5t-15.5 4q-38 0 -38 -57v-317h-141 v283q0 2 0.5 12.5t0 16.5t-1 16.5t-2.5 17t-6 13t-10 10t-14 3.5q-40 0 -40 -58v-314h-141z" />
<glyph unicode="n" horiz-adv-x="423" d="M35 0v505h141v-78h2q15 38 46 63t71 25q20 0 35.5 -6t25.5 -16t17 -23t10 -29t6 -33q2 -14 1 -27v-6v-16.5v-16.5v-16v-326h-141v277q0 3 0.5 16t0.5 21t-1.5 20.5t-5.5 20t-11 13t-18 5.5q-38 0 -38 -58v-315h-141z" />
<glyph unicode="o" horiz-adv-x="435" d="M26 252q0 41 5.5 77t19 71t34.5 60t55 40t78 15t78 -15t55 -40t34.5 -60t19 -71t5.5 -77t-5.5 -77t-19 -70.5t-34.5 -59t-55 -40t-78 -15.5t-78 15.5t-55 40t-34.5 59t-19 70.5t-5.5 77zM167 252q0 -13 0.5 -25.5t3.5 -34.5t8 -37t15 -27t24 -12q17 0 28 16t15.5 42 t6 43.5t1.5 34.5t-1.5 34.5t-6 43.5t-15.5 42t-28 16q-14 0 -24 -12t-15 -27.5t-8 -37t-3.5 -34t-0.5 -25.5z" />
<glyph unicode="p" horiz-adv-x="432" d="M35 -249v754h141v-62h2q13 33 37 52.5t57 19.5q24 0 44.5 -10t34.5 -26.5t24.5 -39.5t16 -46t9.5 -50t5 -48t1 -42q0 -28 -3 -58.5t-12 -68.5t-23.5 -67t-39.5 -49t-58 -20q-61 0 -93 67h-2v-306h-141zM166 255q0 -12 0.5 -25t3.5 -34t8 -37t14.5 -28t22.5 -12 q51 0 51 136q0 16 -1.5 34t-6 43t-15.5 41.5t-27 16.5q-14 0 -23.5 -12t-14.5 -27.5t-8 -37t-3.5 -33.5t-0.5 -25z" />
<glyph unicode="q" horiz-adv-x="432" d="M26 253q0 31 2.5 61t11 68t22.5 66.5t39.5 47.5t59.5 19t58 -19.5t37 -52.5h2v62h141v-754h-141v306h-2q-33 -67 -93 -67q-32 0 -57.5 20t-40 49t-24 66.5t-12.5 68.5t-3 59zM167 255q0 -14 0.5 -27t3.5 -34.5t8.5 -36.5t15.5 -26.5t24 -11.5q16 0 26.5 16.5t15 42.5 t6 44t1.5 33q0 16 -1.5 34t-6 43t-16 41.5t-27.5 16.5t-27.5 -16t-15.5 -41.5t-5.5 -43t-1.5 -34.5z" />
<glyph unicode="r" horiz-adv-x="314" d="M35 0v505h141v-61h2q43 74 115 80v-137q-14 2 -22 2q-16 0 -28.5 -2.5t-22 -6t-16.5 -10.5t-11.5 -13t-8 -17t-5 -19t-2.5 -21.5t-1 -22.5v-25v-252h-141z" />
<glyph unicode="s" horiz-adv-x="375" d="M30 48l62 100q38 -33 70 -33q17 0 29 11.5t12 30.5q0 13 -8.5 24t-22.5 19t-31 17t-34.5 21.5t-32 28.5t-23.5 41.5t-9 58.5q0 69 49.5 108.5t119.5 39.5q76 0 135 -43l-57 -103q-18 16 -33 24.5t-35 8.5q-18 0 -28 -10t-10 -27q0 -12 9.5 -21.5t23.5 -17.5t31.5 -16 t34 -20.5t31 -27.5t23 -39.5t8.5 -55.5q0 -78 -43 -127.5t-119 -49.5q-40 0 -80 15.5t-72 42.5z" />
<glyph unicode="t" horiz-adv-x="307" d="M30 389v116h49v140h141v-140h58v-116h-58v-389h-141v389h-49z" />
<glyph unicode="u" horiz-adv-x="422" d="M35 202v303h141v-277q0 -3 -0.5 -17t-0.5 -23t1.5 -23t5 -22t11.5 -14.5t19 -6.5q10 0 17 5t10.5 11.5t5.5 18t2 17.5v18v5l1 308h140v-322q0 -91 -44.5 -142t-135.5 -51q-33 0 -59.5 7t-44.5 18.5t-31 29t-20.5 35t-11 40.5t-5 41t-1.5 41z" />
<glyph unicode="v" horiz-adv-x="451" d="M15 505h140l67 -277l1 -8h2q12 57 37.5 163t28.5 122h146l-146 -505h-131z" />
<glyph unicode="w" horiz-adv-x="693" d="M15 505h137l68 -296h2l66 296h121l64 -296h2l10 54l60 242h134l-140 -505h-116l-46 171l-30 146h-2l-29 -161l-40 -156h-118z" />
<glyph unicode="x" horiz-adv-x="488" d="M23 0l145 272l-126 233h146l40 -77l15 -31l57 108h146l-129 -233l149 -272h-149l-74 139l-75 -139h-145z" />
<glyph unicode="y" horiz-adv-x="451" d="M15 505h142l53 -204l17 -84h2l66 288h142l-217 -754h-139l81 259z" />
<glyph unicode="z" horiz-adv-x="400" d="M23 0l160 388h-144v117h339l-156 -388h139v-117h-338z" />
<glyph unicode="{" horiz-adv-x="299" d="M18 275v76q40 0 57.5 30t17.5 76v162q0 70 28 102.5t95 32.5h87v-76q-46 0 -63 -25.5t-17 -74.5v-132q0 -59 -17 -89.5t-65 -41.5v-2q25 -4 42.5 -17.5t25.5 -34t11 -41.5t3 -49v-119q0 -46 17 -73t63 -27v-76h-65q-44 0 -73 9t-45 30t-21.5 47.5t-5.5 68.5v138 q0 50 -17 78t-58 28z" />
<glyph unicode="|" horiz-adv-x="250" d="M70 -214v1000h110v-1000h-110z" />
<glyph unicode="}" horiz-adv-x="299" d="M-3 -48q46 0 63 26.5t17 73.5v119q0 28 3 49t11.5 41.5t25.5 34t42 17.5v2q-48 11 -65 41.5t-17 89.5v132q0 49 -17 74.5t-63 25.5v76h87q66 0 94.5 -32.5t28.5 -102.5v-162q0 -46 17.5 -76t57.5 -30v-76q-75 0 -75 -106v-138q0 -42 -6 -68.5t-21.5 -47.5t-44.5 -30 t-73 -9h-65v76z" />
<glyph unicode="~" d="M21 227q12 25 24 44t28 39t37 30.5t44 10.5q22 0 50.5 -10t51.5 -22.5t47 -23t38 -10.5q11 0 20 4.5t16.5 13.5t13 16.5t13 21t10.5 18.5l56 -73q-31 -56 -48 -75q-36 -42 -81 -42q-26 0 -65.5 16.5t-74 33t-46.5 16.5q-10 0 -19 -4t-15 -9t-13 -15.5t-10.5 -16.5 t-10.5 -19.5t-9 -17.5z" />
<glyph unicode="&#xa2;" d="M75 359q0 34 3.5 65.5t13 65.5t24.5 61.5t40 50t58 33.5v69h65v-63q32 -3 59 -14v-127q-22 15 -37 15q-23 0 -39.5 -15.5t-24.5 -39t-12 -46t-4 -44.5q0 -21 3.5 -40t11 -39.5t23 -33t37.5 -12.5q19 0 42 13v-127q-24 -11 -59 -18v-62h-65v65q-38 12 -66 37.5t-43.5 59.5 t-22.5 70t-7 76z" />
<glyph unicode="&#xa3;" d="M11 280v77h86q-2 24 -13 85t-11 96q0 100 57 161t156 61q197 0 194 -225h-128l1 16q0 22 -4.5 39.5t-18 32t-35.5 14.5q-27 0 -45 -15.5t-24.5 -35.5t-6.5 -44q0 -32 10.5 -94t11.5 -91h127v-77h-130q-6 -88 -47 -158l21 1q26 0 76.5 -10t77.5 -10q61 0 109 25v-118 q-36 -21 -87 -21q-41 0 -118.5 14.5t-117.5 14.5q-53 0 -108 -18v113q63 64 60 167h-93z" />
<glyph unicode="&#xa5;" d="M-8 754h164q6 -21 39 -123.5t50 -158.5h2l84 282h167l-127 -286h75v-66h-105l-18 -41v-43h123v-66h-123v-252h-151v252h-124v66h124v43l-19 41h-105v66h75z" />
<glyph unicode="&#xa8;" horiz-adv-x="299" d="M-28 659q0 32 22 54t54 22q31 0 52 -22.5t21 -53.5q0 -30 -22 -51.5t-53 -21.5q-30 0 -52 21.5t-22 51.5zM180 659q0 32 22 54t54 22q31 0 52 -22.5t21 -53.5q0 -30 -22 -51.5t-53 -21.5q-30 0 -52 21.5t-22 51.5z" />
<glyph unicode="&#xa9;" horiz-adv-x="829" d="M22 379q0 79 31 151t84 123.5t126 82t153 30.5t152.5 -30.5t125 -82t83.5 -123.5t31 -151q0 -106 -52.5 -196.5t-143 -142.5t-196.5 -52q-107 0 -198 52t-143.5 142.5t-52.5 196.5zM100 379q0 -86 42 -159t114.5 -115.5t159.5 -43.5q85 0 157.5 43t114.5 116t42 159 q0 85 -42 157t-114.5 114.5t-157.5 42.5q-65 0 -124 -25t-101 -67t-66.5 -100t-24.5 -122zM215 382q0 98 58.5 161t156.5 63q72 0 123 -39.5t63 -108.5h-89q-6 36 -33 56t-65 20q-60 0 -93 -44t-33 -106q0 -60 35.5 -107.5t93.5 -47.5q37 0 65 22.5t30 57.5h89 q-8 -69 -60.5 -110.5t-123.5 -41.5q-97 0 -157 64.5t-60 160.5z" />
<glyph unicode="&#xab;" horiz-adv-x="432" d="M26 330l131 234l76 -39l-102 -195l102 -189l-76 -43zM199 330l130 234l77 -39l-103 -195l103 -189l-77 -43z" />
<glyph unicode="&#xae;" horiz-adv-x="829" d="M22 379q0 79 31 151t84 123.5t126 82t153 30.5t152.5 -30.5t125 -82t83.5 -123.5t31 -151q0 -106 -52.5 -196.5t-143 -142.5t-196.5 -52q-107 0 -198 52t-143.5 142.5t-52.5 196.5zM100 379q0 -86 42 -159t114.5 -115.5t159.5 -43.5q85 0 157.5 43t114.5 116t42 159 q0 85 -42 157t-114.5 114.5t-157.5 42.5q-65 0 -124 -25t-101 -67t-66.5 -100t-24.5 -122zM254 167v425h205q82 0 115 -21q50 -33 50 -110q0 -56 -29 -83t-87 -31l103 -180h-97l-94 180h-83v-180h-83zM337 410h124q39 -1 59.5 12.5t20.5 51.5q0 13 -4 23t-13.5 16t-17.5 9 t-22 4.5t-21.5 2t-22.5 0.5h-103v-119z" />
<glyph unicode="&#xb4;" horiz-adv-x="299" d="M51 610l96 144l102 -46l-129 -138z" />
<glyph unicode="&#xb8;" horiz-adv-x="299" d="M66 -186l78 138l90 -36l-105 -134z" />
<glyph unicode="&#xbb;" horiz-adv-x="432" d="M27 141l102 189l-102 195l76 39l131 -234l-131 -232zM200 141l102 189l-102 195l76 39l131 -234l-131 -232z" />
<glyph unicode="&#xc0;" horiz-adv-x="527" d="M8 0l175 754h157l181 -754h-159l-28 127h-151l-27 -127h-148zM150 932l102 46l96 -144l-69 -40zM207 245h105l-38 201l-17 114h-2q-10 -72 -48 -315z" />
<glyph unicode="&#xc1;" horiz-adv-x="527" d="M8 0l175 754h157l181 -754h-159l-28 127h-151l-27 -127h-148zM180 834l96 144l102 -46l-129 -138zM207 245h105l-38 201l-17 114h-2q-10 -72 -48 -315z" />
<glyph unicode="&#xc2;" horiz-adv-x="527" d="M8 0l175 754h157l181 -754h-159l-28 127h-151l-27 -127h-148zM120 859l143 113l146 -121l-61 -62l-85 70l-88 -70zM207 245h105l-38 201l-17 114h-2q-10 -72 -48 -315z" />
<glyph unicode="&#xc3;" horiz-adv-x="527" d="M8 0l175 754h157l181 -754h-159l-28 127h-151l-27 -127h-148zM102 829q2 21 4.5 37t9.5 35.5t16.5 31.5t25.5 20.5t38 8.5t44.5 -9.5t41.5 -19t34 -9.5q33 0 36 40l75 -5q-3 -19 -6 -31t-8 -29.5t-11.5 -29t-16.5 -22t-25 -16t-33 -5.5q-29 0 -78 22q-2 1 -10 4.5 t-11 4.5t-9 2.5t-12 1.5q-27 0 -32 -32h-73zM207 245h105l-38 201l-17 114h-2q-10 -72 -48 -315z" />
<glyph unicode="&#xc7;" horiz-adv-x="451" d="M26 384q0 56 14 111t42.5 103t67 85t91.5 58.5t112 21.5q36 0 76 -14v-137q-32 8 -56 8q-47 0 -84 -20t-59 -54t-33.5 -75t-11.5 -86q0 -35 7 -69.5t22 -67t36 -57.5t52.5 -40.5t69.5 -15.5q21 0 57 11v-141q-32 -13 -69 -13q-62 0 -117 22t-94 59t-67 87t-42 107 t-14 117zM172 -186l78 138l90 -36l-105 -134z" />
<glyph unicode="&#xc9;" horiz-adv-x="391" d="M53 0v754h300v-140h-151v-164h133v-140h-133v-170h153v-140h-302zM132 834l96 144l102 -46l-129 -138z" />
<glyph unicode="&#xca;" horiz-adv-x="391" d="M52 859l143 113l146 -121l-61 -62l-85 70l-88 -70zM53 0v754h300v-140h-151v-164h133v-140h-133v-170h153v-140h-302z" />
<glyph unicode="&#xcd;" horiz-adv-x="254" d="M48 834l96 144l102 -46l-129 -138zM53 0v754h149v-754h-149z" />
<glyph unicode="&#xd3;" horiz-adv-x="581" d="M26 376.5q0 82.5 15 149t40 111t59.5 74t72 42.5t78.5 13t78.5 -13t72 -42.5t59.5 -74t40 -111t15 -149t-15 -148.5t-40 -110.5t-59.5 -74t-72 -42.5t-78.5 -13t-78.5 13t-72 42.5t-59.5 74t-40 110.5t-15 148.5zM185 377q0 -20 1 -40t4 -51.5t10.5 -57t18.5 -50 t30 -38.5t42 -14t42 14t30 38.5t18.5 50t10.5 57t4 51.5t1 40q0 21 -1 42t-4 52t-10.5 57t-18.5 49.5t-30 37t-42 13.5t-42 -13.5t-30 -37t-18.5 -49.5t-10.5 -57t-4 -52t-1 -42zM227 834l96 144l102 -46l-129 -138z" />
<glyph unicode="&#xd4;" horiz-adv-x="581" d="M26 376.5q0 82.5 15 149t40 111t59.5 74t72 42.5t78.5 13t78.5 -13t72 -42.5t59.5 -74t40 -111t15 -149t-15 -148.5t-40 -110.5t-59.5 -74t-72 -42.5t-78.5 -13t-78.5 13t-72 42.5t-59.5 74t-40 110.5t-15 148.5zM147 859l143 113l146 -121l-61 -62l-85 70l-88 -70z M185 377q0 -20 1 -40t4 -51.5t10.5 -57t18.5 -50t30 -38.5t42 -14t42 14t30 38.5t18.5 50t10.5 57t4 51.5t1 40q0 21 -1 42t-4 52t-10.5 57t-18.5 49.5t-30 37t-42 13.5t-42 -13.5t-30 -37t-18.5 -49.5t-10.5 -57t-4 -52t-1 -42z" />
<glyph unicode="&#xd5;" horiz-adv-x="581" d="M26 376.5q0 82.5 15 149t40 111t59.5 74t72 42.5t78.5 13t78.5 -13t72 -42.5t59.5 -74t40 -111t15 -149t-15 -148.5t-40 -110.5t-59.5 -74t-72 -42.5t-78.5 -13t-78.5 13t-72 42.5t-59.5 74t-40 110.5t-15 148.5zM129 829q2 21 4.5 37t9 35.5t16 31.5t26.5 20.5t38 8.5 q22 0 44.5 -9.5t41.5 -19t34 -9.5q33 0 36 40l75 -5q-4 -22 -7 -37t-10.5 -35t-17.5 -32t-27 -20.5t-38 -8.5q-29 0 -78 22q-2 1 -10 4.5t-11 4.5t-9 2.5t-12 1.5q-26 0 -32 -32h-73zM185 377q0 -20 1 -40t4 -51.5t10.5 -57t18.5 -50t30 -38.5t42 -14t42 14t30 38.5t18.5 50 t10.5 57t4 51.5t1 40q0 21 -1 42t-4 52t-10.5 57t-18.5 49.5t-30 37t-42 13.5t-42 -13.5t-30 -37t-18.5 -49.5t-10.5 -57t-4 -52t-1 -42z" />
<glyph unicode="&#xda;" horiz-adv-x="543" d="M49 194v560h149v-488v-13v-25t1.5 -25.5t4 -24t8 -22t13 -18t19.5 -11.5t28 -4q12 0 22 2t17 5t12.5 9.5t9 11t6 14t4 15.5t2.5 17.5t1 17.5v19v520h149v-550q0 -21 -1 -37.5t-6 -40t-13.5 -41.5t-25 -37t-40 -31.5t-59 -20.5t-79.5 -8q-107 0 -164.5 51t-57.5 155z M208 834l96 144l102 -46l-129 -138z" />
<glyph unicode="&#xdc;" horiz-adv-x="543" d="M49 194v560h149v-488v-13v-25t1.5 -25.5t4 -24t8 -22t13 -18t19.5 -11.5t28 -4q12 0 22 2t17 5t12.5 9.5t9 11t6 14t4 15.5t2.5 17.5t1 17.5v19v520h149v-550q0 -21 -1 -37.5t-6 -40t-13.5 -41.5t-25 -37t-40 -31.5t-59 -20.5t-79.5 -8q-107 0 -164.5 51t-57.5 155z M94 883q0 32 22 54t54 22q30 0 51.5 -22.5t21.5 -53.5q0 -30 -22 -51.5t-53 -21.5q-30 0 -52 21.5t-22 51.5zM302 883q0 32 22 54t54 22q30 0 51.5 -22.5t21.5 -53.5q0 -30 -22 -51.5t-53 -21.5q-30 0 -52 21.5t-22 51.5z" />
<glyph unicode="&#xe0;" horiz-adv-x="432" d="M26 253q0 31 2.5 61t11 68t22.5 66.5t39.5 47.5t59.5 19t58 -19.5t37 -52.5h2v62h141v-505h-141v57h-2q-33 -67 -93 -67q-32 0 -57.5 20t-40 49t-24 66.5t-12.5 68.5t-3 59zM93 708l102 46l96 -144l-69 -40zM167 255q0 -14 0.5 -27t3.5 -34.5t8.5 -36.5t15.5 -26.5 t24 -11.5q16 0 26.5 16.5t15 42.5t6 44t1.5 33q0 16 -1.5 34t-6 43t-16 41.5t-27.5 16.5t-27.5 -16t-15.5 -41.5t-5.5 -43t-1.5 -34.5z" />
<glyph unicode="&#xe1;" horiz-adv-x="432" d="M26 253q0 31 2.5 61t11 68t22.5 66.5t39.5 47.5t59.5 19t58 -19.5t37 -52.5h2v62h141v-505h-141v57h-2q-33 -67 -93 -67q-32 0 -57.5 20t-40 49t-24 66.5t-12.5 68.5t-3 59zM158 610l96 144l102 -46l-129 -138zM167 255q0 -14 0.5 -27t3.5 -34.5t8.5 -36.5t15.5 -26.5 t24 -11.5q16 0 26.5 16.5t15 42.5t6 44t1.5 33q0 16 -1.5 34t-6 43t-16 41.5t-27.5 16.5t-27.5 -16t-15.5 -41.5t-5.5 -43t-1.5 -34.5z" />
<glyph unicode="&#xe2;" horiz-adv-x="432" d="M26 253q0 31 2.5 61t11 68t22.5 66.5t39.5 47.5t59.5 19t58 -19.5t37 -52.5h2v62h141v-505h-141v57h-2q-33 -67 -93 -67q-32 0 -57.5 20t-40 49t-24 66.5t-12.5 68.5t-3 59zM83 635l143 113l146 -121l-61 -62l-85 70l-88 -70zM167 255q0 -14 0.5 -27t3.5 -34.5t8.5 -36.5 t15.5 -26.5t24 -11.5q16 0 26.5 16.5t15 42.5t6 44t1.5 33q0 16 -1.5 34t-6 43t-16 41.5t-27.5 16.5t-27.5 -16t-15.5 -41.5t-5.5 -43t-1.5 -34.5z" />
<glyph unicode="&#xe3;" horiz-adv-x="432" d="M26 253q0 31 2.5 61t11 68t22.5 66.5t39.5 47.5t59.5 19t58 -19.5t37 -52.5h2v62h141v-505h-141v57h-2q-33 -67 -93 -67q-32 0 -57.5 20t-40 49t-24 66.5t-12.5 68.5t-3 59zM63 605q2 21 4.5 37t9 35.5t16.5 31.5t26.5 20.5t37.5 8.5q22 0 44.5 -9.5t41.5 -19t34 -9.5 q33 0 36 40l75 -5q-4 -22 -7 -37t-10.5 -35t-17.5 -32t-26.5 -20.5t-38.5 -8.5q-29 0 -78 22q-3 1 -10 4l-10.5 4.5t-9.5 3t-12 1.5q-26 0 -32 -32h-73zM167 255q0 -14 0.5 -27t3.5 -34.5t8.5 -36.5t15.5 -26.5t24 -11.5q16 0 26.5 16.5t15 42.5t6 44t1.5 33q0 16 -1.5 34 t-6 43t-16 41.5t-27.5 16.5t-27.5 -16t-15.5 -41.5t-5.5 -43t-1.5 -34.5z" />
<glyph unicode="&#xe7;" horiz-adv-x="314" d="M26 249q0 40 6.5 76.5t21 72t36.5 61t56 41t76 15.5q34 0 70 -15v-124q-18 16 -41 16q-24 0 -42 -13.5t-26.5 -35t-12 -43t-3.5 -43.5q0 -24 3 -45t11 -42.5t25.5 -34.5t42.5 -13q21 0 43 15v-129q-37 -18 -81 -18q-40 0 -72 16t-52.5 42t-34.5 60.5t-20 69.5t-6 71z M84 -186l78 138l90 -36l-105 -134z" />
<glyph unicode="&#xe9;" horiz-adv-x="413" d="M26 242q0 39 5.5 75.5t19.5 73t35 63.5t54.5 44t76.5 17q75 0 126 -64.5t45 -177.5l-3 -58h-223q1 -53 6 -73q12 -43 47 -44q45 0 45 58h120q-10 -75 -48.5 -120.5t-111.5 -45.5q-42 0 -75 14.5t-55 38.5t-36.5 56.5t-21 68t-6.5 74.5zM148 610l96 144l102 -46l-129 -138 zM163 302h103v12q0 15 -2 29t-7 29.5t-16 25t-26 9.5t-26 -9t-16.5 -24t-7.5 -29t-2 -28v-15z" />
<glyph unicode="&#xea;" horiz-adv-x="413" d="M26 242q0 39 5.5 75.5t19.5 73t35 63.5t54.5 44t76.5 17q75 0 126 -64.5t45 -177.5l-3 -58h-223q1 -53 6 -73q12 -43 47 -44q45 0 45 58h120q-10 -75 -48.5 -120.5t-111.5 -45.5q-42 0 -75 14.5t-55 38.5t-36.5 56.5t-21 68t-6.5 74.5zM71 635l143 113l146 -121l-61 -62 l-85 70l-88 -70zM163 302h103v12q0 15 -2 29t-7 29.5t-16 25t-26 9.5t-26 -9t-16.5 -24t-7.5 -29t-2 -28v-15z" />
<glyph unicode="&#xed;" horiz-adv-x="208" d="M20 610l96 144l102 -46l-129 -138zM34 0v505h141v-505h-141z" />
<glyph unicode="&#xf3;" horiz-adv-x="435" d="M26 252q0 41 5.5 77t19 71t34.5 60t55 40t78 15t78 -15t55 -40t34.5 -60t19 -71t5.5 -77t-5.5 -77t-19 -70.5t-34.5 -59t-55 -40t-78 -15.5t-78 15.5t-55 40t-34.5 59t-19 70.5t-5.5 77zM159 610l96 144l102 -46l-129 -138zM167 252q0 -13 0.5 -25.5t3.5 -34.5t8 -37 t15 -27t24 -12q17 0 28 16t15.5 42t6 43.5t1.5 34.5t-1.5 34.5t-6 43.5t-15.5 42t-28 16q-14 0 -24 -12t-15 -27.5t-8 -37t-3.5 -34t-0.5 -25.5z" />
<glyph unicode="&#xf4;" horiz-adv-x="435" d="M26 252q0 41 5.5 77t19 71t34.5 60t55 40t78 15t78 -15t55 -40t34.5 -60t19 -71t5.5 -77t-5.5 -77t-19 -70.5t-34.5 -59t-55 -40t-78 -15.5t-78 15.5t-55 40t-34.5 59t-19 70.5t-5.5 77zM74 635l143 113l146 -121l-61 -62l-85 70l-88 -70zM167 252q0 -13 0.5 -25.5 t3.5 -34.5t8 -37t15 -27t24 -12q17 0 28 16t15.5 42t6 43.5t1.5 34.5t-1.5 34.5t-6 43.5t-15.5 42t-28 16q-14 0 -24 -12t-15 -27.5t-8 -37t-3.5 -34t-0.5 -25.5z" />
<glyph unicode="&#xf5;" horiz-adv-x="435" d="M26 252q0 41 5.5 77t19 71t34.5 60t55 40t78 15t78 -15t55 -40t34.5 -60t19 -71t5.5 -77t-5.5 -77t-19 -70.5t-34.5 -59t-55 -40t-78 -15.5t-78 15.5t-55 40t-34.5 59t-19 70.5t-5.5 77zM56 605q2 21 4.5 37t9.5 35.5t16.5 31.5t25.5 20.5t38 8.5t44.5 -9.5t41.5 -19 t34 -9.5q33 0 36 40l75 -5q-4 -22 -7 -37t-11 -35t-17.5 -32t-26.5 -20.5t-38 -8.5q-29 0 -78 22q-3 1 -10 4l-10.5 4.5t-9.5 3t-12 1.5q-27 0 -32 -32h-73zM167 252q0 -13 0.5 -25.5t3.5 -34.5t8 -37t15 -27t24 -12q17 0 28 16t15.5 42t6 43.5t1.5 34.5t-1.5 34.5t-6 43.5 t-15.5 42t-28 16q-14 0 -24 -12t-15 -27.5t-8 -37t-3.5 -34t-0.5 -25.5z" />
<glyph unicode="&#xfa;" horiz-adv-x="422" d="M35 202v303h141v-277q0 -3 -0.5 -17t-0.5 -23t1.5 -23t5 -22t11.5 -14.5t19 -6.5q10 0 17 5t10.5 11.5t5.5 18t2 17.5v18v5l1 308h140v-322q0 -91 -44.5 -142t-135.5 -51q-33 0 -59.5 7t-44.5 18.5t-31 29t-20.5 35t-11 40.5t-5 41t-1.5 41zM153 610l96 144l102 -46 l-129 -138z" />
<glyph unicode="&#xfc;" horiz-adv-x="422" d="M34 659q0 32 22 54t54 22q31 0 52 -22.5t21 -53.5q0 -30 -22 -51.5t-53 -21.5q-30 0 -52 21.5t-22 51.5zM35 202v303h141v-277q0 -3 -0.5 -17t-0.5 -23t1.5 -23t5 -22t11.5 -14.5t19 -6.5q10 0 17 5t10.5 11.5t5.5 18t2 17.5v18v5l1 308h140v-322q0 -91 -44.5 -142 t-135.5 -51q-33 0 -59.5 7t-44.5 18.5t-31 29t-20.5 35t-11 40.5t-5 41t-1.5 41zM242 659q0 32 22 54t54 22q31 0 52 -22.5t21 -53.5q0 -30 -22 -51.5t-53 -21.5q-30 0 -52 21.5t-22 51.5z" />
<glyph unicode="&#x2c6;" horiz-adv-x="299" d="M6 635l143 113l146 -121l-61 -62l-85 70l-88 -70z" />
<glyph unicode="&#x2dc;" horiz-adv-x="299" d="M-12 605q2 21 4.5 37t9 35.5t16 31.5t26.5 20.5t38 8.5q22 0 44.5 -9.5t41.5 -19t34 -9.5q32 0 36 40l75 -5q-4 -22 -7 -37t-10.5 -35t-17.5 -32t-27 -20.5t-38 -8.5q-29 0 -78 22q-3 1 -10 4t-11 4.5t-9.5 3t-11.5 1.5q-26 0 -32 -32h-73z" />
<glyph unicode="&#x2013;" horiz-adv-x="500" d="M0 264v133h500v-133h-500z" />
<glyph unicode="&#x2014;" horiz-adv-x="1000" d="M130 264v133h740v-133h-740z" />
<glyph unicode="&#x2018;" horiz-adv-x="301" d="M26 448l150 306h100l-100 -306h-150z" />
<glyph unicode="&#x2019;" horiz-adv-x="301" d="M26 448l100 306h150l-150 -306h-100z" />
<glyph unicode="&#x201a;" horiz-adv-x="302" d="M26 -144l100 306h151l-151 -306h-100z" />
<glyph unicode="&#x201c;" horiz-adv-x="490" d="M26 448l150 306h100l-100 -306h-150zM215 448l150 306h100l-100 -306h-150z" />
<glyph unicode="&#x201d;" horiz-adv-x="490" d="M26 448l100 306h150l-150 -306h-100zM215 448l100 306h150l-150 -306h-100z" />
<glyph unicode="&#x201e;" horiz-adv-x="490" d="M26 -144l100 306h150l-150 -306h-100zM215 -144l100 306h150l-150 -306h-100z" />
<glyph unicode="&#x2026;" horiz-adv-x="1000" d="M72 83q0 39 27.5 67t67.5 28t67.5 -28t27.5 -67t-27.5 -67t-67.5 -28t-67.5 28t-27.5 67zM405 83q0 39 27.5 67t67.5 28t67.5 -28t27.5 -67t-27.5 -67t-67.5 -28t-67.5 28t-27.5 67zM738 83q0 39 27.5 67t67.5 28t67.5 -28t27.5 -67t-27.5 -67t-67.5 -28t-67.5 28 t-27.5 67z" />
<glyph unicode="&#x2039;" horiz-adv-x="259" d="M26 332l130 232l77 -43l-103 -189l103 -195l-77 -39z" />
<glyph unicode="&#x203a;" horiz-adv-x="259" d="M27 137l103 195l-103 189l77 43l130 -232l-130 -234z" />
<glyph unicode="&#x20ac;" d="M17 246l29 100h36q-1 9 -1 33q0 21 1 30h-65l29 100h44q33 256 231 256q44 0 79.5 -9t50.5 -21v-128q-34 34 -104 34q-51 0 -79.5 -31.5t-35.5 -100.5h192l-30 -100h-172v-63h153l-30 -100h-113q7 -70 35.5 -102t79.5 -32q70 0 104 32v-129q-14 -11 -47.5 -18.5 t-82.5 -7.5q-97 0 -155 62t-74 195h-75z" />
<glyph unicode="&#x2122;" horiz-adv-x="799" d="M1 676v78h309v-78h-115v-326h-80v326h-114zM353 350v404h129l81 -239h2l80 239h129v-404h-80v326h-2l-105 -326h-47l-105 326h-2v-326h-80z" />
<glyph unicode="&#x25fc;" horiz-adv-x="505" d="M0 0v505h505v-505h-505z" />
</font>
</defs>
</svg>
