<?xml version="1.0" standalone="no"?>
<!DOCTYPE svg PUBLIC "-//W3C//DTD SVG 1.1//EN" "http://www.w3.org/Graphics/SVG/1.1/DTD/svg11.dtd" >
<svg xmlns="http://www.w3.org/2000/svg" xmlns:xlink="http://www.w3.org/1999/xlink" version="1.1">
<metadata></metadata>
<defs>
<font id="univers_lt_49_lightultracnRg" horiz-adv-x="278" >
<font-face units-per-em="1000" ascent="800" descent="-200" />
<missing-glyph horiz-adv-x="138" />
<glyph horiz-adv-x="0" />
<glyph unicode="&#xd;" horiz-adv-x="138" />
<glyph unicode=" "  horiz-adv-x="138" />
<glyph unicode="&#x09;" horiz-adv-x="138" />
<glyph unicode="&#xa0;" horiz-adv-x="138" />
<glyph unicode="!" horiz-adv-x="258" d="M92 722h74l-8 -547h-58zM96 0v76h66v-76h-66z" />
<glyph unicode="&#x22;" d="M58 558v164h50v-164h-50zM170 558v164h50v-164h-50z" />
<glyph unicode="#" horiz-adv-x="276" d="M-2 237v44h54l23 166h-49v44h55l31 231h50l-31 -231h50l31 231h50l-31 -231h47v-44h-53l-23 -166h48v-44h-54l-32 -237h-50l32 237h-50l-32 -237h-50l32 237h-48zM102 281h50l23 166h-50z" />
<glyph unicode="$" horiz-adv-x="276" d="M31 111v89h66v-81q0 -50 41 -50t41 57v83q0 34 -17 63l-106 183q-21 36 -21 75v77q0 80 75 96v75h54v-75q79 -8 79 -91v-76h-66v71q0 46 -36 46q-40 0 -40 -40v-79q0 -25 15 -51l105 -180q24 -41 24 -94v-83q0 -93 -81 -107v-76h-54v76q-79 9 -79 92z" />
<glyph unicode="%" horiz-adv-x="480" d="M31 456v194q0 78 81 78t81 -78v-194q0 -78 -81 -78t-81 78zM85 449q0 -31 27 -31t27 31v208q0 31 -27 31t-27 -31v-208zM90 -6l250 734h50l-250 -734h-50zM287 72v194q0 78 81 78t81 -78v-194q0 -78 -81 -78t-81 78zM341 65q0 -31 27 -31t27 31v208q0 31 -27 31t-27 -31 v-208z" />
<glyph unicode="&#x26;" horiz-adv-x="370" d="M45 113v147q0 39 18 77q18 35 42 49l-22 41q-25 47 -25 116v70q0 115 108 115q56 0 81.5 -23.5t25.5 -81.5v-80q0 -74 -52 -122l-44 -41l94 -220h2q4 22 4 43v155h54v-130q0 -84 -20 -133l42 -95h-66l-14 36q-39 -42 -101 -42t-96 34q-31 31 -31 85zM107 130 q0 -86 76 -86q32 0 64 31l-117 261q-23 -31 -23 -98v-108zM120 547q0 -41 5 -61.5t23 -60.5q67 55 67 108v84q0 61 -48 61q-47 0 -47 -61v-70z" />
<glyph unicode="'" horiz-adv-x="168" d="M59 558v164h50v-164h-50z" />
<glyph unicode="(" horiz-adv-x="167" d="M31 313q0 245 67 421h50q-55 -207 -55 -421q0 -245 54 -421h-50q-66 182 -66 421z" />
<glyph unicode=")" horiz-adv-x="167" d="M19 -108q55 207 55 421q0 245 -54 421h50q66 -182 66 -421q0 -245 -67 -421h-50z" />
<glyph unicode="*" d="M18 571v59l92 -14l-58 73l52 33l34 -91h2l34 91l52 -33l-58 -73l92 14v-59l-92 13l58 -73l-52 -31l-34 91h-2l-34 -91l-52 31l58 73z" />
<glyph unicode="+" horiz-adv-x="600" d="M47 228v50h228v228h50v-228h228v-50h-228v-228h-50v228h-228z" />
<glyph unicode="," horiz-adv-x="138" d="M-4 -88l36 164h74l-56 -164h-54z" />
<glyph unicode="-" horiz-adv-x="166" d="M23 272v56h120v-56h-120z" />
<glyph unicode="." horiz-adv-x="138" d="M36 0v76h66v-76h-66z" />
<glyph unicode="/" d="M15 -6l194 734h54l-194 -734h-54z" />
<glyph unicode="0" horiz-adv-x="276" d="M35 101v520q0 107 103 107t103 -107v-520q0 -107 -103 -107t-103 107zM97 94q0 -50 41 -50t41 50v534q0 50 -41 50t-41 -50v-534z" />
<glyph unicode="1" horiz-adv-x="276" d="M50 602v67q36 17 75 53h57v-722h-66v647q-30 -26 -66 -45z" />
<glyph unicode="2" horiz-adv-x="276" d="M31 0v67l135 396q16 47 16 99v57q0 59 -40 59t-40 -59v-83h-62v84q0 108 105 108q99 0 99 -107v-70q0 -49 -16 -95l-139 -400h156v-56h-214z" />
<glyph unicode="3" horiz-adv-x="276" d="M35 103v98h62v-112q0 -19 11.5 -32t29.5 -13t29.5 13t11.5 32v211q0 19 -11.5 32t-29.5 13h-37v56h37q18 0 29.5 13t11.5 32v187q0 19 -11.5 32t-29.5 13t-29.5 -13t-11.5 -32v-100h-62v86q0 109 103 109t103 -109v-164q0 -37 -11 -52.5t-41 -27.5v-2q52 -9 52 -69v-201 q0 -109 -103 -109t-103 109z" />
<glyph unicode="4" horiz-adv-x="276" d="M19 190v73l100 459h94v-482h52v-50h-52v-190h-66v190h-128zM69 240h78v406h-2z" />
<glyph unicode="5" horiz-adv-x="276" d="M40 103v98h62v-98q0 -59 43 -59q42 0 42 59v243q0 59 -41 59q-42 0 -42 -59v-29h-62v405h202v-56h-140v-244h2q21 33 60 33q83 0 83 -93v-259q0 -109 -104 -109q-105 0 -105 109z" />
<glyph unicode="6" horiz-adv-x="276" d="M35 103v516q0 109 103 109t103 -109v-100h-62v116q0 43 -40 43q-18 0 -30 -12.5t-12 -30.5v-216q33 26 66 26q78 0 78 -87v-255q0 -109 -103 -109t-103 109zM97 87q0 -18 12 -30.5t29 -12.5t29 12.5t12 30.5v265q0 18 -12 30.5t-29 12.5t-29 -12.5t-12 -30.5v-265z" />
<glyph unicode="7" horiz-adv-x="276" d="M29 666v56h218v-70l-108 -652h-66l116 666h-160z" />
<glyph unicode="8" horiz-adv-x="276" d="M35 103v201q0 60 52 69v2q-30 12 -39 26q-13 17 -13 54v164q0 109 103 109t103 -109v-164q0 -37 -11 -52.5t-41 -27.5v-2q52 -9 52 -69v-201q0 -109 -103 -109t-103 109zM97 89q0 -19 11.5 -32t29.5 -13t29.5 13t11.5 32v217q0 19 -11.5 32t-29.5 13t-29.5 -13t-11.5 -32 v-217zM97 446q0 -19 11.5 -32t29.5 -13t29.5 13t11.5 32v187q0 19 -11.5 32t-29.5 13t-29.5 -13t-11.5 -32v-187z" />
<glyph unicode="9" horiz-adv-x="276" d="M35 103v100h62v-116q0 -43 40 -43q18 0 30 12.5t12 30.5v216q-33 -26 -66 -26q-78 0 -78 87v255q0 109 103 109t103 -109v-516q0 -109 -103 -109t-103 109zM97 370q0 -18 12 -30.5t29 -12.5t29 12.5t12 30.5v265q0 18 -12 30.5t-29 12.5t-29 -12.5t-12 -30.5v-265z" />
<glyph unicode=":" horiz-adv-x="138" d="M36 0v76h66v-76h-66zM36 469v76h66v-76h-66z" />
<glyph unicode=";" horiz-adv-x="138" d="M-4 -88l36 164h74l-56 -164h-54zM36 469v76h66v-76h-66z" />
<glyph unicode="&#x3c;" horiz-adv-x="600" d="M47 225v56l506 231v-56l-444 -203l444 -203v-56z" />
<glyph unicode="=" horiz-adv-x="600" d="M47 131v50h506v-50h-506zM47 325v50h506v-50h-506z" />
<glyph unicode="&#x3e;" horiz-adv-x="600" d="M47 -6v56l444 203l-444 203v56l506 -231v-56z" />
<glyph unicode="?" d="M42 535v92q0 101 98 101q96 0 96 -84v-103q0 -46 -15 -87l-34 -93q-12 -33 -12 -82v-104h-58v106q0 68 16 110l26 69q11 29 11 64v112q0 36 -32 36q-34 0 -34 -43v-94h-62zM113 0v76h66v-76h-66z" />
<glyph unicode="@" horiz-adv-x="800" d="M33 364q0 150 113 257t270 107q148 0 249.5 -87t101.5 -218q0 -110 -77 -199q-73 -84 -153 -84q-73 0 -76 69h-2q-67 -69 -141 -69q-61 0 -98 44t-37 112q0 104 68 191q73 93 174 93q86 0 121 -85l26 65h54l-102 -286q-13 -36 -13 -56q0 -34 34 -34q61 0 116.5 81 t55.5 161q0 114 -91 188q-86 70 -208 70q-140 0 -237.5 -97t-97.5 -230q0 -131 99.5 -225t237.5 -94q79 0 154.5 37t122.5 99h53q-47 -82 -137.5 -131t-192.5 -49q-163 0 -275 108t-112 262zM237 292q0 -46 27 -74t71 -28q72 0 129 87q52 79 52 153q0 43 -23 71 q-26 29 -69 29q-78 0 -135 -83q-52 -75 -52 -155z" />
<glyph unicode="A" horiz-adv-x="332" d="M15 0l106 722h90l106 -722h-66l-27 200h-116l-27 -200h-66zM115 256h102l-50 416h-2z" />
<glyph unicode="B" horiz-adv-x="333" d="M51 0v722h123q53 0 75 -14q27 -19 27 -69v-183q0 -41 -16.5 -58.5t-55.5 -19.5v-2q75 -3 75 -67v-226q0 -50 -28 -68q-22 -15 -77 -15h-123zM117 56h40q56 0 56 49v198q0 44 -52 44h-44v-291zM117 403h44q49 0 49 52v162q0 49 -56 49h-37v-263z" />
<glyph unicode="C" d="M51 94v534q0 100 103 100t103 -100v-95h-66v93q0 46 -37 46t-37 -46v-530q0 -46 37 -46t37 46v101h66v-103q0 -100 -103 -100t-103 100z" />
<glyph unicode="D" horiz-adv-x="333" d="M54 0v722h113q64 0 90 -32q22 -27 22 -85v-488q0 -58 -22 -85q-26 -32 -90 -32h-113zM120 56h35q33 0 45.5 12t12.5 44v498q0 32 -12.5 44t-45.5 12h-35v-610z" />
<glyph unicode="E" horiz-adv-x="259" d="M51 0v722h175v-56h-109v-263h104v-56h-104v-291h109v-56h-175z" />
<glyph unicode="F" horiz-adv-x="259" d="M51 0v722h175v-56h-109v-263h104v-56h-104v-347h-66z" />
<glyph unicode="G" horiz-adv-x="333" d="M54 121v493q0 114 114 114t114 -114v-81h-66v72q0 67 -48 67t-48 -67v-483q0 -72 52 -72q29 0 44 10v238h-53v56h119v-338q-55 -22 -104 -22q-124 0 -124 127z" />
<glyph unicode="H" horiz-adv-x="333" d="M51 0v722h66v-319h99v319h66v-722h-66v347h-99v-347h-66z" />
<glyph unicode="I" horiz-adv-x="168" d="M51 0v722h66v-722h-66z" />
<glyph unicode="J" d="M21 94v104h66v-104q0 -44 37 -44t37 43v629h66v-625q0 -103 -103 -103t-103 100z" />
<glyph unicode="K" d="M51 0v722h66v-310h2l80 310h66l-95 -330l104 -392h-66l-89 362h-2v-362h-66z" />
<glyph unicode="L" horiz-adv-x="259" d="M51 0v722h66v-666h109v-56h-175z" />
<glyph unicode="M" horiz-adv-x="444" d="M45 0v722h102l74 -646h2l74 646h102v-722h-58v666h-2l-76 -666h-82l-76 666h-2v-666h-58z" />
<glyph unicode="N" horiz-adv-x="333" d="M48 0v722h96l81 -618h2v618h58v-722h-94l-83 642h-2v-642h-58z" />
<glyph unicode="O" horiz-adv-x="334" d="M51 116v490q0 122 116 122t116 -122v-490q0 -122 -116 -122t-116 122zM117 118q0 -68 50 -68t50 68v486q0 68 -50 68t-50 -68v-486z" />
<glyph unicode="P" d="M51 0v722h105q63 0 86.5 -24t23.5 -86v-177q0 -62 -23.5 -86t-86.5 -24h-39v-325h-66zM117 381h32q51 0 51 45v195q0 45 -51 45h-32v-285z" />
<glyph unicode="Q" horiz-adv-x="334" d="M51 116v490q0 122 115 122q114 0 114 -122v-490q0 -45 -16 -66l38 6h20v-56h-113q-15 -6 -43 -6q-115 0 -115 122zM117 118q0 -68 49 -68q48 0 48 68v486q0 68 -48 68q-49 0 -49 -68v-486z" />
<glyph unicode="R" horiz-adv-x="333" d="M51 0v722h123q53 0 75 -14q27 -19 27 -69v-183q0 -41 -16.5 -58.5t-55.5 -19.5v-2q75 -5 75 -67v-309h-66v303q0 44 -52 44h-44v-347h-66zM117 403h44q49 0 49 52v162q0 49 -56 49h-37v-263z" />
<glyph unicode="S" d="M32 100v99h66v-95q0 -54 42 -54q40 0 40 54v101q0 36 -19 69l-97 169q-28 49 -28 92v87q0 106 104 106t104 -101v-92h-66v88q0 49 -38 49t-38 -49v-76q0 -39 15 -65l105 -180q24 -41 24 -88v-114q0 -106 -106 -106q-108 0 -108 106z" />
<glyph unicode="T" horiz-adv-x="260" d="M23 666v56h214v-56h-74v-666h-66v666h-74z" />
<glyph unicode="U" horiz-adv-x="334" d="M51 97v625h66v-604q0 -68 50 -68t50 68v604h66v-625q0 -103 -117 -103q-115 0 -115 103z" />
<glyph unicode="V" d="M7 722h66l65 -656h2l65 656h66l-84 -722h-96z" />
<glyph unicode="W" horiz-adv-x="444" d="M12 722h62l54 -646h2l51 646h82l55 -646h2l50 646h62l-73 -722h-86l-50 642h-2l-50 -642h-86z" />
<glyph unicode="X" d="M8 0l94 363l-87 359h66l57 -293h2l57 293h66l-85 -359l92 -363h-66l-64 304h-2l-64 -304h-66z" />
<glyph unicode="Y" d="M9 722h66l63 -328h2l63 328h66l-97 -408v-314h-66v314z" />
<glyph unicode="Z" horiz-adv-x="259" d="M24 0v68l149 598h-140v56h202v-56l-149 -610h148v-56h-210z" />
<glyph unicode="[" horiz-adv-x="167" d="M48 -108v842h115v-44h-61v-754h61v-44h-115z" />
<glyph unicode="\" d="M15 728h54l194 -734h-54z" />
<glyph unicode="]" horiz-adv-x="167" d="M4 -64h61v754h-61v44h115v-842h-115v44z" />
<glyph unicode="^" horiz-adv-x="600" d="M43 269l230 453h54l230 -453h-58l-199 393l-199 -393h-58z" />
<glyph unicode="_" horiz-adv-x="500" d="M0 -75h500v-50h-500v50z" />
<glyph unicode="`" horiz-adv-x="148" d="M0 722h70l44 -108h-50z" />
<glyph unicode="a" d="M36 84v148q0 105 144 105v118q0 46 -36 46q-40 0 -40 -53v-51h-62v64q0 41 30 65.5t74 24.5q96 0 96 -95v-456h-58v29h-2q-28 -35 -72 -35q-74 0 -74 90zM98 104q0 -60 39 -60q43 0 43 56v187q-31 0 -53 -12q-29 -16 -29 -47v-124z" />
<glyph unicode="b" d="M36 0v722h62v-210h2q22 39 71 39q32 0 51.5 -24t19.5 -61v-366q0 -106 -80 -106q-37 0 -66 40h-2v-34h-58zM98 104q0 -60 46 -60q36 0 36 58v330q0 63 -37 63q-20 0 -32.5 -17t-12.5 -43v-331z" />
<glyph unicode="c" horiz-adv-x="259" d="M36 76v370q0 105 103 105q84 0 84 -88v-91h-62v84q0 45 -29 45q-34 0 -34 -45v-371q0 -41 31 -41q32 0 32 41v88h62v-87q0 -92 -93 -92q-40 0 -67 21t-27 61z" />
<glyph unicode="d" d="M36 100v366q0 37 19.5 61t51.5 24q49 0 71 -39h2v210h62v-722h-58v34h-2q-29 -40 -66 -40q-80 0 -80 106zM98 102q0 -58 36 -58q46 0 46 60v331q0 26 -12.5 43t-32.5 17q-37 0 -37 -63v-330z" />
<glyph unicode="e" d="M36 99v347q0 105 103 105t103 -105v-189h-144v-158q0 -55 41 -55t41 55v77h62v-77q0 -105 -103 -105t-103 105zM98 313h82v133q0 55 -41 55t-41 -55v-133z" />
<glyph unicode="f" horiz-adv-x="167" d="M15 495v50h31v100q0 83 78 83h28v-50h-13q-31 0 -31 -41v-92h44v-50h-44v-495h-62v495h-31z" />
<glyph unicode="g" d="M36 119v346q0 37 21 61.5t57 24.5q44 0 68 -42h2v36h58v-542q0 -111 -108 -111q-37 0 -64 20q-31 24 -31 67v20h62v-16q0 -47 39 -47q40 0 40 48v74h-2q-26 -33 -65 -33q-32 0 -53 21q-24 25 -24 73zM98 124q0 -43 38 -43q44 0 44 60v310q0 44 -47 44q-35 0 -35 -54v-317 z" />
<glyph unicode="h" d="M36 0v722h62v-214h2q22 43 70 43q35 0 53.5 -23.5t18.5 -58.5v-469h-62v445q0 50 -39 50q-20 0 -31.5 -15.5t-11.5 -34.5v-445h-62z" />
<glyph unicode="i" horiz-adv-x="148" d="M41 646v76h66v-76h-66zM43 0v545h62v-545h-62z" />
<glyph unicode="j" horiz-adv-x="148" d="M1 -56q10 -2 15 -2q25 0 25 39v564h62v-584q0 -36 -25 -54q-19 -15 -46 -15q-19 0 -31 5v47zM39 646v76h66v-76h-66z" />
<glyph unicode="k" d="M36 0v722h62v-397h2l90 220h66l-103 -231l111 -314h-66l-98 293h-2v-293h-62z" />
<glyph unicode="l" horiz-adv-x="148" d="M43 0v722h62v-722h-62z" />
<glyph unicode="m" horiz-adv-x="406" d="M39 0v545h58v-37h2q29 43 72 43q38 0 58 -34q28 34 64 34t55 -23.5t19 -58.5v-469h-62v448q0 47 -31 47q-40 0 -40 -50v-445h-62v448q0 47 -31 47q-40 0 -40 -50v-445h-62z" />
<glyph unicode="n" d="M36 0v545h58v-37h2q26 43 72 43q36 0 55 -23.5t19 -58.5v-469h-62v445q0 50 -39 50q-20 0 -31.5 -15.5t-11.5 -34.5v-445h-62z" />
<glyph unicode="o" d="M36 99v347q0 105 103 105t103 -105v-347q0 -105 -103 -105t-103 105zM98 99q0 -55 41 -55t41 55v347q0 55 -41 55t-41 -55v-347z" />
<glyph unicode="p" d="M36 -108v653h58v-34h2q16 40 66 40q80 0 80 -106v-366q0 -37 -19.5 -61t-51.5 -24q-50 0 -71 40h-2v-142h-62zM98 110q0 -26 12.5 -43t32.5 -17q37 0 37 63v330q0 58 -36 58q-46 0 -46 -60v-331z" />
<glyph unicode="q" d="M36 79v366q0 106 80 106q50 0 66 -40h2v34h58v-653h-62v142h-2q-21 -40 -71 -40q-32 0 -51.5 24t-19.5 61zM98 113q0 -63 37 -63q20 0 32.5 17t12.5 43v331q0 60 -46 60q-36 0 -36 -58v-330z" />
<glyph unicode="r" horiz-adv-x="204" d="M36 0v545h58v-38h2q29 44 83 44v-62q-45 0 -63 -18.5t-18 -61.5v-409h-62z" />
<glyph unicode="s" horiz-adv-x="259" d="M37 79v95h62v-84q0 -46 31 -46q30 0 30 47v66q0 29 -23 60l-71 97q-29 40 -29 73v70q0 44 27 69t70 25q45 0 68 -27q19 -21 19 -51v-90h-58v81q0 37 -32 37t-32 -39v-61q0 -22 23 -54l78 -109q22 -31 22 -60v-92q0 -92 -93 -92q-92 0 -92 85z" />
<glyph unicode="t" horiz-adv-x="167" d="M15 495v50h31v73l62 24v-97h44v-50h-44v-414q0 -31 31 -31h13v-50h-30q-76 0 -76 67v428h-31z" />
<glyph unicode="u" d="M36 76v469h62v-445q0 -50 39 -50q20 0 32 17q11 14 11 33v445h62v-545h-58v37h-2q-26 -43 -72 -43q-36 0 -56 25q-18 22 -18 57z" />
<glyph unicode="v" horiz-adv-x="258" d="M18 545h58l52 -461h2l52 461h58l-65 -545h-92z" />
<glyph unicode="w" horiz-adv-x="406" d="M18 545h55l46 -461h2l40 461h84l40 -461h2l46 461h55l-58 -545h-85l-41 473h-2l-41 -473h-85z" />
<glyph unicode="x" horiz-adv-x="258" d="M18 0l82 281l-72 264h60l40 -162h2l40 162h60l-72 -264l82 -281h-60l-50 192h-2l-50 -192h-60z" />
<glyph unicode="y" horiz-adv-x="259" d="M18 545h62l44 -367h2l53 367h62l-104 -653h-62l22 108z" />
<glyph unicode="z" horiz-adv-x="204" d="M18 0v72l104 423h-98v50h160v-54l-108 -441h110v-50h-168z" />
<glyph unicode="{" horiz-adv-x="167" d="M15 293v40q39 0 39 64v263q0 74 60 74h38v-40h-18q-26 0 -26 -33v-264q0 -65 -39 -83v-2q39 -18 39 -83v-264q0 -33 26 -33h18v-40h-38q-60 0 -60 74v263q0 64 -39 64z" />
<glyph unicode="|" horiz-adv-x="222" d="M86 -6v734h50v-734h-50z" />
<glyph unicode="}" horiz-adv-x="167" d="M15 -68h18q26 0 26 33v264q0 65 39 83v2q-39 18 -39 83v264q0 33 -26 33h-18v40h38q60 0 60 -74v-263q0 -64 39 -64v-40q-39 0 -39 -64v-263q0 -74 -60 -74h-38v40z" />
<glyph unicode="~" horiz-adv-x="600" d="M69 226q40 86 125 86q40 0 114 -34t99 -34q42 0 88 72l36 -36q-40 -86 -125 -86q-40 0 -114 34t-99 34q-42 0 -88 -72z" />
<glyph unicode="&#xa2;" horiz-adv-x="276" d="M44 106v370q0 86 71 101v82h50v-79q67 -9 67 -87v-91h-62v84q0 45 -32 45t-32 -45v-371q0 -41 32 -41t32 41v88h62v-87q0 -77 -67 -89v-81h-50v81q-71 11 -71 79z" />
<glyph unicode="&#xa3;" horiz-adv-x="276" d="M26 361v56h57v198q0 113 99 113t99 -93v-60h-62v67q0 36 -35 36t-35 -45v-216h96v-56h-96v-305h124v-56h-245v56h55v305h-57z" />
<glyph unicode="&#xa5;" horiz-adv-x="276" d="M8 722h66l63 -328h2l63 328h66l-80 -337h73v-50h-85l-5 -21v-53h90v-50h-90v-211h-66v211h-90v50h90v53l-5 21h-85v50h73z" />
<glyph unicode="&#xa8;" horiz-adv-x="148" d="M-7 628v76h62v-76h-62zM93 628v76h62v-76h-62z" />
<glyph unicode="&#xa9;" horiz-adv-x="800" d="M33 361q0 152 107.5 259.5t259.5 107.5t259.5 -107.5t107.5 -259.5t-107.5 -259.5t-259.5 -107.5t-259.5 107.5t-107.5 259.5zM83 361q0 -132 92.5 -224.5t224.5 -92.5t224.5 92.5t92.5 224.5t-92.5 224.5t-224.5 92.5t-224.5 -92.5t-92.5 -224.5zM189 362 q0 102 59 166.5t161 64.5q73 0 125.5 -40.5t62.5 -112.5h-54q-9 45 -45 74t-88 29q-78 0 -122.5 -51.5t-44.5 -128.5q0 -75 45 -128q48 -57 124 -57q52 0 88 32q34 29 43 76h54q-17 -71 -67 -114.5t-118 -43.5q-100 0 -162 68q-61 65 -61 166z" />
<glyph unicode="&#xab;" d="M21 302l57 210h54l-49 -210l49 -214h-50zM146 302l57 210h54l-49 -210l49 -214h-50z" />
<glyph unicode="&#xae;" horiz-adv-x="800" d="M33 361q0 152 107.5 259.5t259.5 107.5t259.5 -107.5t107.5 -259.5t-107.5 -259.5t-259.5 -107.5t-259.5 107.5t-107.5 259.5zM83 361q0 -132 92.5 -224.5t224.5 -92.5t224.5 92.5t92.5 224.5t-92.5 224.5t-224.5 92.5t-224.5 -92.5t-92.5 -224.5zM263 132v436h167 q142 0 142 -121q0 -102 -108 -121l128 -194h-62l-124 194h-93v-194h-50zM313 370h103q106 0 106 78q0 76 -104 76h-105v-154z" />
<glyph unicode="&#xb4;" horiz-adv-x="148" d="M34 614l44 108h70l-64 -108h-50z" />
<glyph unicode="&#xb8;" horiz-adv-x="148" d="M28 -110l5 23q11 -3 24 -3q35 0 35 21q0 19 -21 19q-15 0 -24 -3l12 53h20l-8 -32q12 2 26 2q17 0 29 -11.5t12 -26.5q0 -16 -14 -29q-20 -17 -60 -17q-19 0 -36 4z" />
<glyph unicode="&#xbb;" d="M21 88l49 210l-49 214h50l61 -214l-57 -210h-54zM146 88l49 210l-49 214h50l61 -214l-57 -210h-54z" />
<glyph unicode="&#xc0;" horiz-adv-x="332" d="M15 0l106 722h90l106 -722h-66l-27 200h-116l-27 -200h-66zM98 861h70l44 -108h-50zM115 256h102l-50 416h-2z" />
<glyph unicode="&#xc1;" horiz-adv-x="332" d="M15 0l106 722h90l106 -722h-66l-27 200h-116l-27 -200h-66zM115 256h102l-50 416h-2zM132 753l44 108h70l-64 -108h-50z" />
<glyph unicode="&#xc2;" horiz-adv-x="332" d="M15 0l106 722h90l106 -722h-66l-27 200h-116l-27 -200h-66zM85 753l44 108h86l44 -108h-58l-29 72l-29 -72h-58zM115 256h102l-50 416h-2z" />
<glyph unicode="&#xc3;" horiz-adv-x="332" d="M15 0l106 722h90l106 -722h-66l-27 200h-116l-27 -200h-66zM82 771q0 67 59 67q15 0 35.5 -9t26.5 -9q23 0 25 23h34q0 -67 -59 -67q-15 0 -35.5 9t-26.5 9q-23 0 -25 -23h-34zM115 256h102l-50 416h-2z" />
<glyph unicode="&#xc7;" d="M51 94v534q0 100 103 100t103 -100v-95h-66v93q0 46 -37 46t-37 -46v-530q0 -46 37 -46t37 46v101h66v-103q0 -100 -103 -100l-7 -26q12 2 26 2q17 0 29 -11.5t12 -26.5q0 -16 -14 -29q-20 -17 -60 -17q-19 0 -36 4l5 23q11 -3 24 -3q35 0 35 21q0 19 -21 19 q-15 0 -24 -3l11 49q-83 9 -83 98z" />
<glyph unicode="&#xc9;" horiz-adv-x="259" d="M51 0v722h175v-56h-109v-263h104v-56h-104v-291h109v-56h-175zM102 753l44 108h70l-64 -108h-50z" />
<glyph unicode="&#xca;" horiz-adv-x="259" d="M51 0v722h175v-56h-109v-263h104v-56h-104v-291h109v-56h-175zM55 753l44 108h86l44 -108h-58l-29 72l-29 -72h-58z" />
<glyph unicode="&#xcd;" horiz-adv-x="168" d="M44 753l44 108h70l-64 -108h-50zM51 0v722h66v-722h-66z" />
<glyph unicode="&#xd3;" horiz-adv-x="334" d="M51 116v490q0 122 116 122t116 -122v-490q0 -122 -116 -122t-116 122zM117 118q0 -68 50 -68t50 68v486q0 68 -50 68t-50 -68v-486zM127 753l44 108h70l-64 -108h-50z" />
<glyph unicode="&#xd4;" horiz-adv-x="334" d="M51 116v490q0 122 116 122t116 -122v-490q0 -122 -116 -122t-116 122zM80 753l44 108h86l44 -108h-58l-29 72l-29 -72h-58zM117 118q0 -68 50 -68t50 68v486q0 68 -50 68t-50 -68v-486z" />
<glyph unicode="&#xd5;" horiz-adv-x="334" d="M51 116v490q0 122 116 122t116 -122v-490q0 -122 -116 -122t-116 122zM77 771q0 67 59 67q15 0 35.5 -9t26.5 -9q23 0 25 23h34q0 -67 -59 -67q-15 0 -35.5 9t-26.5 9q-23 0 -25 -23h-34zM117 118q0 -68 50 -68t50 68v486q0 68 -50 68t-50 -68v-486z" />
<glyph unicode="&#xda;" horiz-adv-x="334" d="M51 97v625h66v-604q0 -68 50 -68t50 68v604h66v-625q0 -103 -117 -103q-115 0 -115 103zM127 753l44 108h70l-64 -108h-50z" />
<glyph unicode="&#xdc;" horiz-adv-x="334" d="M51 97v625h66v-604q0 -68 50 -68t50 68v604h66v-625q0 -103 -117 -103q-115 0 -115 103zM86 767v76h62v-76h-62zM186 767v76h62v-76h-62z" />
<glyph unicode="&#xe0;" d="M36 84v148q0 105 144 105v118q0 46 -36 46q-40 0 -40 -53v-51h-62v64q0 41 30 65.5t74 24.5q96 0 96 -95v-456h-58v29h-2q-28 -35 -72 -35q-74 0 -74 90zM71 722h70l44 -108h-50zM98 104q0 -60 39 -60q43 0 43 56v187q-31 0 -53 -12q-29 -16 -29 -47v-124z" />
<glyph unicode="&#xe1;" d="M36 84v148q0 105 144 105v118q0 46 -36 46q-40 0 -40 -53v-51h-62v64q0 41 30 65.5t74 24.5q96 0 96 -95v-456h-58v29h-2q-28 -35 -72 -35q-74 0 -74 90zM98 104q0 -60 39 -60q43 0 43 56v187q-31 0 -53 -12q-29 -16 -29 -47v-124zM105 614l44 108h70l-64 -108h-50z" />
<glyph unicode="&#xe2;" d="M36 84v148q0 105 144 105v118q0 46 -36 46q-40 0 -40 -53v-51h-62v64q0 41 30 65.5t74 24.5q96 0 96 -95v-456h-58v29h-2q-28 -35 -72 -35q-74 0 -74 90zM58 614l44 108h86l44 -108h-58l-29 72l-29 -72h-58zM98 104q0 -60 39 -60q43 0 43 56v187q-31 0 -53 -12 q-29 -16 -29 -47v-124z" />
<glyph unicode="&#xe3;" d="M36 84v148q0 105 144 105v118q0 46 -36 46q-40 0 -40 -53v-51h-62v64q0 41 30 65.5t74 24.5q96 0 96 -95v-456h-58v29h-2q-28 -35 -72 -35q-74 0 -74 90zM55 632q0 67 59 67q15 0 35.5 -9t26.5 -9q23 0 25 23h34q0 -67 -59 -67q-15 0 -35.5 9t-26.5 9q-23 0 -25 -23h-34z M98 104q0 -60 39 -60q43 0 43 56v187q-31 0 -53 -12q-29 -16 -29 -47v-124z" />
<glyph unicode="&#xe7;" horiz-adv-x="259" d="M36 76v370q0 105 103 105q84 0 84 -88v-91h-62v84q0 45 -29 45q-34 0 -34 -45v-371q0 -41 31 -41q32 0 32 41v88h62v-87q0 -92 -93 -92l-7 -26q12 2 26 2q17 0 29 -11.5t12 -26.5q0 -16 -14 -29q-20 -17 -60 -17q-19 0 -36 4l5 23q11 -3 24 -3q35 0 35 21q0 19 -21 19 q-15 0 -24 -3l11 48q-74 13 -74 81z" />
<glyph unicode="&#xe9;" d="M36 99v347q0 105 103 105t103 -105v-189h-144v-158q0 -55 41 -55t41 55v77h62v-77q0 -105 -103 -105t-103 105zM98 313h82v133q0 55 -41 55t-41 -55v-133zM99 614l44 108h70l-64 -108h-50z" />
<glyph unicode="&#xea;" d="M36 99v347q0 105 103 105t103 -105v-189h-144v-158q0 -55 41 -55t41 55v77h62v-77q0 -105 -103 -105t-103 105zM52 614l44 108h86l44 -108h-58l-29 72l-29 -72h-58zM98 313h82v133q0 55 -41 55t-41 -55v-133z" />
<glyph unicode="&#xed;" horiz-adv-x="148" d="M34 614l44 108h70l-64 -108h-50zM43 0v545h62v-545h-62z" />
<glyph unicode="&#xf3;" d="M36 99v347q0 105 103 105t103 -105v-347q0 -105 -103 -105t-103 105zM98 99q0 -55 41 -55t41 55v347q0 55 -41 55t-41 -55v-347zM99 614l44 108h70l-64 -108h-50z" />
<glyph unicode="&#xf4;" d="M36 99v347q0 105 103 105t103 -105v-347q0 -105 -103 -105t-103 105zM52 614l44 108h86l44 -108h-58l-29 72l-29 -72h-58zM98 99q0 -55 41 -55t41 55v347q0 55 -41 55t-41 -55v-347z" />
<glyph unicode="&#xf5;" d="M36 99v347q0 105 103 105t103 -105v-347q0 -105 -103 -105t-103 105zM49 632q0 67 59 67q15 0 35.5 -9t26.5 -9q23 0 25 23h34q0 -67 -59 -67q-15 0 -35.5 9t-26.5 9q-23 0 -25 -23h-34zM98 99q0 -55 41 -55t41 55v347q0 55 -41 55t-41 -55v-347z" />
<glyph unicode="&#xfa;" d="M36 76v469h62v-445q0 -50 39 -50q20 0 32 17q11 14 11 33v445h62v-545h-58v37h-2q-26 -43 -72 -43q-36 0 -56 25q-18 22 -18 57zM99 614l44 108h70l-64 -108h-50z" />
<glyph unicode="&#xfc;" d="M36 76v469h62v-445q0 -50 39 -50q20 0 32 17q11 14 11 33v445h62v-545h-58v37h-2q-26 -43 -72 -43q-36 0 -56 25q-18 22 -18 57zM58 628v76h62v-76h-62zM158 628v76h62v-76h-62z" />
<glyph unicode="&#x2c6;" horiz-adv-x="148" d="M-13 614l44 108h86l44 -108h-58l-29 72l-29 -72h-58z" />
<glyph unicode="&#x2da;" horiz-adv-x="148" d="M7 663q0 28 19.5 47.5t47.5 19.5t47.5 -19.5t19.5 -47.5t-19.5 -47.5t-47.5 -19.5t-47.5 19.5t-19.5 47.5zM41 663q0 -13 10 -23t23 -10q14 0 23.5 10t9.5 23q0 14 -9.5 23.5t-23.5 9.5q-13 0 -23 -9.5t-10 -23.5z" />
<glyph unicode="&#x2dc;" horiz-adv-x="148" d="M-16 632q0 67 59 67q15 0 35.5 -9t26.5 -9q23 0 25 23h34q0 -67 -59 -67q-15 0 -35.5 9t-26.5 9q-23 0 -25 -23h-34z" />
<glyph unicode="&#x2013;" horiz-adv-x="500" d="M0 275v50h500v-50h-500z" />
<glyph unicode="&#x2014;" horiz-adv-x="1000" d="M0 275v50h1000v-50h-1000z" />
<glyph unicode="&#x2018;" horiz-adv-x="168" d="M29 558l56 164h54l-36 -164h-74z" />
<glyph unicode="&#x2019;" horiz-adv-x="168" d="M29 558l36 164h74l-56 -164h-54z" />
<glyph unicode="&#x201a;" horiz-adv-x="168" d="M29 -88l36 164h74l-56 -164h-54z" />
<glyph unicode="&#x201c;" d="M24 558l56 164h54l-36 -164h-74zM144 558l56 164h54l-36 -164h-74z" />
<glyph unicode="&#x201d;" d="M24 558l36 164h74l-56 -164h-54zM144 558l36 164h74l-56 -164h-54z" />
<glyph unicode="&#x201e;" d="M24 -88l36 164h74l-56 -164h-54zM144 -88l36 164h74l-56 -164h-54z" />
<glyph unicode="&#x2026;" horiz-adv-x="1000" d="M134 0v76h66v-76h-66zM467 0v76h66v-76h-66zM800 0v76h66v-76h-66z" />
<glyph unicode="&#x2039;" horiz-adv-x="167" d="M28 302l57 210h54l-49 -210l49 -214h-50z" />
<glyph unicode="&#x203a;" horiz-adv-x="167" d="M28 88l49 210l-49 214h50l61 -214l-57 -210h-54z" />
<glyph unicode="&#x20ac;" horiz-adv-x="276" d="M0 282l11 50h55v74h-62l11 50h51v165q0 21 5 43t27 40q20 16 42.5 20t37.5 4q32 0 60 -11q11 -5 18.5 -10t15.5 -15l-12 -56q-8 14 -17.5 21.5t-13.5 9.5q-20 11 -48 11q-10 0 -21 -2.5t-19 -9.5q-10 -8 -11.5 -17.5t-1.5 -20.5v-172h103l-11 -50h-92v-74h78l-11 -50h-67 v-188q0 -16 5 -24.5t9 -12.5q9 -9 20 -11t20 -2q14 0 24 2t22 8q20 10 34 27v-62q-12 -9 -32 -17q-12 -5 -23.5 -6.5t-25.5 -1.5q-19 0 -40 3t-38 16q-24 18 -30.5 42t-6.5 46v181h-66z" />
<glyph unicode="&#x2122;" horiz-adv-x="990" d="M64 678v44h320v-44h-135v-368h-50v368h-135zM436 310v412h85l131 -336l131 336h85v-412h-50v368h-2l-149 -368h-30l-149 368h-2v-368h-50z" />
<glyph unicode="&#x25fc;" horiz-adv-x="545" d="M0 0v545h545v-545h-545z" />
</font>
</defs>
</svg>
